<svg xmlns="http://www.w3.org/2000/svg" xmlns:xlink="http://www.w3.org/1999/xlink" width="500" zoomAndPan="magnify" viewBox="0 0 375 374.999991" height="500" preserveAspectRatio="xMidYMid meet" version="1.0"><defs><filter x="0%" y="0%" width="100%" xlink:type="simple" xlink:actuate="onLoad" height="100%" id="id1" xlink:show="other"><feColorMatrix values="0 0 0 0 1 0 0 0 0 1 0 0 0 0 1 0 0 0 1 0" color-interpolation-filters="sRGB"/></filter><g><g id="id2"/></g><mask id="id3"><g filter="url(#id1)"><rect x="-37.5" width="450" fill="rgb(0%, 0%, 0%)" y="-37.499999" height="449.999989" fill-opacity="0.2471"/></g></mask><clipPath id="id4"><path d="M 39 57 L 225 57 L 225 200 L 39 200 Z M 39 57 " clip-rule="nonzero"/></clipPath><clipPath id="id5"><path d="M 260.210938 167.722656 L 68.566406 246.207031 L 0.171875 79.203125 L 191.820312 0.71875 Z M 260.210938 167.722656 " clip-rule="nonzero"/></clipPath><clipPath id="id6"><path d="M 260.210938 167.722656 L 68.566406 246.207031 L 0.171875 79.203125 L 191.820312 0.71875 Z M 260.210938 167.722656 " clip-rule="nonzero"/></clipPath><clipPath id="id7"><path d="M 260.210938 167.722656 L 68.566406 246.207031 L 0.171875 79.203125 L 191.820312 0.71875 Z M 260.210938 167.722656 " clip-rule="nonzero"/></clipPath><clipPath id="id8"><rect x="0" width="261" y="0" height="247"/></clipPath></defs><g mask="url(#id3)"><g transform="matrix(1, 0, 0, 1, 18, 19)"><g clip-path="url(#id8)"><g clip-path="url(#id4)"><g clip-path="url(#id5)"><g clip-path="url(#id6)"><g clip-path="url(#id7)"><path fill="rgb(46.269226%, 79.998779%, 81.17981%)" d="M 108.746094 194.367188 C 73.679688 181.652344 7.671875 97.167969 57.839844 64.082031 C 91.765625 41.691406 97.171875 77.542969 143.699219 105.621094 C 159.113281 114.90625 234.503906 105.292969 223.429688 153.105469 C 216.859375 181.4375 154.605469 210.972656 108.746094 194.367188 Z M 108.746094 194.367188 " fill-opacity="1" fill-rule="nonzero"/></g></g></g></g></g></g></g><path fill="rgb(19.999695%, 41.958618%, 52.938843%)" d="M 258.070312 45.019531 C 257.921875 44.902344 257.757812 44.820312 257.574219 44.769531 C 257.394531 44.71875 257.210938 44.707031 257.023438 44.730469 C 256.835938 44.753906 256.660156 44.816406 256.496094 44.910156 C 256.335938 45.007812 256.195312 45.128906 256.085938 45.28125 C 255.972656 45.433594 255.894531 45.601562 255.847656 45.785156 C 255.804688 45.96875 255.796875 46.152344 255.824219 46.339844 C 255.855469 46.527344 255.921875 46.699219 256.019531 46.859375 C 256.121094 47.019531 256.25 47.152344 256.402344 47.261719 C 284.292969 68.03125 300.519531 99.980469 300.941406 134.925781 C 301.082031 146.519531 299.457031 157.855469 296.0625 168.941406 C 293.914062 171.679688 291.777344 174.425781 289.566406 177.113281 C 287.078125 180.210938 284.433594 183.167969 281.628906 185.984375 C 280.996094 186.609375 280.347656 187.214844 279.683594 187.800781 C 279.363281 188.085938 279.042969 188.363281 278.714844 188.632812 L 278.257812 189.003906 L 278.0625 189.160156 C 278.210938 189.039062 278.023438 189.160156 277.980469 189.21875 C 276.382812 190.429688 274.664062 191.484375 273.015625 192.632812 C 271.222656 193.816406 269.605469 195.207031 268.167969 196.804688 C 266.78125 198.417969 265.804688 200.253906 265.246094 202.308594 C 264.714844 204.289062 264.601562 206.296875 264.902344 208.328125 C 265.203125 210.355469 265.894531 212.242188 266.980469 213.984375 C 267.265625 214.421875 267.585938 214.839844 267.914062 215.25 C 265.367188 217.777344 262.707031 220.171875 259.925781 222.4375 C 257.144531 224.703125 254.261719 226.828125 251.273438 228.8125 C 248.289062 230.796875 245.210938 232.628906 242.042969 234.3125 C 238.878906 235.992188 235.636719 237.515625 232.320312 238.882812 C 229.003906 240.246094 225.632812 241.445312 222.199219 242.480469 C 218.765625 243.515625 215.292969 244.378906 211.773438 245.074219 C 208.257812 245.765625 204.714844 246.285156 201.148438 246.632812 C 197.582031 246.980469 194.003906 247.152344 190.417969 247.148438 L 190.230469 247.148438 C 186.683594 247.164062 183.148438 247.007812 179.617188 246.679688 C 176.089844 246.351562 172.585938 245.851562 169.101562 245.183594 C 165.621094 244.519531 162.179688 243.683594 158.78125 242.683594 C 155.378906 241.683594 152.035156 240.523438 148.746094 239.199219 C 145.457031 237.875 142.242188 236.398438 139.09375 234.761719 C 135.949219 233.128906 132.886719 231.347656 129.914062 229.417969 C 126.941406 227.484375 124.066406 225.417969 121.292969 223.207031 C 118.515625 221 115.855469 218.664062 113.304688 216.199219 C 114.144531 214.730469 114.789062 213.183594 115.242188 211.554688 C 115.695312 209.929688 115.9375 208.269531 115.972656 206.578125 C 116.007812 204.890625 115.832031 203.222656 115.449219 201.578125 C 115.066406 199.929688 114.488281 198.359375 113.710938 196.859375 C 112.15625 193.886719 109.710938 191.65625 107.402344 189.308594 C 106.824219 188.730469 106.296875 188.152344 105.789062 187.574219 L 105.4375 187.148438 L 105.402344 187.109375 C 105.351562 187.050781 105.304688 186.972656 105.257812 186.910156 C 105.035156 186.609375 104.820312 186.296875 104.625 185.976562 C 104.433594 185.675781 104.261719 185.363281 104.105469 185.042969 L 103.984375 184.777344 C 103.914062 184.597656 103.851562 184.417969 103.785156 184.234375 C 103.675781 183.898438 103.589844 183.554688 103.527344 183.207031 C 103.527344 183.136719 103.492188 183.042969 103.488281 182.964844 L 103.488281 182.894531 C 103.488281 182.703125 103.488281 182.519531 103.453125 182.316406 C 103.453125 182.015625 103.453125 181.738281 103.492188 181.421875 C 103.492188 181.421875 103.492188 181.449219 103.492188 181.464844 C 103.511719 181.386719 103.523438 181.304688 103.53125 181.222656 C 103.53125 181.066406 103.589844 180.910156 103.628906 180.753906 C 103.699219 180.46875 103.78125 180.183594 103.878906 179.90625 C 103.929688 179.753906 103.988281 179.609375 104.039062 179.460938 L 104.128906 179.265625 C 104.679688 178.09375 105.347656 176.996094 106.136719 175.96875 C 106.1875 175.898438 106.246094 175.832031 106.292969 175.761719 L 106.570312 175.410156 L 107.238281 174.589844 C 107.664062 174.0625 108.097656 173.546875 108.519531 173.023438 C 109.425781 171.941406 110.257812 170.804688 111.007812 169.613281 C 112.484375 167.15625 113.238281 164.21875 112.324219 161.414062 C 111.246094 158.128906 108.386719 155.761719 105.363281 154.296875 C 101.769531 152.636719 98 151.710938 94.046875 151.527344 C 90.035156 151.277344 86.105469 151.734375 82.253906 152.894531 C 81.75 153.046875 81.261719 153.214844 80.777344 153.386719 C 79.949219 147.976562 79.519531 142.539062 79.484375 137.066406 C 79.371094 124.054688 81.488281 111.417969 85.832031 99.15625 C 86.140625 98.3125 86.542969 97.515625 87.042969 96.769531 C 87.542969 96.023438 88.125 95.347656 88.785156 94.742188 C 89.445312 94.132812 90.171875 93.613281 90.957031 93.183594 C 91.742188 92.75 92.570312 92.417969 93.4375 92.183594 C 98.125 90.871094 101.652344 90.859375 103.355469 92.183594 C 104.292969 92.894531 104.75 94.0625 104.75 95.738281 C 104.75 101.230469 102.234375 106.496094 99.554688 112.074219 C 96.875 117.648438 94.101562 123.488281 94.101562 129.613281 C 94.101562 132.945312 94.421875 136.488281 96.820312 137.480469 C 100.109375 138.84375 104.703125 134.996094 117.75 121.933594 C 125.300781 114.375 132.605469 112.683594 138.46875 111.304688 C 145.171875 109.742188 150.960938 108.414062 152.929688 99.085938 C 154.714844 90.628906 151.648438 82.492188 148.949219 75.308594 C 146.339844 68.371094 143.878906 61.855469 146.09375 56.234375 C 148.539062 50.035156 151.234375 47.453125 153.542969 45.738281 C 154.140625 45.304688 154.699219 44.828125 155.222656 44.308594 C 155.742188 43.789062 156.21875 43.230469 156.652344 42.632812 C 157.085938 42.035156 157.46875 41.410156 157.804688 40.75 C 158.136719 40.09375 158.417969 39.414062 158.644531 38.710938 C 158.871094 38.011719 159.039062 37.292969 159.152344 36.566406 C 159.265625 35.835938 159.320312 35.101562 159.316406 34.367188 C 159.3125 33.628906 159.25 32.894531 159.128906 32.167969 C 159.007812 31.441406 158.832031 30.726562 158.597656 30.027344 C 168.117188 27.199219 177.839844 25.679688 187.765625 25.464844 L 187.796875 25.464844 C 188.953125 25.464844 190.050781 25.433594 191.175781 25.464844 C 191.359375 25.464844 191.539062 25.429688 191.710938 25.359375 C 191.882812 25.289062 192.03125 25.1875 192.164062 25.058594 C 192.292969 24.925781 192.394531 24.773438 192.464844 24.601562 C 192.539062 24.433594 192.574219 24.253906 192.574219 24.066406 C 192.574219 23.882812 192.539062 23.703125 192.464844 23.53125 C 192.394531 23.359375 192.292969 23.210938 192.164062 23.078125 C 192.03125 22.949219 191.882812 22.847656 191.710938 22.777344 C 191.539062 22.703125 191.359375 22.667969 191.175781 22.667969 L 189.941406 22.667969 C 186.066406 22.671875 182.203125 22.871094 178.347656 23.269531 C 174.492188 23.667969 170.671875 24.261719 166.875 25.054688 C 163.082031 25.84375 159.339844 26.828125 155.648438 28 C 151.957031 29.175781 148.332031 30.535156 144.777344 32.082031 C 141.226562 33.628906 137.757812 35.351562 134.382812 37.253906 C 131.003906 39.15625 127.734375 41.222656 124.566406 43.460938 C 121.402344 45.695312 118.359375 48.089844 115.4375 50.636719 C 112.515625 53.1875 109.734375 55.878906 107.089844 58.710938 C 106.960938 58.847656 106.863281 59.003906 106.792969 59.175781 C 106.726562 59.351562 106.695312 59.53125 106.703125 59.71875 C 106.707031 59.90625 106.75 60.085938 106.824219 60.253906 C 106.902344 60.425781 107.007812 60.574219 107.144531 60.703125 C 107.28125 60.832031 107.4375 60.925781 107.613281 60.992188 C 107.789062 61.054688 107.96875 61.085938 108.15625 61.078125 C 108.34375 61.070312 108.519531 61.027344 108.691406 60.945312 C 108.859375 60.867188 109.007812 60.757812 109.132812 60.621094 C 115.535156 53.746094 122.699219 47.789062 130.617188 42.742188 C 138.539062 37.695312 146.960938 33.722656 155.890625 30.824219 C 156.082031 31.386719 156.226562 31.960938 156.328125 32.546875 C 156.425781 33.128906 156.480469 33.71875 156.484375 34.3125 C 156.488281 34.90625 156.449219 35.496094 156.359375 36.085938 C 156.269531 36.671875 156.136719 37.246094 155.953125 37.8125 C 155.773438 38.378906 155.550781 38.925781 155.28125 39.453125 C 155.015625 39.984375 154.707031 40.488281 154.355469 40.96875 C 154.007812 41.449219 153.625 41.898438 153.203125 42.316406 C 152.785156 42.734375 152.332031 43.117188 151.851562 43.464844 C 149.222656 45.414062 146.175781 48.324219 143.46875 55.179688 C 140.859375 61.804688 143.503906 68.832031 146.304688 76.265625 C 149 83.421875 151.789062 90.820312 150.171875 98.476562 C 148.570312 106.039062 144.519531 106.988281 137.8125 108.546875 C 131.601562 109.996094 123.863281 111.796875 115.753906 119.921875 C 109.460938 126.214844 99.964844 135.71875 97.859375 134.863281 C 97.691406 134.792969 96.863281 134.214844 96.863281 129.585938 C 96.863281 124.09375 99.382812 118.828125 102.0625 113.25 C 104.738281 107.675781 107.523438 101.835938 107.523438 95.710938 C 107.523438 93.132812 106.679688 91.183594 105.023438 89.929688 C 102.535156 88.039062 98.371094 87.890625 92.65625 89.492188 C 91.578125 89.789062 90.546875 90.210938 89.570312 90.753906 C 88.59375 91.300781 87.691406 91.953125 86.871094 92.714844 C 86.050781 93.476562 85.328125 94.324219 84.710938 95.257812 C 84.09375 96.191406 83.59375 97.1875 83.210938 98.242188 C 82.449219 100.375 81.753906 102.53125 81.121094 104.707031 C 80.488281 106.882812 79.921875 109.074219 79.421875 111.285156 C 78.917969 113.496094 78.484375 115.71875 78.117188 117.953125 C 77.746094 120.191406 77.445312 122.4375 77.210938 124.691406 C 76.976562 126.945312 76.8125 129.203125 76.710938 131.46875 C 76.613281 133.730469 76.582031 135.996094 76.617188 138.261719 C 76.65625 140.527344 76.761719 142.789062 76.933594 145.050781 C 77.105469 147.308594 77.34375 149.5625 77.648438 151.808594 C 77.957031 154.054688 78.328125 156.289062 78.769531 158.511719 C 79.210938 160.734375 79.714844 162.941406 80.289062 165.132812 C 80.859375 167.328125 81.5 169.5 82.199219 171.65625 C 82.902344 173.808594 83.667969 175.941406 84.5 178.050781 C 85.328125 180.15625 86.222656 182.238281 87.175781 184.292969 C 88.128906 186.347656 89.144531 188.375 90.21875 190.367188 C 91.296875 192.363281 92.429688 194.320312 93.621094 196.246094 C 94.816406 198.175781 96.066406 200.0625 97.371094 201.914062 C 98.675781 203.765625 100.035156 205.574219 101.449219 207.34375 C 102.863281 209.113281 104.328125 210.839844 105.847656 212.523438 C 107.363281 214.203125 108.929688 215.839844 110.546875 217.425781 C 112.160156 219.015625 113.820312 220.550781 115.527344 222.039062 C 117.234375 223.527344 118.984375 224.964844 120.777344 226.347656 C 122.570312 227.730469 124.402344 229.058594 126.277344 230.332031 C 128.148438 231.605469 130.058594 232.820312 132.003906 233.980469 C 133.949219 235.140625 135.925781 236.238281 137.9375 237.28125 C 139.949219 238.320312 141.988281 239.300781 144.058594 240.21875 C 146.125 241.136719 148.222656 241.992188 150.34375 242.78125 C 152.464844 243.574219 154.605469 244.304688 156.769531 244.96875 C 158.933594 245.632812 161.117188 246.230469 163.316406 246.761719 C 165.515625 247.296875 167.730469 247.761719 169.957031 248.164062 C 172.1875 248.5625 174.421875 248.894531 176.671875 249.160156 C 178.917969 249.429688 181.171875 249.625 183.433594 249.757812 C 185.691406 249.886719 187.953125 249.953125 190.21875 249.945312 L 190.417969 249.945312 C 192.289062 249.945312 194.160156 249.894531 196.027344 249.796875 C 197.894531 249.703125 199.757812 249.558594 201.621094 249.371094 C 203.480469 249.183594 205.335938 248.949219 207.183594 248.671875 C 209.035156 248.390625 210.875 248.066406 212.710938 247.695312 C 214.542969 247.324219 216.367188 246.90625 218.179688 246.445312 C 219.992188 245.984375 221.792969 245.480469 223.578125 244.929688 C 225.367188 244.378906 227.140625 243.785156 228.898438 243.148438 C 230.65625 242.507812 232.398438 241.828125 234.125 241.101562 C 235.847656 240.378906 237.554688 239.613281 239.242188 238.804688 C 240.929688 237.996094 242.59375 237.144531 244.238281 236.253906 C 245.882812 235.363281 247.507812 234.433594 249.105469 233.460938 C 250.703125 232.488281 252.277344 231.480469 253.828125 230.429688 C 255.375 229.382812 256.898438 228.292969 258.394531 227.171875 C 259.890625 226.046875 261.355469 224.882812 262.796875 223.6875 C 264.234375 222.492188 265.640625 221.257812 267.019531 219.992188 C 268.398438 218.726562 269.742188 217.425781 271.054688 216.089844 C 272.367188 214.757812 273.648438 213.394531 274.894531 211.996094 C 276.140625 210.597656 277.351562 209.171875 278.527344 207.714844 C 279.703125 206.257812 280.839844 204.773438 281.941406 203.261719 C 283.042969 201.75 284.109375 200.210938 285.136719 198.644531 C 286.160156 197.078125 287.148438 195.488281 288.09375 193.875 C 289.042969 192.257812 289.949219 190.621094 290.816406 188.964844 C 291.683594 187.304688 292.511719 185.625 293.292969 183.925781 C 294.078125 182.222656 294.820312 180.503906 295.519531 178.769531 C 296.21875 177.03125 296.875 175.277344 297.484375 173.507812 C 298.097656 171.738281 298.667969 169.957031 299.191406 168.160156 C 299.714844 166.363281 300.195312 164.550781 300.632812 162.730469 C 301.066406 160.910156 301.457031 159.078125 301.800781 157.238281 C 302.148438 155.398438 302.445312 153.550781 302.699219 151.695312 C 302.953125 149.839844 303.160156 147.980469 303.324219 146.113281 C 303.484375 144.246094 303.601562 142.378906 303.667969 140.507812 C 303.738281 138.636719 303.761719 136.765625 303.738281 134.890625 C 303.308594 99.066406 286.664062 66.308594 258.070312 45.019531 Z M 81.25 156.226562 C 82.730469 155.675781 84.246094 155.238281 85.792969 154.914062 C 86.25 154.820312 86.710938 154.734375 87.171875 154.660156 L 87.898438 154.550781 L 87.941406 154.550781 L 88.449219 154.484375 C 89.378906 154.386719 90.3125 154.324219 91.253906 154.300781 C 92.195312 154.277344 93.210938 154.300781 94.191406 154.363281 C 94.660156 154.394531 95.121094 154.433594 95.589844 154.484375 L 96.132812 154.550781 L 96.355469 154.582031 L 96.738281 154.640625 C 98.621094 154.933594 100.460938 155.394531 102.257812 156.027344 L 102.835938 156.25 L 103.117188 156.363281 C 103.496094 156.519531 103.875 156.699219 104.238281 156.882812 C 104.9375 157.234375 105.609375 157.632812 106.25 158.074219 C 106.402344 158.183594 106.570312 158.289062 106.714844 158.410156 L 106.957031 158.605469 C 107.273438 158.871094 107.578125 159.148438 107.867188 159.445312 C 108.109375 159.675781 108.332031 159.925781 108.539062 160.191406 C 108.503906 160.144531 108.480469 160.121094 108.539062 160.242188 L 108.710938 160.484375 C 108.820312 160.648438 108.929688 160.816406 109.027344 160.988281 C 109.132812 161.15625 109.226562 161.328125 109.3125 161.507812 C 109.34375 161.566406 109.371094 161.625 109.398438 161.6875 C 109.398438 161.703125 109.398438 161.71875 109.398438 161.734375 C 109.574219 162.085938 109.6875 162.457031 109.738281 162.847656 C 109.785156 162.996094 109.816406 163.144531 109.832031 163.300781 L 109.832031 163.382812 C 109.835938 163.457031 109.835938 163.53125 109.832031 163.605469 C 109.855469 163.921875 109.855469 164.234375 109.832031 164.546875 C 109.832031 164.675781 109.722656 165.214844 109.832031 164.734375 C 109.800781 164.867188 109.789062 165 109.761719 165.125 C 109.726562 165.4375 109.671875 165.746094 109.601562 166.050781 C 109.519531 166.304688 109.421875 166.546875 109.328125 166.796875 L 109.242188 166.988281 L 109.023438 167.425781 C 108.726562 167.992188 108.398438 168.535156 108.035156 169.0625 C 107.867188 169.3125 107.695312 169.554688 107.515625 169.796875 C 107.421875 169.925781 107.332031 170.050781 107.234375 170.171875 C 107.175781 170.234375 107.128906 170.3125 107.070312 170.378906 C 106.257812 171.414062 105.402344 172.421875 104.578125 173.449219 C 102.925781 175.519531 101.253906 177.800781 100.785156 180.472656 C 100.492188 182.023438 100.589844 183.550781 101.078125 185.050781 C 101.648438 186.609375 102.472656 188.015625 103.554688 189.273438 C 104.566406 190.460938 105.636719 191.59375 106.765625 192.671875 C 107.34375 193.25 107.886719 193.785156 108.421875 194.355469 C 108.671875 194.621094 108.914062 194.886719 109.148438 195.160156 L 109.542969 195.628906 L 109.675781 195.789062 L 109.773438 195.910156 C 110.253906 196.554688 110.6875 197.230469 111.078125 197.933594 C 111.257812 198.257812 111.425781 198.59375 111.585938 198.925781 C 111.667969 199.105469 111.746094 199.28125 111.824219 199.460938 L 111.976562 199.859375 C 112.261719 200.613281 112.496094 201.382812 112.683594 202.171875 C 112.761719 202.535156 112.839844 202.902344 112.90625 203.273438 C 112.90625 203.453125 112.976562 203.644531 112.996094 203.851562 C 112.996094 203.996094 113.023438 204.136719 113.039062 204.28125 C 113.117188 205.0625 113.148438 205.847656 113.132812 206.632812 C 113.132812 207.023438 113.105469 207.417969 113.070312 207.789062 C 113.070312 208 113.027344 208.214844 113.003906 208.429688 C 113.003906 208.429688 113.003906 208.578125 113.003906 208.621094 C 113.003906 208.660156 113.003906 208.742188 112.976562 208.800781 C 112.855469 209.582031 112.683594 210.351562 112.464844 211.113281 C 112.355469 211.488281 112.230469 211.855469 112.097656 212.226562 L 111.867188 212.804688 L 111.710938 213.15625 C 111.558594 213.488281 111.394531 213.804688 111.222656 214.121094 C 107.339844 210.191406 103.777344 205.988281 100.527344 201.519531 C 97.28125 197.050781 94.386719 192.359375 91.847656 187.453125 C 89.304688 182.542969 87.148438 177.472656 85.371094 172.238281 C 83.59375 167.003906 82.222656 161.667969 81.25 156.226562 Z M 267.648438 204.4375 Z M 268.4375 210.765625 L 268.480469 210.863281 C 268.460938 210.828125 268.445312 210.792969 268.4375 210.753906 Z M 269.894531 213.273438 L 269.710938 213.019531 C 269.574219 212.832031 269.449219 212.640625 269.328125 212.441406 C 269.082031 212.054688 268.859375 211.652344 268.660156 211.238281 L 268.503906 210.902344 C 268.410156 210.671875 268.324219 210.441406 268.242188 210.210938 C 268.09375 209.773438 267.964844 209.332031 267.863281 208.886719 C 267.816406 208.679688 267.773438 208.46875 267.734375 208.261719 C 267.734375 208.140625 267.695312 208.023438 267.675781 207.902344 C 267.660156 207.78125 267.675781 207.8125 267.675781 207.792969 C 267.625 207.335938 267.597656 206.875 267.585938 206.414062 C 267.574219 205.949219 267.585938 205.492188 267.632812 205.035156 C 267.632812 204.914062 267.632812 204.789062 267.671875 204.667969 L 267.671875 204.613281 C 267.738281 204.375 267.78125 204.132812 267.792969 203.886719 C 267.886719 203.4375 268 202.992188 268.132812 202.550781 C 268.195312 202.355469 268.265625 202.152344 268.339844 201.972656 C 268.414062 201.792969 268.433594 201.742188 268.472656 201.625 C 268.515625 201.511719 268.433594 201.714844 268.433594 201.714844 C 268.453125 201.648438 268.484375 201.582031 268.519531 201.523438 C 268.707031 201.105469 268.921875 200.699219 269.15625 200.304688 C 269.269531 200.105469 269.398438 199.910156 269.523438 199.726562 L 269.71875 199.449219 L 269.859375 199.257812 C 270.476562 198.480469 271.15625 197.765625 271.902344 197.113281 C 272.277344 196.78125 272.664062 196.464844 273.058594 196.152344 L 273.136719 196.089844 L 273.460938 195.847656 L 274.074219 195.402344 C 275.722656 194.246094 277.445312 193.164062 279.078125 191.972656 C 280.472656 190.941406 281.792969 189.824219 283.042969 188.621094 C 285.796875 185.941406 288.382812 183.109375 290.808594 180.132812 C 291.65625 179.113281 292.488281 178.078125 293.320312 177.050781 C 290.640625 183.796875 287.332031 190.21875 283.386719 196.3125 C 279.445312 202.40625 274.949219 208.054688 269.894531 213.261719 Z M 269.894531 213.273438 " fill-opacity="1" fill-rule="nonzero"/><path fill="rgb(19.999695%, 41.958618%, 52.938843%)" d="M 186.257812 111.550781 C 186.65625 112.792969 187.269531 113.921875 188.09375 114.933594 C 188.917969 115.945312 189.898438 116.769531 191.03125 117.414062 C 192.308594 118.09375 193.667969 118.496094 195.109375 118.625 C 196.550781 118.757812 197.960938 118.601562 199.339844 118.164062 C 202.035156 117.339844 204.4375 115.992188 206.546875 114.117188 C 207.023438 114.621094 207.511719 115.117188 208.019531 115.59375 C 210.15625 117.699219 212.6875 119.082031 215.613281 119.738281 C 218.820312 120.371094 222.078125 120.039062 225.308594 119.8125 C 228.234375 119.558594 231.144531 119.679688 234.039062 120.175781 C 239.625 121.246094 244.835938 123.871094 248.5625 128.214844 C 249.449219 129.234375 250.230469 130.328125 250.902344 131.5 C 251.574219 132.671875 252.125 133.898438 252.554688 135.179688 C 252.980469 136.460938 253.28125 137.773438 253.453125 139.113281 C 253.625 140.453125 253.664062 141.796875 253.566406 143.144531 C 253.453125 144.390625 253.207031 145.609375 252.835938 146.804688 C 252.488281 147.96875 252.023438 149.082031 251.4375 150.144531 C 250.238281 152.386719 248.714844 154.375 246.867188 156.117188 C 245 157.921875 242.933594 159.464844 240.671875 160.738281 C 238.261719 162.117188 235.726562 163.203125 233.070312 164 C 226.800781 165.949219 220.246094 166.664062 213.746094 167.425781 C 207.664062 168.136719 201.554688 168.914062 195.679688 170.714844 C 190.074219 172.449219 184.679688 175.097656 180.425781 179.199219 C 175.988281 183.476562 173.101562 189.097656 168.558594 193.273438 C 166.574219 195.199219 164.265625 196.574219 161.628906 197.40625 C 160.347656 197.796875 159.039062 197.925781 157.703125 197.792969 C 157.589844 197.792969 157.472656 197.78125 157.359375 197.761719 L 156.886719 197.667969 C 156.546875 197.59375 156.210938 197.492188 155.886719 197.371094 C 155.375 197.160156 154.914062 196.863281 154.507812 196.488281 C 154.304688 196.304688 154.132812 196.09375 153.992188 195.859375 C 153.851562 195.628906 153.726562 195.394531 153.617188 195.148438 C 153.496094 194.828125 153.398438 194.503906 153.328125 194.171875 C 153.265625 193.90625 153.222656 193.632812 153.203125 193.363281 C 153.140625 192.683594 153.140625 192.007812 153.203125 191.332031 C 153.203125 191.1875 153.230469 191.042969 153.25 190.898438 C 153.25 190.859375 153.25 190.703125 153.289062 190.65625 C 153.335938 190.363281 153.390625 190.078125 153.460938 189.777344 C 153.589844 189.191406 153.753906 188.613281 153.945312 188.042969 C 154.042969 187.765625 154.148438 187.464844 154.257812 187.21875 C 154.261719 187.1875 154.261719 187.160156 154.257812 187.128906 L 154.300781 187.050781 C 154.363281 186.90625 154.425781 186.753906 154.496094 186.609375 C 155.003906 185.527344 155.59375 184.492188 156.261719 183.5 C 156.597656 182.992188 156.949219 182.496094 157.316406 182.007812 C 157.625 181.59375 157.894531 181.230469 158.328125 180.714844 C 159.117188 179.738281 159.945312 178.789062 160.78125 177.824219 C 162.460938 175.917969 164.183594 174.039062 165.753906 172.046875 C 167.492188 169.964844 168.910156 167.6875 170.011719 165.207031 C 171.113281 162.726562 171.847656 160.144531 172.222656 157.457031 C 173.09375 151.867188 172.835938 146.203125 172.617188 140.574219 C 172.507812 137.765625 172.40625 134.957031 172.464844 132.144531 C 172.5 130.765625 172.5625 129.390625 172.695312 128.015625 C 172.8125 126.730469 173.007812 125.460938 173.273438 124.199219 C 173.757812 121.667969 174.585938 119.257812 175.761719 116.96875 C 175.851562 116.804688 175.90625 116.632812 175.929688 116.449219 C 175.949219 116.269531 175.9375 116.085938 175.890625 115.910156 C 175.84375 115.730469 175.765625 115.566406 175.65625 115.417969 C 175.550781 115.269531 175.417969 115.148438 175.261719 115.050781 C 175.097656 114.957031 174.925781 114.902344 174.746094 114.875 C 174.5625 114.851562 174.378906 114.863281 174.203125 114.910156 C 174.023438 114.957031 173.859375 115.039062 173.714844 115.148438 C 173.566406 115.257812 173.445312 115.394531 173.347656 115.550781 C 170.640625 120.71875 169.804688 126.535156 169.6875 132.3125 C 169.574219 138.09375 170.128906 143.875 170.058594 149.652344 C 170.070312 152.441406 169.84375 155.210938 169.371094 157.960938 C 168.886719 160.648438 168.011719 163.203125 166.75 165.625 C 164.316406 170.191406 160.648438 173.6875 157.261719 177.679688 C 153.871094 181.675781 150.859375 186.089844 150.394531 191.441406 C 150.136719 194.511719 151.042969 197.839844 153.859375 199.464844 C 156.539062 201.007812 160.035156 200.851562 162.894531 199.914062 C 169.023438 197.910156 173.089844 192.75 176.820312 187.777344 C 178.648438 185.175781 180.710938 182.769531 183 180.566406 C 185.164062 178.640625 187.550781 177.054688 190.160156 175.808594 C 195.355469 173.246094 201.335938 171.90625 207.148438 171.035156 C 213.867188 170.027344 220.667969 169.582031 227.355469 168.269531 C 233.398438 167.082031 239.355469 165.125 244.46875 161.613281 C 249.089844 158.460938 252.945312 154.238281 255.003906 149 C 257.1875 143.457031 256.695312 137.300781 254.238281 131.945312 C 252.941406 129.210938 251.210938 126.789062 249.042969 124.675781 C 246.878906 122.5625 244.417969 120.894531 241.652344 119.667969 C 238.753906 118.363281 235.726562 117.515625 232.574219 117.125 C 229.425781 116.71875 226.316406 116.933594 223.164062 117.160156 C 221.511719 117.300781 219.859375 117.335938 218.203125 117.257812 C 217.457031 117.21875 216.722656 117.117188 215.992188 116.949219 C 215.640625 116.875 215.292969 116.785156 214.949219 116.671875 L 214.371094 116.472656 L 213.984375 116.316406 C 211.914062 115.320312 210.125 113.953125 208.621094 112.21875 C 210.386719 110.484375 212.042969 108.632812 213.734375 106.894531 C 215.667969 104.773438 217.898438 103.039062 220.433594 101.691406 C 220.589844 101.597656 220.726562 101.476562 220.835938 101.328125 C 220.945312 101.179688 221.027344 101.015625 221.074219 100.835938 C 221.121094 100.660156 221.128906 100.476562 221.105469 100.292969 C 221.082031 100.113281 221.027344 99.941406 220.933594 99.777344 C 220.839844 99.621094 220.714844 99.488281 220.566406 99.378906 C 220.417969 99.265625 220.253906 99.1875 220.078125 99.140625 C 219.898438 99.09375 219.71875 99.082031 219.535156 99.105469 C 219.351562 99.128906 219.179688 99.1875 219.019531 99.277344 C 213.996094 101.773438 210.699219 106.375 206.769531 110.199219 C 205.292969 108.40625 203.652344 106.777344 201.84375 105.320312 C 199.742188 103.765625 197.390625 102.832031 194.796875 102.523438 C 193.574219 102.339844 192.367188 102.421875 191.183594 102.777344 C 190 103.132812 188.945312 103.722656 188.023438 104.546875 C 187.570312 104.992188 187.183594 105.492188 186.867188 106.046875 C 186.550781 106.597656 186.3125 107.183594 186.15625 107.800781 C 186 108.417969 185.933594 109.046875 185.949219 109.683594 C 185.964844 110.320312 186.070312 110.945312 186.257812 111.550781 Z M 190.066406 112.929688 C 189.953125 112.789062 190.042969 112.90625 190.066406 112.929688 Z M 189.003906 107.917969 Z M 188.757812 108.851562 C 188.757812 108.933594 188.757812 108.941406 188.757812 108.851562 Z M 188.757812 108.996094 C 188.757812 108.945312 188.757812 108.894531 188.757812 108.839844 C 188.808594 108.597656 188.859375 108.363281 188.9375 108.125 C 188.9375 108.054688 188.988281 107.984375 189.011719 107.910156 C 189.035156 107.835938 189.132812 107.664062 189.203125 107.535156 L 189.402344 107.199219 L 189.535156 107.015625 C 189.699219 106.808594 189.878906 106.617188 190.074219 106.4375 C 190.136719 106.378906 190.207031 106.316406 190.28125 106.257812 L 190.441406 106.136719 C 190.671875 105.984375 190.910156 105.847656 191.160156 105.726562 C 191.210938 105.726562 191.3125 105.65625 191.34375 105.644531 L 191.589844 105.558594 C 191.859375 105.472656 192.128906 105.402344 192.40625 105.34375 L 192.671875 105.296875 L 192.878906 105.296875 C 193.171875 105.273438 193.464844 105.261719 193.757812 105.269531 C 194.011719 105.269531 194.265625 105.269531 194.519531 105.308594 L 194.75 105.308594 L 195.183594 105.386719 C 195.753906 105.496094 196.3125 105.644531 196.863281 105.832031 C 197.105469 105.910156 197.335938 105.996094 197.570312 106.097656 L 197.855469 106.21875 L 198.289062 106.421875 C 198.8125 106.6875 199.320312 106.980469 199.8125 107.304688 C 200.019531 107.441406 200.222656 107.585938 200.421875 107.738281 L 200.648438 107.917969 L 200.996094 108.21875 C 201.496094 108.667969 201.980469 109.140625 202.449219 109.632812 C 203.210938 110.417969 203.945312 111.242188 204.671875 112.0625 C 202.941406 113.5625 200.992188 114.675781 198.824219 115.40625 C 197.535156 115.8125 196.21875 115.957031 194.871094 115.839844 L 194.714844 115.839844 L 194.328125 115.765625 C 194.023438 115.699219 193.726562 115.609375 193.433594 115.5 L 193.214844 115.417969 L 192.914062 115.28125 C 192.632812 115.140625 192.359375 114.988281 192.09375 114.816406 C 191.878906 114.683594 191.671875 114.539062 191.46875 114.390625 C 191.429688 114.351562 191.273438 114.222656 191.246094 114.199219 C 191.125 114.09375 191.007812 113.992188 190.898438 113.882812 C 190.695312 113.699219 190.503906 113.507812 190.320312 113.304688 C 190.222656 113.195312 190.128906 113.078125 190.039062 112.960938 L 189.882812 112.753906 C 189.738281 112.535156 189.59375 112.316406 189.46875 112.089844 C 189.390625 111.957031 189.324219 111.824219 189.253906 111.691406 C 189.253906 111.644531 189.167969 111.496094 189.136719 111.441406 C 188.949219 110.976562 188.816406 110.496094 188.734375 109.996094 C 188.734375 109.953125 188.734375 109.871094 188.734375 109.820312 C 188.734375 109.765625 188.734375 109.574219 188.734375 109.453125 C 188.734375 109.332031 188.738281 109.136719 188.746094 108.996094 Z M 188.757812 108.996094 " fill-opacity="1" fill-rule="nonzero"/><path fill="rgb(19.999695%, 41.958618%, 52.938843%)" d="M 238.847656 224.15625 C 239.210938 224.15625 239.574219 224.15625 239.933594 224.15625 C 240.230469 224.148438 240.527344 224.167969 240.820312 224.214844 L 240.910156 224.214844 L 241.097656 224.25 C 241.289062 224.289062 241.472656 224.335938 241.675781 224.386719 C 241.828125 224.425781 241.976562 224.476562 242.121094 224.53125 L 242.179688 224.53125 L 242.292969 224.585938 C 242.429688 224.648438 242.558594 224.71875 242.6875 224.796875 L 242.871094 224.917969 C 242.984375 225.015625 243.089844 225.113281 243.1875 225.21875 L 243.304688 225.347656 C 243.378906 225.464844 243.453125 225.574219 243.519531 225.695312 C 243.582031 225.816406 243.585938 225.820312 243.617188 225.886719 C 243.617188 225.898438 243.617188 225.910156 243.617188 225.925781 C 243.667969 226.101562 243.753906 226.265625 243.871094 226.410156 C 243.984375 226.554688 244.125 226.671875 244.285156 226.761719 C 244.449219 226.851562 244.621094 226.910156 244.804688 226.933594 C 244.988281 226.960938 245.167969 226.949219 245.347656 226.902344 C 245.527344 226.851562 245.6875 226.769531 245.835938 226.652344 C 245.980469 226.535156 246.101562 226.398438 246.191406 226.234375 C 246.28125 226.074219 246.339844 225.898438 246.363281 225.714844 C 246.386719 225.53125 246.371094 225.347656 246.324219 225.167969 C 246.042969 224.386719 245.605469 223.703125 245.019531 223.117188 C 244.429688 222.527344 243.746094 222.09375 242.964844 221.816406 C 241.523438 221.3125 240.042969 221.144531 238.523438 221.3125 C 236.984375 221.503906 235.460938 221.804688 233.964844 222.214844 C 233.601562 222.296875 233.238281 222.375 232.867188 222.441406 C 232.6875 222.476562 232.503906 222.507812 232.320312 222.53125 L 232.097656 222.566406 L 231.914062 222.566406 C 231.171875 222.683594 230.425781 222.726562 229.675781 222.695312 L 229.4375 222.695312 C 229.269531 222.664062 229.109375 222.625 228.945312 222.585938 C 228.785156 222.542969 228.628906 222.492188 228.472656 222.433594 L 228.386719 222.398438 L 228.316406 222.398438 L 228.191406 222.324219 C 228.046875 222.25 227.914062 222.15625 227.773438 222.074219 L 227.625 221.949219 C 227.503906 221.832031 227.394531 221.707031 227.277344 221.589844 L 227.082031 221.285156 C 227.019531 221.175781 226.960938 221.058594 226.902344 220.941406 L 226.902344 220.910156 C 226.816406 220.699219 226.746094 220.480469 226.691406 220.261719 C 226.570312 219.828125 226.480469 219.375 226.402344 218.933594 C 226.28125 218.058594 226.089844 217.203125 225.824219 216.367188 C 225.265625 214.882812 224.433594 213.578125 223.328125 212.445312 C 222.226562 211.3125 220.941406 210.449219 219.472656 209.855469 C 217.976562 209.207031 216.414062 208.8125 214.789062 208.671875 C 213.164062 208.53125 211.558594 208.652344 209.972656 209.035156 C 206.273438 209.945312 203.011719 212.070312 200.15625 214.574219 C 197.421875 216.988281 195.148438 219.820312 192.734375 222.542969 C 191.546875 223.902344 190.277344 225.179688 188.925781 226.371094 L 188.4375 226.773438 L 188.179688 226.984375 L 188.121094 227.023438 C 187.753906 227.300781 187.371094 227.601562 186.96875 227.828125 C 186.203125 228.324219 185.40625 228.757812 184.570312 229.121094 L 184.53125 229.121094 L 184.449219 229.152344 L 184.117188 229.277344 L 183.371094 229.539062 C 182.890625 229.695312 182.40625 229.828125 181.921875 229.949219 C 180.917969 230.195312 179.902344 230.382812 178.886719 230.527344 C 176.90625 230.796875 174.949219 231.167969 173.007812 231.636719 C 169.757812 232.519531 166.433594 234.3125 164.679688 237.300781 C 164.238281 238.046875 163.921875 238.84375 163.726562 239.6875 C 163.675781 239.867188 163.664062 240.046875 163.6875 240.230469 C 163.710938 240.414062 163.765625 240.589844 163.859375 240.75 C 163.949219 240.910156 164.070312 241.046875 164.214844 241.164062 C 164.363281 241.277344 164.523438 241.359375 164.703125 241.40625 C 164.878906 241.457031 165.0625 241.46875 165.246094 241.445312 C 165.429688 241.425781 165.601562 241.367188 165.761719 241.277344 C 165.925781 241.183594 166.0625 241.066406 166.175781 240.921875 C 166.289062 240.773438 166.371094 240.613281 166.421875 240.433594 C 166.5 240.101562 166.597656 239.78125 166.714844 239.460938 C 166.714844 239.496094 166.84375 239.167969 166.878906 239.097656 C 166.980469 238.902344 167.089844 238.707031 167.207031 238.519531 C 167.304688 238.363281 167.410156 238.214844 167.511719 238.0625 L 167.699219 237.835938 C 167.953125 237.542969 168.222656 237.265625 168.511719 237.003906 C 168.648438 236.878906 168.792969 236.757812 168.9375 236.636719 L 169.054688 236.550781 L 169.199219 236.4375 C 169.527344 236.207031 169.867188 235.988281 170.214844 235.785156 C 170.5625 235.582031 170.894531 235.410156 171.242188 235.242188 L 171.722656 235.027344 L 171.820312 234.984375 L 172.199219 234.839844 C 175.757812 233.503906 179.636719 233.472656 183.277344 232.46875 C 185.152344 231.957031 186.902344 231.167969 188.527344 230.097656 C 190.050781 229.0625 191.457031 227.882812 192.738281 226.5625 C 195.234375 224.046875 197.359375 221.214844 199.847656 218.675781 C 200.480469 218.019531 201.132812 217.382812 201.816406 216.769531 C 202.121094 216.492188 202.433594 216.226562 202.746094 215.960938 L 203.246094 215.542969 L 203.5 215.34375 L 203.5625 215.289062 L 203.628906 215.25 C 205.035156 214.167969 206.546875 213.257812 208.164062 212.523438 L 208.320312 212.457031 L 208.535156 212.371094 L 209.113281 212.152344 C 209.535156 212 209.960938 211.875 210.394531 211.757812 C 210.828125 211.644531 211.144531 211.574219 211.546875 211.503906 C 211.628906 211.503906 212.183594 211.367188 211.796875 211.464844 C 212 211.421875 212.210938 211.402344 212.417969 211.402344 C 213.125 211.34375 213.828125 211.34375 214.53125 211.402344 L 215.058594 211.453125 L 215.105469 211.453125 L 215.3125 211.480469 C 215.699219 211.550781 216.074219 211.625 216.464844 211.722656 C 216.859375 211.824219 217.140625 211.910156 217.472656 212.023438 L 217.96875 212.203125 L 218.15625 212.277344 L 218.191406 212.277344 L 218.257812 212.308594 C 218.898438 212.601562 219.515625 212.941406 220.101562 213.332031 L 220.425781 213.566406 L 220.710938 213.789062 C 220.988281 214.03125 221.257812 214.285156 221.511719 214.550781 C 221.628906 214.671875 221.738281 214.800781 221.847656 214.925781 L 221.972656 215.078125 C 222.164062 215.347656 222.355469 215.621094 222.523438 215.910156 C 222.671875 216.171875 222.804688 216.445312 222.925781 216.722656 C 222.925781 216.804688 223.03125 216.988281 223.054688 217.046875 C 223.117188 217.242188 223.179688 217.441406 223.230469 217.625 C 223.46875 218.511719 223.5625 219.421875 223.757812 220.3125 C 223.90625 221.207031 224.230469 222.03125 224.734375 222.78125 C 225.238281 223.535156 225.875 224.148438 226.644531 224.625 C 229.449219 226.203125 232.992188 225.445312 235.945312 224.660156 C 236.628906 224.445312 237.328125 224.296875 238.039062 224.21875 C 237.640625 224.25 238.195312 224.21875 238.289062 224.21875 Z M 188.179688 226.820312 Z M 226.789062 220.730469 C 226.757812 220.675781 226.789062 220.695312 226.789062 220.730469 Z M 228.3125 222.332031 L 228.4375 222.382812 C 228.4375 222.382812 228.363281 222.359375 228.3125 222.332031 Z M 229.507812 222.664062 L 229.621094 222.664062 C 229.585938 222.683594 229.546875 222.691406 229.507812 222.695312 Z M 229.507812 222.664062 " fill-opacity="1" fill-rule="nonzero"/><path fill="rgb(19.999695%, 41.958618%, 52.938843%)" d="M 106.304688 175.777344 L 106.257812 175.835938 C 106.207031 175.878906 106.136719 176.039062 106.304688 175.777344 Z M 106.304688 175.777344 " fill-opacity="1" fill-rule="nonzero"/><path fill="rgb(19.999695%, 41.958618%, 52.938843%)" d="M 107.25 170.179688 C 107.011719 170.445312 107.191406 170.253906 107.25 170.179688 Z M 107.25 170.179688 " fill-opacity="1" fill-rule="nonzero"/><path fill="rgb(19.999695%, 41.958618%, 52.938843%)" d="M 103.480469 181.398438 C 103.5625 181.078125 103.492188 181.289062 103.480469 181.398438 Z M 103.480469 181.398438 " fill-opacity="1" fill-rule="nonzero"/><path fill="rgb(19.999695%, 41.958618%, 52.938843%)" d="M 202.726562 22.859375 L 202.765625 22.765625 Z M 202.726562 22.859375 " fill-opacity="1" fill-rule="nonzero"/><path fill="rgb(19.999695%, 41.958618%, 52.938843%)" d="M 210.082031 69.527344 C 214.265625 76.347656 218.707031 83.003906 222.875 89.835938 C 223.46875 90.8125 224.058594 91.792969 224.652344 92.78125 C 224.714844 92.882812 224.789062 92.976562 224.878906 93.0625 C 224.964844 93.144531 225.0625 93.214844 225.167969 93.277344 C 225.273438 93.335938 225.382812 93.378906 225.5 93.410156 C 225.617188 93.441406 225.738281 93.457031 225.859375 93.457031 C 225.980469 93.457031 226.097656 93.441406 226.214844 93.410156 C 226.332031 93.378906 226.445312 93.335938 226.550781 93.277344 C 226.65625 93.214844 226.753906 93.144531 226.839844 93.0625 C 226.925781 92.976562 227.003906 92.882812 227.066406 92.78125 C 231.191406 86.738281 234.933594 80.464844 238.289062 73.960938 C 239.898438 70.9375 241.46875 67.890625 243.074219 64.867188 C 244.734375 61.734375 246.363281 58.621094 247.691406 55.335938 C 250.414062 48.726562 252.078125 41.863281 252.679688 34.738281 C 252.992188 31.347656 252.992188 27.960938 252.679688 24.570312 C 252.4375 21.703125 251.710938 18.960938 250.496094 16.351562 C 249.261719 13.835938 247.488281 11.785156 245.179688 10.195312 C 242.464844 8.386719 239.484375 7.328125 236.238281 7.015625 C 234.617188 6.835938 233.007812 6.898438 231.40625 7.199219 C 229.804688 7.5 228.28125 8.03125 226.839844 8.792969 C 225.410156 9.601562 224.089844 10.566406 222.878906 11.679688 C 221.75 12.691406 220.71875 13.789062 219.78125 14.976562 C 215.859375 19.945312 213.632812 26.246094 214.40625 32.609375 C 215.15625 38.703125 218.382812 45.054688 224.050781 47.910156 C 226.714844 49.25 229.996094 49.933594 232.855469 48.789062 C 236.132812 47.476562 237.871094 44.40625 238.847656 41.164062 C 239.824219 37.921875 240.175781 34.101562 239.015625 30.761719 C 238.488281 29.195312 237.652344 27.816406 236.5 26.628906 C 235.351562 25.445312 234 24.566406 232.453125 23.992188 C 230.972656 23.472656 229.464844 23.375 227.929688 23.691406 C 227.75 23.742188 227.589844 23.824219 227.441406 23.941406 C 227.292969 24.054688 227.175781 24.195312 227.082031 24.355469 C 226.992188 24.519531 226.933594 24.691406 226.914062 24.878906 C 226.890625 25.0625 226.90625 25.246094 226.957031 25.425781 C 227.007812 25.605469 227.09375 25.765625 227.207031 25.910156 C 227.324219 26.054688 227.460938 26.175781 227.625 26.265625 C 227.785156 26.359375 227.957031 26.414062 228.140625 26.441406 C 228.324219 26.464844 228.507812 26.453125 228.6875 26.410156 C 228.746094 26.410156 229.050781 26.355469 229.035156 26.351562 L 229.445312 26.351562 C 229.746094 26.347656 230.046875 26.359375 230.351562 26.390625 L 230.691406 26.449219 C 230.859375 26.484375 231.019531 26.519531 231.179688 26.566406 L 231.597656 26.699219 L 231.964844 26.835938 C 232.554688 27.097656 233.105469 27.421875 233.625 27.808594 L 233.894531 28.027344 L 234.230469 28.328125 C 234.496094 28.582031 234.75 28.847656 234.984375 29.132812 L 235.128906 29.316406 L 235.164062 29.355469 C 235.25 29.484375 235.335938 29.605469 235.417969 29.730469 C 235.621094 30.035156 235.804688 30.351562 235.96875 30.679688 C 236.101562 30.9375 236.214844 31.203125 236.308594 31.476562 C 236.445312 31.875 236.566406 32.28125 236.664062 32.691406 C 236.84375 33.394531 236.941406 34.109375 236.953125 34.835938 C 236.980469 35.644531 236.949219 36.449219 236.855469 37.25 C 236.855469 37.328125 236.855469 37.402344 236.855469 37.476562 C 236.855469 37.5 236.855469 37.519531 236.855469 37.539062 C 236.820312 37.742188 236.792969 37.941406 236.753906 38.117188 C 236.683594 38.515625 236.597656 38.910156 236.5 39.308594 C 236.3125 40.070312 236.082031 40.820312 235.8125 41.558594 C 235.746094 41.738281 235.679688 41.917969 235.609375 42.089844 L 235.609375 42.125 L 235.449219 42.359375 C 235.273438 42.726562 235.082031 43.082031 234.871094 43.425781 C 234.554688 44.027344 234.148438 44.558594 233.652344 45.019531 C 233.519531 45.148438 233.386719 45.269531 233.242188 45.390625 L 233.207031 45.390625 L 233.046875 45.503906 C 232.757812 45.707031 232.457031 45.882812 232.140625 46.03125 L 232.011719 46.09375 L 231.972656 46.09375 L 231.515625 46.25 C 231.195312 46.34375 230.867188 46.417969 230.535156 46.46875 L 230.34375 46.46875 C 230.183594 46.46875 230.019531 46.46875 229.855469 46.46875 C 229.503906 46.480469 229.15625 46.46875 228.808594 46.4375 L 228.527344 46.402344 L 228.128906 46.328125 C 227.792969 46.261719 227.464844 46.175781 227.140625 46.082031 C 226.816406 45.992188 226.488281 45.863281 226.164062 45.742188 L 226.09375 45.828125 L 225.933594 45.753906 C 225.773438 45.683594 225.617188 45.609375 225.460938 45.527344 C 224.839844 45.214844 224.242188 44.855469 223.675781 44.453125 L 223.386719 44.234375 L 223.046875 43.957031 C 222.78125 43.730469 222.527344 43.492188 222.285156 43.25 C 221.78125 42.746094 221.308594 42.214844 220.867188 41.65625 L 220.667969 41.390625 L 220.355469 40.957031 C 220.15625 40.660156 219.964844 40.378906 219.78125 40.050781 C 219.40625 39.4375 219.070312 38.804688 218.769531 38.152344 L 218.578125 37.726562 L 218.457031 37.4375 C 218.320312 37.085938 218.191406 36.726562 218.070312 36.363281 C 217.839844 35.679688 217.648438 34.984375 217.492188 34.28125 C 217.425781 33.953125 217.359375 33.617188 217.304688 33.285156 C 217.269531 33.109375 217.246094 32.929688 217.21875 32.75 C 217.21875 32.632812 217.21875 32.511719 217.171875 32.398438 C 217.09375 31.679688 217.054688 30.957031 217.050781 30.234375 C 217.042969 29.511719 217.078125 28.792969 217.148438 28.074219 L 217.199219 27.605469 L 217.199219 27.566406 L 217.234375 27.308594 C 217.292969 26.945312 217.355469 26.585938 217.429688 26.234375 C 217.582031 25.519531 217.765625 24.8125 217.980469 24.121094 C 218.082031 23.796875 218.191406 23.472656 218.308594 23.15625 C 218.371094 22.980469 218.433594 22.8125 218.503906 22.640625 C 218.53125 22.558594 218.566406 22.472656 218.601562 22.390625 L 218.601562 22.28125 C 219.175781 20.9375 219.871094 19.660156 220.679688 18.445312 C 220.867188 18.160156 221.0625 17.867188 221.257812 17.601562 C 221.363281 17.449219 221.472656 17.304688 221.582031 17.160156 L 221.644531 17.074219 L 221.828125 16.847656 C 222.285156 16.269531 222.765625 15.726562 223.273438 15.195312 C 223.78125 14.664062 224.269531 14.191406 224.796875 13.714844 C 225.066406 13.472656 225.375 13.234375 225.628906 13 L 226.054688 12.65625 L 226.128906 12.601562 L 226.316406 12.460938 C 226.910156 12.011719 227.539062 11.605469 228.195312 11.246094 C 228.507812 11.078125 228.824219 10.921875 229.148438 10.78125 C 229.207031 10.78125 229.398438 10.679688 229.433594 10.664062 L 230.007812 10.457031 C 230.707031 10.226562 231.417969 10.050781 232.140625 9.925781 L 232.507812 9.871094 C 232.671875 9.847656 232.832031 9.832031 232.992188 9.820312 C 233.359375 9.785156 233.726562 9.769531 234.097656 9.761719 C 237 9.707031 239.730469 10.363281 242.292969 11.726562 C 242.875 12.039062 243.429688 12.386719 243.96875 12.769531 L 244.292969 13.011719 L 244.46875 13.160156 C 244.730469 13.375 244.980469 13.597656 245.214844 13.820312 C 245.644531 14.230469 246.042969 14.664062 246.414062 15.125 C 246.460938 15.183594 246.507812 15.234375 246.546875 15.292969 C 246.625 15.402344 246.710938 15.507812 246.785156 15.613281 C 246.96875 15.878906 247.148438 16.148438 247.316406 16.421875 C 247.640625 16.941406 247.929688 17.480469 248.1875 18.035156 C 248.25 18.171875 248.308594 18.316406 248.378906 18.457031 C 248.398438 18.5 248.417969 18.546875 248.4375 18.59375 C 248.5625 18.902344 248.679688 19.210938 248.78125 19.523438 C 249.195312 20.75 249.503906 22 249.707031 23.277344 C 249.707031 23.421875 249.746094 23.566406 249.769531 23.710938 C 249.769531 23.761719 249.769531 23.8125 249.769531 23.867188 C 249.773438 23.894531 249.773438 23.925781 249.769531 23.957031 C 249.808594 24.292969 249.851562 24.628906 249.878906 24.96875 C 249.949219 25.714844 249.988281 26.472656 250.019531 27.222656 C 250.082031 28.898438 250.082031 30.574219 250.019531 32.246094 C 249.886719 35.527344 249.492188 38.777344 248.828125 41.992188 C 248.15625 45.285156 247.25 48.511719 246.109375 51.671875 C 245.003906 54.75 243.679688 57.734375 242.144531 60.621094 C 240.648438 63.453125 239.136719 66.285156 237.648438 69.121094 C 234.464844 75.203125 231.222656 81.261719 227.519531 87.039062 C 226.988281 87.871094 226.441406 88.703125 225.886719 89.523438 C 222.027344 83.167969 217.96875 76.941406 214.011719 70.648438 C 212.222656 67.792969 210.46875 64.914062 208.816406 61.976562 C 208.050781 60.589844 207.304688 59.179688 206.601562 57.753906 C 206.261719 57.066406 205.933594 56.375 205.613281 55.671875 L 205.199219 54.734375 L 204.972656 54.214844 L 204.925781 54.113281 C 204.925781 54.078125 204.816406 53.847656 204.804688 53.816406 C 203.660156 51.035156 202.742188 48.179688 202.050781 45.25 C 201.695312 43.75 201.398438 42.222656 201.175781 40.691406 L 201.105469 40.207031 C 201.105469 40.207031 201.066406 39.894531 201.054688 39.824219 C 201 39.402344 200.953125 38.980469 200.910156 38.558594 C 200.828125 37.742188 200.757812 36.921875 200.710938 36.097656 C 200.59375 34.417969 200.59375 32.738281 200.710938 31.0625 C 200.710938 30.667969 200.78125 30.28125 200.828125 29.90625 C 200.828125 29.832031 200.878906 29.554688 200.828125 29.847656 L 200.863281 29.597656 C 200.898438 29.355469 200.9375 29.113281 200.984375 28.863281 C 201.128906 28.050781 201.308594 27.246094 201.527344 26.449219 C 201.746094 25.652344 201.992188 24.859375 202.277344 24.085938 C 202.414062 23.691406 202.570312 23.3125 202.726562 22.929688 C 202.742188 22.898438 202.757812 22.867188 202.765625 22.835938 C 202.796875 22.777344 202.820312 22.714844 202.847656 22.65625 C 202.941406 22.445312 203.03125 22.242188 203.132812 22.035156 C 203.835938 20.527344 204.660156 19.085938 205.597656 17.710938 C 205.832031 17.367188 206.070312 17.027344 206.316406 16.691406 L 206.46875 16.496094 L 206.59375 16.328125 C 206.640625 16.269531 206.710938 16.179688 206.710938 16.183594 L 206.941406 15.894531 C 207.46875 15.246094 208.015625 14.625 208.585938 14.023438 C 209.164062 13.445312 209.742188 12.867188 210.375 12.289062 C 210.683594 12.011719 211 11.746094 211.316406 11.480469 L 211.753906 11.125 L 211.921875 10.992188 L 212.109375 10.847656 C 213.433594 9.851562 214.835938 8.972656 216.308594 8.214844 C 216.675781 8.027344 217.050781 7.84375 217.425781 7.671875 L 218 7.421875 L 218.070312 7.421875 L 218.355469 7.304688 C 219.121094 6.992188 219.90625 6.726562 220.699219 6.484375 C 221.488281 6.242188 222.300781 6.050781 223.117188 5.90625 C 223.296875 5.855469 223.457031 5.773438 223.605469 5.660156 C 223.75 5.542969 223.871094 5.40625 223.960938 5.242188 C 224.054688 5.078125 224.109375 4.90625 224.132812 4.71875 C 224.15625 4.535156 224.140625 4.351562 224.09375 4.171875 C 224.039062 3.996094 223.953125 3.835938 223.839844 3.6875 C 223.722656 3.542969 223.585938 3.425781 223.421875 3.335938 C 223.261719 3.242188 223.089844 3.1875 222.90625 3.164062 C 222.722656 3.136719 222.539062 3.148438 222.359375 3.195312 C 218.949219 3.925781 215.757812 5.207031 212.785156 7.035156 C 209.8125 8.863281 207.234375 11.136719 205.042969 13.855469 C 200.609375 19.269531 197.84375 26.074219 197.8125 33.125 C 197.816406 39.699219 198.949219 46.070312 201.21875 52.238281 C 203.472656 58.273438 206.675781 63.996094 210.082031 69.527344 Z M 235.09375 29.265625 Z M 235.09375 29.265625 " fill-opacity="1" fill-rule="nonzero"/><g fill="rgb(19.999695%, 41.958618%, 52.938843%)" fill-opacity="1"><g transform="translate(23.909239, 325.595673)"><g><path d="M 34.234375 0 L 34.234375 -10.878906 L 16.964844 -10.878906 L 16.964844 -21.757812 L 31.269531 -21.757812 L 31.269531 -32.636719 L 16.964844 -32.636719 L 16.964844 -43.515625 L 33.320312 -43.515625 L 33.320312 -54.394531 L 6.085938 -54.394531 L 6.085938 0 Z M 34.234375 0 "/></g></g></g><g fill="rgb(19.999695%, 41.958618%, 52.938843%)" fill-opacity="1"><g transform="translate(62.24621, 325.595673)"><g><path d="M 0.457031 0 L 13.695312 0 L 24.191406 -18.640625 L 34.617188 0 L 47.472656 0 L 30.355469 -28.984375 L 45.191406 -54.472656 L 32.332031 -54.472656 L 24.191406 -39.332031 L 15.976562 -54.472656 L 2.816406 -54.472656 L 17.574219 -28.984375 Z M 0.457031 0 "/></g></g></g><g fill="rgb(19.999695%, 41.958618%, 52.938843%)" fill-opacity="1"><g transform="translate(110.243491, 325.595673)"><g><path d="M 16.964844 0 L 16.964844 -20.769531 L 27.464844 -20.769531 C 48.539062 -20.769531 48.613281 -54.320312 27.464844 -54.320312 L 6.085938 -54.320312 L 6.085938 0 Z M 16.964844 -31.34375 L 16.964844 -43.515625 L 26.550781 -43.515625 C 33.855469 -43.515625 33.855469 -31.34375 26.550781 -31.34375 Z M 16.964844 -31.34375 "/></g></g></g><g fill="rgb(19.999695%, 41.958618%, 52.938843%)" fill-opacity="1"><g transform="translate(156.110952, 325.595673)"><g><path d="M 34.234375 0 L 34.234375 -10.878906 L 16.964844 -10.878906 L 16.964844 -21.757812 L 31.269531 -21.757812 L 31.269531 -32.636719 L 16.964844 -32.636719 L 16.964844 -43.515625 L 33.320312 -43.515625 L 33.320312 -54.394531 L 6.085938 -54.394531 L 6.085938 0 Z M 34.234375 0 "/></g></g></g><g fill="rgb(19.999695%, 41.958618%, 52.938843%)" fill-opacity="1"><g transform="translate(194.447924, 325.595673)"><g><path d="M 22.289062 -54.394531 L 6.085938 -54.394531 L 6.085938 0 L 22.289062 0 C 58.503906 0 58.503906 -54.394531 22.289062 -54.394531 Z M 22.289062 -43.515625 C 43.441406 -43.515625 43.441406 -10.878906 22.289062 -10.878906 L 16.964844 -10.878906 L 16.964844 -43.515625 Z M 22.289062 -43.515625 "/></g></g></g><g fill="rgb(19.999695%, 41.958618%, 52.938843%)" fill-opacity="1"><g transform="translate(247.997983, 325.595673)"><g><path d="M 16.964844 0 L 16.964844 -54.394531 L 6.085938 -54.394531 L 6.085938 0 Z M 16.964844 0 "/></g></g></g><g fill="rgb(19.999695%, 41.958618%, 52.938843%)" fill-opacity="1"><g transform="translate(271.121866, 325.595673)"><g><path d="M 25.941406 0 L 25.941406 -43.515625 L 39.484375 -43.515625 L 39.484375 -54.320312 L 1.523438 -54.320312 L 1.523438 -43.515625 L 15.0625 -43.515625 L 15.0625 0 Z M 25.941406 0 "/></g></g></g><g fill="rgb(19.999695%, 41.958618%, 52.938843%)" fill-opacity="1"><g transform="translate(312.729644, 325.595673)"><g><path d="M 34.234375 0 L 34.234375 -10.878906 L 16.964844 -10.878906 L 16.964844 -21.757812 L 31.269531 -21.757812 L 31.269531 -32.636719 L 16.964844 -32.636719 L 16.964844 -43.515625 L 33.320312 -43.515625 L 33.320312 -54.394531 L 6.085938 -54.394531 L 6.085938 0 Z M 34.234375 0 "/></g></g></g><g fill="rgb(19.999695%, 41.958618%, 52.938843%)" fill-opacity="1"><g transform="translate(112.241909, 364.582609)"><g><path d="M 8.21875 0.296875 C 7.84375 0.296875 7.550781 0.175781 7.34375 -0.0625 C 7.144531 -0.3125 7.046875 -0.582031 7.046875 -0.875 L 7.046875 -18.5 L 1.46875 -18.5 C 1.09375 -18.5 0.800781 -18.59375 0.59375 -18.78125 C 0.394531 -18.976562 0.296875 -19.226562 0.296875 -19.53125 C 0.296875 -19.820312 0.394531 -20.0625 0.59375 -20.25 C 0.800781 -20.445312 1.09375 -20.546875 1.46875 -20.546875 L 14.96875 -20.546875 C 15.34375 -20.546875 15.628906 -20.445312 15.828125 -20.25 C 16.035156 -20.0625 16.140625 -19.820312 16.140625 -19.53125 C 16.140625 -19.226562 16.035156 -18.976562 15.828125 -18.78125 C 15.628906 -18.59375 15.34375 -18.5 14.96875 -18.5 L 9.390625 -18.5 L 9.390625 -0.875 C 9.390625 -0.582031 9.285156 -0.3125 9.078125 -0.0625 C 8.878906 0.175781 8.59375 0.296875 8.21875 0.296875 Z M 8.21875 0.296875 "/></g></g></g><g fill="rgb(19.999695%, 41.958618%, 52.938843%)" fill-opacity="1"><g transform="translate(131.264853, 364.582609)"><g><path d="M 3.515625 0.140625 C 3.148438 0.140625 2.863281 0.0195312 2.65625 -0.21875 C 2.445312 -0.46875 2.34375 -0.738281 2.34375 -1.03125 L 2.34375 -13.21875 C 2.34375 -13.507812 2.445312 -13.773438 2.65625 -14.015625 C 2.863281 -14.265625 3.148438 -14.390625 3.515625 -14.390625 C 3.890625 -14.390625 4.179688 -14.265625 4.390625 -14.015625 C 4.597656 -13.773438 4.703125 -13.507812 4.703125 -13.21875 L 4.703125 -12.921875 L 4.84375 -12.921875 C 5.039062 -13.253906 5.304688 -13.546875 5.640625 -13.796875 C 5.910156 -14.015625 6.257812 -14.210938 6.6875 -14.390625 C 7.125 -14.578125 7.632812 -14.671875 8.21875 -14.671875 L 9.546875 -14.671875 C 9.835938 -14.671875 10.078125 -14.570312 10.265625 -14.375 C 10.460938 -14.1875 10.5625 -13.945312 10.5625 -13.65625 C 10.5625 -13.363281 10.460938 -13.117188 10.265625 -12.921875 C 10.078125 -12.722656 9.835938 -12.625 9.546875 -12.625 L 7.921875 -12.625 C 7.472656 -12.625 7.050781 -12.535156 6.65625 -12.359375 C 6.269531 -12.179688 5.929688 -11.9375 5.640625 -11.625 C 5.347656 -11.3125 5.117188 -10.9375 4.953125 -10.5 C 4.785156 -10.070312 4.703125 -9.601562 4.703125 -9.09375 L 4.703125 -1.03125 C 4.703125 -0.738281 4.597656 -0.46875 4.390625 -0.21875 C 4.179688 0.0195312 3.890625 0.140625 3.515625 0.140625 Z M 3.515625 0.140625 "/></g></g></g><g fill="rgb(19.999695%, 41.958618%, 52.938843%)" fill-opacity="1"><g transform="translate(144.417031, 364.582609)"><g><path d="M 6.171875 0.4375 C 5.421875 0.4375 4.75 0.320312 4.15625 0.09375 C 3.570312 -0.125 3.066406 -0.425781 2.640625 -0.8125 C 2.210938 -1.207031 1.882812 -1.675781 1.65625 -2.21875 C 1.4375 -2.757812 1.328125 -3.34375 1.328125 -3.96875 C 1.328125 -4.550781 1.445312 -5.109375 1.6875 -5.640625 C 1.9375 -6.171875 2.296875 -6.640625 2.765625 -7.046875 C 3.234375 -7.453125 3.800781 -7.773438 4.46875 -8.015625 C 5.144531 -8.253906 5.90625 -8.375 6.75 -8.375 L 11.015625 -8.375 L 11.015625 -9.25 C 11.015625 -10.207031 10.679688 -11.007812 10.015625 -11.65625 C 9.347656 -12.300781 8.457031 -12.625 7.34375 -12.625 C 6.457031 -12.625 5.773438 -12.453125 5.296875 -12.109375 C 4.816406 -11.765625 4.46875 -11.445312 4.25 -11.15625 C 4.039062 -10.863281 3.84375 -10.644531 3.65625 -10.5 C 3.46875 -10.351562 3.226562 -10.28125 2.9375 -10.28125 C 2.644531 -10.28125 2.398438 -10.375 2.203125 -10.5625 C 2.003906 -10.757812 1.90625 -11.003906 1.90625 -11.296875 C 1.90625 -11.515625 1.957031 -11.722656 2.0625 -11.921875 C 2.09375 -12.015625 2.140625 -12.101562 2.203125 -12.1875 C 2.316406 -12.363281 2.507812 -12.59375 2.78125 -12.875 C 3.0625 -13.15625 3.414062 -13.425781 3.84375 -13.6875 C 4.269531 -13.957031 4.769531 -14.1875 5.34375 -14.375 C 5.925781 -14.570312 6.59375 -14.671875 7.34375 -14.671875 C 8.21875 -14.671875 9.019531 -14.523438 9.75 -14.234375 C 10.488281 -13.941406 11.128906 -13.550781 11.671875 -13.0625 C 12.210938 -12.570312 12.628906 -11.992188 12.921875 -11.328125 C 13.210938 -10.660156 13.359375 -9.96875 13.359375 -9.25 L 13.359375 -1.03125 C 13.359375 -0.738281 13.253906 -0.46875 13.046875 -0.21875 C 12.835938 0.0195312 12.550781 0.140625 12.1875 0.140625 C 11.8125 0.140625 11.519531 0.0195312 11.3125 -0.21875 C 11.113281 -0.46875 11.015625 -0.738281 11.015625 -1.03125 L 11.015625 -1.171875 L 10.859375 -1.171875 C 10.492188 -0.859375 10.070312 -0.585938 9.59375 -0.359375 C 9.1875 -0.140625 8.695312 0.046875 8.125 0.203125 C 7.5625 0.359375 6.910156 0.4375 6.171875 0.4375 Z M 6.453125 -1.609375 C 7.273438 -1.609375 7.96875 -1.707031 8.53125 -1.90625 C 9.101562 -2.101562 9.578125 -2.316406 9.953125 -2.546875 C 10.378906 -2.828125 10.734375 -3.148438 11.015625 -3.515625 L 11.015625 -6.3125 L 6.75 -6.3125 C 5.71875 -6.3125 4.945312 -6.085938 4.4375 -5.640625 C 3.925781 -5.191406 3.671875 -4.632812 3.671875 -3.96875 C 3.671875 -3.300781 3.914062 -2.738281 4.40625 -2.28125 C 4.894531 -1.832031 5.578125 -1.609375 6.453125 -1.609375 Z M 6.453125 -1.609375 "/></g></g></g><g fill="rgb(19.999695%, 41.958618%, 52.938843%)" fill-opacity="1"><g transform="translate(162.412588, 364.582609)"><g><path d="M 7.046875 0.4375 C 6.597656 0.4375 6.226562 0.304688 5.9375 0.046875 C 5.65625 -0.203125 5.4375 -0.507812 5.28125 -0.875 L 0.734375 -12.1875 C 0.671875 -12.34375 0.601562 -12.515625 0.53125 -12.703125 C 0.46875 -12.890625 0.4375 -13.0625 0.4375 -13.21875 C 0.4375 -13.507812 0.539062 -13.773438 0.75 -14.015625 C 0.957031 -14.265625 1.242188 -14.390625 1.609375 -14.390625 C 1.910156 -14.390625 2.15625 -14.296875 2.34375 -14.109375 C 2.539062 -13.921875 2.691406 -13.71875 2.796875 -13.5 L 6.984375 -2.9375 L 7.109375 -2.9375 L 11.296875 -13.5 C 11.398438 -13.71875 11.546875 -13.921875 11.734375 -14.109375 C 11.929688 -14.296875 12.179688 -14.390625 12.484375 -14.390625 C 12.847656 -14.390625 13.132812 -14.265625 13.34375 -14.015625 C 13.550781 -13.773438 13.65625 -13.507812 13.65625 -13.21875 C 13.65625 -13.0625 13.617188 -12.890625 13.546875 -12.703125 C 13.484375 -12.515625 13.421875 -12.34375 13.359375 -12.1875 L 8.8125 -0.875 C 8.65625 -0.507812 8.429688 -0.203125 8.140625 0.046875 C 7.859375 0.304688 7.492188 0.4375 7.046875 0.4375 Z M 7.046875 0.4375 "/></g></g></g><g fill="rgb(19.999695%, 41.958618%, 52.938843%)" fill-opacity="1"><g transform="translate(179.087245, 364.582609)"><g><path d="M 8.078125 0.4375 C 7.148438 0.4375 6.300781 0.285156 5.53125 -0.015625 C 4.757812 -0.316406 4.09375 -0.734375 3.53125 -1.265625 C 2.976562 -1.796875 2.546875 -2.40625 2.234375 -3.09375 C 1.921875 -3.789062 1.765625 -4.519531 1.765625 -5.28125 L 1.765625 -8.953125 C 1.765625 -9.710938 1.921875 -10.441406 2.234375 -11.140625 C 2.546875 -11.835938 2.976562 -12.445312 3.53125 -12.96875 C 4.09375 -13.5 4.757812 -13.914062 5.53125 -14.21875 C 6.300781 -14.519531 7.148438 -14.671875 8.078125 -14.671875 C 8.992188 -14.671875 9.835938 -14.519531 10.609375 -14.21875 C 11.378906 -13.914062 12.046875 -13.5 12.609375 -12.96875 C 13.171875 -12.445312 13.609375 -11.835938 13.921875 -11.140625 C 14.234375 -10.441406 14.390625 -9.710938 14.390625 -8.953125 L 14.390625 -7.34375 C 14.390625 -7.050781 14.285156 -6.78125 14.078125 -6.53125 C 13.867188 -6.289062 13.582031 -6.171875 13.21875 -6.171875 L 4.109375 -6.171875 L 4.109375 -5.28125 C 4.109375 -4.769531 4.207031 -4.289062 4.40625 -3.84375 C 4.601562 -3.394531 4.867188 -3.003906 5.203125 -2.671875 C 5.546875 -2.335938 5.960938 -2.078125 6.453125 -1.890625 C 6.941406 -1.703125 7.484375 -1.609375 8.078125 -1.609375 C 8.953125 -1.609375 9.644531 -1.722656 10.15625 -1.953125 C 10.664062 -2.179688 11.082031 -2.4375 11.40625 -2.71875 C 11.726562 -3 12 -3.25 12.21875 -3.46875 C 12.445312 -3.695312 12.726562 -3.8125 13.0625 -3.8125 C 13.351562 -3.8125 13.597656 -3.710938 13.796875 -3.515625 C 13.992188 -3.328125 14.09375 -3.085938 14.09375 -2.796875 C 14.09375 -2.535156 13.953125 -2.21875 13.671875 -1.84375 C 13.398438 -1.476562 13.007812 -1.128906 12.5 -0.796875 C 12 -0.460938 11.375 -0.175781 10.625 0.0625 C 9.882812 0.3125 9.035156 0.4375 8.078125 0.4375 Z M 12.03125 -8.21875 L 12.03125 -8.953125 C 12.03125 -9.460938 11.929688 -9.941406 11.734375 -10.390625 C 11.546875 -10.835938 11.28125 -11.226562 10.9375 -11.5625 C 10.59375 -11.894531 10.175781 -12.15625 9.6875 -12.34375 C 9.195312 -12.53125 8.660156 -12.625 8.078125 -12.625 C 7.484375 -12.625 6.941406 -12.53125 6.453125 -12.34375 C 5.960938 -12.15625 5.546875 -11.894531 5.203125 -11.5625 C 4.867188 -11.226562 4.601562 -10.835938 4.40625 -10.390625 C 4.207031 -9.941406 4.109375 -9.460938 4.109375 -8.953125 L 4.109375 -8.21875 Z M 12.03125 -8.21875 "/></g></g></g><g fill="rgb(19.999695%, 41.958618%, 52.938843%)" fill-opacity="1"><g transform="translate(197.523129, 364.582609)"><g><path d="M 3.515625 0.140625 C 3.148438 0.140625 2.863281 0.0195312 2.65625 -0.21875 C 2.445312 -0.46875 2.34375 -0.738281 2.34375 -1.03125 L 2.34375 -19.234375 C 2.34375 -19.523438 2.445312 -19.789062 2.65625 -20.03125 C 2.863281 -20.28125 3.148438 -20.40625 3.515625 -20.40625 C 3.890625 -20.40625 4.179688 -20.28125 4.390625 -20.03125 C 4.597656 -19.789062 4.703125 -19.523438 4.703125 -19.234375 L 4.703125 -1.03125 C 4.703125 -0.738281 4.597656 -0.46875 4.390625 -0.21875 C 4.179688 0.0195312 3.890625 0.140625 3.515625 0.140625 Z M 3.515625 0.140625 "/></g></g></g><g fill="rgb(19.999695%, 41.958618%, 52.938843%)" fill-opacity="1"><g transform="translate(207.152848, 364.582609)"><g/></g></g><g fill="rgb(19.999695%, 41.958618%, 52.938843%)" fill-opacity="1"><g transform="translate(216.782572, 364.582609)"><g><path d="M 10.125 0.59375 C 8.957031 0.59375 7.878906 0.394531 6.890625 0 C 5.898438 -0.40625 5.046875 -0.957031 4.328125 -1.65625 C 3.617188 -2.351562 3.0625 -3.175781 2.65625 -4.125 C 2.257812 -5.070312 2.0625 -6.09375 2.0625 -7.1875 L 2.0625 -13.359375 C 2.0625 -14.453125 2.257812 -15.472656 2.65625 -16.421875 C 3.0625 -17.367188 3.617188 -18.191406 4.328125 -18.890625 C 5.046875 -19.585938 5.898438 -20.132812 6.890625 -20.53125 C 7.878906 -20.9375 8.957031 -21.140625 10.125 -21.140625 C 11.082031 -21.140625 11.925781 -21.023438 12.65625 -20.796875 C 13.394531 -20.578125 14.039062 -20.289062 14.59375 -19.9375 C 15.15625 -19.582031 15.625 -19.195312 16 -18.78125 C 16.375 -18.375 16.664062 -17.984375 16.875 -17.609375 L 17.09375 -17.203125 C 17.144531 -17.085938 17.195312 -16.957031 17.25 -16.8125 C 17.300781 -16.664062 17.328125 -16.539062 17.328125 -16.4375 C 17.328125 -15.65625 16.929688 -15.265625 16.140625 -15.265625 C 15.847656 -15.265625 15.625 -15.363281 15.46875 -15.5625 C 15.3125 -15.757812 15.144531 -16.003906 14.96875 -16.296875 C 14.757812 -16.671875 14.507812 -17.019531 14.21875 -17.34375 C 13.9375 -17.675781 13.597656 -17.96875 13.203125 -18.21875 C 12.816406 -18.476562 12.375 -18.6875 11.875 -18.84375 C 11.375 -19 10.789062 -19.078125 10.125 -19.078125 C 9.320312 -19.078125 8.566406 -18.929688 7.859375 -18.640625 C 7.160156 -18.347656 6.554688 -17.941406 6.046875 -17.421875 C 5.535156 -16.898438 5.132812 -16.289062 4.84375 -15.59375 C 4.550781 -14.90625 4.40625 -14.160156 4.40625 -13.359375 L 4.40625 -7.1875 C 4.40625 -6.382812 4.550781 -5.628906 4.84375 -4.921875 C 5.132812 -4.222656 5.535156 -3.617188 6.046875 -3.109375 C 6.554688 -2.597656 7.160156 -2.195312 7.859375 -1.90625 C 8.566406 -1.613281 9.320312 -1.46875 10.125 -1.46875 C 10.832031 -1.46875 11.457031 -1.5625 12 -1.75 C 12.550781 -1.9375 13.035156 -2.175781 13.453125 -2.46875 C 13.878906 -2.757812 14.242188 -3.085938 14.546875 -3.453125 C 14.847656 -3.816406 15.085938 -4.179688 15.265625 -4.546875 C 15.421875 -4.835938 15.585938 -5.082031 15.765625 -5.28125 C 15.941406 -5.476562 16.21875 -5.578125 16.59375 -5.578125 C 16.882812 -5.578125 17.125 -5.472656 17.3125 -5.265625 C 17.507812 -5.066406 17.609375 -4.78125 17.609375 -4.40625 C 17.609375 -4.289062 17.582031 -4.160156 17.53125 -4.015625 C 17.488281 -3.878906 17.4375 -3.753906 17.375 -3.640625 L 17.171875 -3.234375 C 16.960938 -2.816406 16.660156 -2.390625 16.265625 -1.953125 C 15.867188 -1.515625 15.382812 -1.101562 14.8125 -0.71875 C 14.238281 -0.332031 13.5625 -0.0195312 12.78125 0.21875 C 12.007812 0.46875 11.125 0.59375 10.125 0.59375 Z M 10.125 0.59375 "/></g></g></g><g fill="rgb(19.999695%, 41.958618%, 52.938843%)" fill-opacity="1"><g transform="translate(238.153828, 364.582609)"><g><path d="M 8.078125 0.4375 C 7.148438 0.4375 6.300781 0.285156 5.53125 -0.015625 C 4.757812 -0.316406 4.09375 -0.734375 3.53125 -1.265625 C 2.976562 -1.796875 2.546875 -2.40625 2.234375 -3.09375 C 1.921875 -3.789062 1.765625 -4.519531 1.765625 -5.28125 L 1.765625 -8.953125 C 1.765625 -9.710938 1.921875 -10.441406 2.234375 -11.140625 C 2.546875 -11.835938 2.976562 -12.445312 3.53125 -12.96875 C 4.09375 -13.5 4.757812 -13.914062 5.53125 -14.21875 C 6.300781 -14.519531 7.148438 -14.671875 8.078125 -14.671875 C 8.992188 -14.671875 9.835938 -14.519531 10.609375 -14.21875 C 11.378906 -13.914062 12.046875 -13.5 12.609375 -12.96875 C 13.171875 -12.445312 13.609375 -11.835938 13.921875 -11.140625 C 14.234375 -10.441406 14.390625 -9.710938 14.390625 -8.953125 L 14.390625 -5.28125 C 14.390625 -4.519531 14.234375 -3.789062 13.921875 -3.09375 C 13.609375 -2.40625 13.171875 -1.796875 12.609375 -1.265625 C 12.046875 -0.734375 11.378906 -0.316406 10.609375 -0.015625 C 9.835938 0.285156 8.992188 0.4375 8.078125 0.4375 Z M 8.078125 -1.609375 C 8.660156 -1.609375 9.195312 -1.703125 9.6875 -1.890625 C 10.175781 -2.078125 10.59375 -2.335938 10.9375 -2.671875 C 11.28125 -3.003906 11.546875 -3.394531 11.734375 -3.84375 C 11.929688 -4.289062 12.03125 -4.769531 12.03125 -5.28125 L 12.03125 -8.953125 C 12.03125 -9.460938 11.929688 -9.941406 11.734375 -10.390625 C 11.546875 -10.835938 11.28125 -11.226562 10.9375 -11.5625 C 10.59375 -11.894531 10.175781 -12.15625 9.6875 -12.34375 C 9.195312 -12.53125 8.660156 -12.625 8.078125 -12.625 C 7.484375 -12.625 6.941406 -12.53125 6.453125 -12.34375 C 5.960938 -12.15625 5.546875 -11.894531 5.203125 -11.5625 C 4.867188 -11.226562 4.601562 -10.835938 4.40625 -10.390625 C 4.207031 -9.941406 4.109375 -9.460938 4.109375 -8.953125 L 4.109375 -5.28125 C 4.109375 -4.769531 4.207031 -4.289062 4.40625 -3.84375 C 4.601562 -3.394531 4.867188 -3.003906 5.203125 -2.671875 C 5.546875 -2.335938 5.960938 -2.078125 6.453125 -1.890625 C 6.941406 -1.703125 7.484375 -1.609375 8.078125 -1.609375 Z M 8.078125 -1.609375 "/></g></g></g><g fill="rgb(19.999695%, 41.958618%, 52.938843%)" fill-opacity="1"><g transform="translate(256.883232, 364.582609)"><g><path d="M 2.9375 0.296875 C 2.488281 0.296875 2.128906 0.144531 1.859375 -0.15625 C 1.597656 -0.457031 1.46875 -0.796875 1.46875 -1.171875 C 1.46875 -1.546875 1.597656 -1.882812 1.859375 -2.1875 C 2.128906 -2.488281 2.488281 -2.640625 2.9375 -2.640625 C 3.382812 -2.640625 3.738281 -2.488281 4 -2.1875 C 4.269531 -1.882812 4.40625 -1.546875 4.40625 -1.171875 C 4.40625 -0.796875 4.269531 -0.457031 4 -0.15625 C 3.738281 0.144531 3.382812 0.296875 2.9375 0.296875 Z M 2.9375 0.296875 "/></g></g></g></svg>