<svg xmlns="http://www.w3.org/2000/svg" xmlns:xlink="http://www.w3.org/1999/xlink" width="576" zoomAndPan="magnify" viewBox="0 0 432 143.999998" height="192" preserveAspectRatio="xMidYMid meet" version="1.0"><defs><filter x="0%" y="0%" width="100%" xlink:type="simple" xlink:actuate="onLoad" height="100%" id="id1" xlink:show="other"><feColorMatrix values="0 0 0 0 1 0 0 0 0 1 0 0 0 0 1 0 0 0 1 0" color-interpolation-filters="sRGB"/></filter><g><g id="id2"/></g><mask id="id3"><g filter="url(#id1)"><rect x="-43.2" width="518.4" fill="rgb(0%, 0%, 0%)" y="-14.4" height="172.799997" fill-opacity="0.2471"/></g></mask><clipPath id="id4"><path d="M 7 27 L 97 27 L 97 96 L 7 96 Z M 7 27 " clip-rule="nonzero"/></clipPath><clipPath id="id5"><path d="M 113.394531 80.246094 L 21.535156 117.863281 L -11.25 37.816406 L 80.613281 0.195312 Z M 113.394531 80.246094 " clip-rule="nonzero"/></clipPath><clipPath id="id6"><path d="M 113.394531 80.246094 L 21.535156 117.863281 L -11.25 37.816406 L 80.613281 0.195312 Z M 113.394531 80.246094 " clip-rule="nonzero"/></clipPath><clipPath id="id7"><path d="M 113.394531 80.246094 L 21.535156 117.863281 L -11.25 37.816406 L 80.613281 0.195312 Z M 113.394531 80.246094 " clip-rule="nonzero"/></clipPath><clipPath id="id8"><rect x="0" width="114" y="0" height="118"/></clipPath><clipPath id="id9"><path d="M 16 18 L 125.917969 18 L 125.917969 127.589844 L 16 127.589844 Z M 16 18 " clip-rule="nonzero"/></clipPath><clipPath id="id10"><path d="M 74 9.179688 L 102 9.179688 L 102 53 L 74 53 Z M 74 9.179688 " clip-rule="nonzero"/></clipPath></defs><g fill="rgb(19.999695%, 41.958618%, 52.938843%)" fill-opacity="1"><g transform="translate(136.05911, 80.29571)"><g><path d="M 30.292969 0 L 30.292969 -9.625 L 15.011719 -9.625 L 15.011719 -19.253906 L 27.667969 -19.253906 L 27.667969 -28.878906 L 15.011719 -28.878906 L 15.011719 -38.503906 L 29.484375 -38.503906 L 29.484375 -48.132812 L 5.386719 -48.132812 L 5.386719 0 Z M 30.292969 0 "/></g></g></g><g fill="rgb(19.999695%, 41.958618%, 52.938843%)" fill-opacity="1"><g transform="translate(169.981748, 80.29571)"><g><path d="M 0.402344 0 L 12.117188 0 L 21.40625 -16.492188 L 30.628906 0 L 42.007812 0 L 26.859375 -25.648438 L 39.988281 -48.199219 L 28.609375 -48.199219 L 21.40625 -34.804688 L 14.136719 -48.199219 L 2.492188 -48.199219 L 15.550781 -25.648438 Z M 0.402344 0 "/></g></g></g><g fill="rgb(19.999695%, 41.958618%, 52.938843%)" fill-opacity="1"><g transform="translate(212.452354, 80.29571)"><g><path d="M 15.011719 0 L 15.011719 -18.378906 L 24.300781 -18.378906 C 42.949219 -18.378906 43.015625 -48.066406 24.300781 -48.066406 L 5.386719 -48.066406 L 5.386719 0 Z M 15.011719 -27.734375 L 15.011719 -38.503906 L 23.492188 -38.503906 C 29.957031 -38.503906 29.957031 -27.734375 23.492188 -27.734375 Z M 15.011719 -27.734375 "/></g></g></g><g fill="rgb(19.999695%, 41.958618%, 52.938843%)" fill-opacity="1"><g transform="translate(253.03838, 80.29571)"><g><path d="M 30.292969 0 L 30.292969 -9.625 L 15.011719 -9.625 L 15.011719 -19.253906 L 27.667969 -19.253906 L 27.667969 -28.878906 L 15.011719 -28.878906 L 15.011719 -38.503906 L 29.484375 -38.503906 L 29.484375 -48.132812 L 5.386719 -48.132812 L 5.386719 0 Z M 30.292969 0 "/></g></g></g><g fill="rgb(19.999695%, 41.958618%, 52.938843%)" fill-opacity="1"><g transform="translate(286.961019, 80.29571)"><g><path d="M 19.722656 -48.132812 L 5.386719 -48.132812 L 5.386719 0 L 19.722656 0 C 51.765625 0 51.765625 -48.132812 19.722656 -48.132812 Z M 19.722656 -38.503906 C 38.4375 -38.503906 38.4375 -9.625 19.722656 -9.625 L 15.011719 -9.625 L 15.011719 -38.503906 Z M 19.722656 -38.503906 "/></g></g></g><g fill="rgb(19.999695%, 41.958618%, 52.938843%)" fill-opacity="1"><g transform="translate(334.345026, 80.29571)"><g><path d="M 15.011719 0 L 15.011719 -48.132812 L 5.386719 -48.132812 L 5.386719 0 Z M 15.011719 0 "/></g></g></g><g fill="rgb(19.999695%, 41.958618%, 52.938843%)" fill-opacity="1"><g transform="translate(354.806296, 80.29571)"><g><path d="M 22.957031 0 L 22.957031 -38.503906 L 34.9375 -38.503906 L 34.9375 -48.066406 L 1.347656 -48.066406 L 1.347656 -38.503906 L 13.328125 -38.503906 L 13.328125 0 Z M 22.957031 0 "/></g></g></g><g fill="rgb(19.999695%, 41.958618%, 52.938843%)" fill-opacity="1"><g transform="translate(391.623122, 80.29571)"><g><path d="M 30.292969 0 L 30.292969 -9.625 L 15.011719 -9.625 L 15.011719 -19.253906 L 27.667969 -19.253906 L 27.667969 -28.878906 L 15.011719 -28.878906 L 15.011719 -38.503906 L 29.484375 -38.503906 L 29.484375 -48.132812 L 5.386719 -48.132812 L 5.386719 0 Z M 30.292969 0 "/></g></g></g><g fill="rgb(19.999695%, 41.958618%, 52.938843%)" fill-opacity="1"><g transform="translate(142.521667, 112.175646)"><g><path d="M 7.28125 0.265625 C 6.945312 0.265625 6.6875 0.15625 6.5 -0.0625 C 6.320312 -0.28125 6.234375 -0.519531 6.234375 -0.78125 L 6.234375 -16.375 L 1.296875 -16.375 C 0.972656 -16.375 0.71875 -16.457031 0.53125 -16.625 C 0.351562 -16.800781 0.265625 -17.019531 0.265625 -17.28125 C 0.265625 -17.539062 0.351562 -17.753906 0.53125 -17.921875 C 0.71875 -18.097656 0.972656 -18.1875 1.296875 -18.1875 L 13.25 -18.1875 C 13.582031 -18.1875 13.835938 -18.097656 14.015625 -17.921875 C 14.203125 -17.753906 14.296875 -17.539062 14.296875 -17.28125 C 14.296875 -17.019531 14.203125 -16.800781 14.015625 -16.625 C 13.835938 -16.457031 13.582031 -16.375 13.25 -16.375 L 8.3125 -16.375 L 8.3125 -0.78125 C 8.3125 -0.519531 8.21875 -0.28125 8.03125 -0.0625 C 7.851562 0.15625 7.601562 0.265625 7.28125 0.265625 Z M 7.28125 0.265625 "/></g></g></g><g fill="rgb(19.999695%, 41.958618%, 52.938843%)" fill-opacity="1"><g transform="translate(159.354203, 112.175646)"><g><path d="M 3.125 0.125 C 2.789062 0.125 2.53125 0.0195312 2.34375 -0.1875 C 2.164062 -0.40625 2.078125 -0.644531 2.078125 -0.90625 L 2.078125 -11.6875 C 2.078125 -11.945312 2.164062 -12.1875 2.34375 -12.40625 C 2.53125 -12.625 2.789062 -12.734375 3.125 -12.734375 C 3.445312 -12.734375 3.695312 -12.625 3.875 -12.40625 C 4.0625 -12.1875 4.15625 -11.945312 4.15625 -11.6875 L 4.15625 -11.4375 L 4.28125 -11.4375 C 4.457031 -11.726562 4.691406 -11.988281 4.984375 -12.21875 C 5.234375 -12.40625 5.546875 -12.578125 5.921875 -12.734375 C 6.304688 -12.898438 6.757812 -12.984375 7.28125 -12.984375 L 8.4375 -12.984375 C 8.695312 -12.984375 8.914062 -12.894531 9.09375 -12.71875 C 9.269531 -12.550781 9.359375 -12.335938 9.359375 -12.078125 C 9.359375 -11.816406 9.269531 -11.597656 9.09375 -11.421875 C 8.914062 -11.253906 8.695312 -11.171875 8.4375 -11.171875 L 7.015625 -11.171875 C 6.617188 -11.171875 6.242188 -11.09375 5.890625 -10.9375 C 5.546875 -10.78125 5.242188 -10.5625 4.984375 -10.28125 C 4.722656 -10.007812 4.519531 -9.679688 4.375 -9.296875 C 4.226562 -8.921875 4.15625 -8.507812 4.15625 -8.0625 L 4.15625 -0.90625 C 4.15625 -0.644531 4.0625 -0.40625 3.875 -0.1875 C 3.695312 0.0195312 3.445312 0.125 3.125 0.125 Z M 3.125 0.125 "/></g></g></g><g fill="rgb(19.999695%, 41.958618%, 52.938843%)" fill-opacity="1"><g transform="translate(170.991966, 112.175646)"><g><path d="M 5.453125 0.390625 C 4.796875 0.390625 4.207031 0.289062 3.6875 0.09375 C 3.164062 -0.101562 2.710938 -0.375 2.328125 -0.71875 C 1.953125 -1.070312 1.664062 -1.484375 1.46875 -1.953125 C 1.269531 -2.429688 1.171875 -2.953125 1.171875 -3.515625 C 1.171875 -4.023438 1.273438 -4.515625 1.484375 -4.984375 C 1.703125 -5.453125 2.019531 -5.867188 2.4375 -6.234375 C 2.851562 -6.597656 3.359375 -6.882812 3.953125 -7.09375 C 4.554688 -7.300781 5.226562 -7.40625 5.96875 -7.40625 L 9.75 -7.40625 L 9.75 -8.1875 C 9.75 -9.03125 9.453125 -9.738281 8.859375 -10.3125 C 8.273438 -10.882812 7.488281 -11.171875 6.5 -11.171875 C 5.71875 -11.171875 5.113281 -11.019531 4.6875 -10.71875 C 4.257812 -10.414062 3.953125 -10.132812 3.765625 -9.875 C 3.578125 -9.613281 3.398438 -9.414062 3.234375 -9.28125 C 3.066406 -9.15625 2.851562 -9.09375 2.59375 -9.09375 C 2.332031 -9.09375 2.113281 -9.175781 1.9375 -9.34375 C 1.769531 -9.519531 1.6875 -9.738281 1.6875 -10 C 1.6875 -10.195312 1.726562 -10.378906 1.8125 -10.546875 C 1.851562 -10.628906 1.898438 -10.707031 1.953125 -10.78125 C 2.054688 -10.9375 2.226562 -11.140625 2.46875 -11.390625 C 2.707031 -11.640625 3.015625 -11.878906 3.390625 -12.109375 C 3.773438 -12.347656 4.222656 -12.550781 4.734375 -12.71875 C 5.253906 -12.894531 5.84375 -12.984375 6.5 -12.984375 C 7.28125 -12.984375 7.992188 -12.851562 8.640625 -12.59375 C 9.285156 -12.34375 9.847656 -12 10.328125 -11.5625 C 10.804688 -11.125 11.175781 -10.609375 11.4375 -10.015625 C 11.695312 -9.429688 11.828125 -8.820312 11.828125 -8.1875 L 11.828125 -0.90625 C 11.828125 -0.644531 11.734375 -0.40625 11.546875 -0.1875 C 11.367188 0.0195312 11.113281 0.125 10.78125 0.125 C 10.457031 0.125 10.203125 0.0195312 10.015625 -0.1875 C 9.835938 -0.40625 9.75 -0.644531 9.75 -0.90625 L 9.75 -1.046875 L 9.609375 -1.046875 C 9.285156 -0.765625 8.914062 -0.519531 8.5 -0.3125 C 8.132812 -0.125 7.695312 0.0351562 7.1875 0.171875 C 6.6875 0.316406 6.109375 0.390625 5.453125 0.390625 Z M 5.71875 -1.421875 C 6.445312 -1.421875 7.0625 -1.507812 7.5625 -1.6875 C 8.0625 -1.863281 8.476562 -2.054688 8.8125 -2.265625 C 9.1875 -2.503906 9.5 -2.789062 9.75 -3.125 L 9.75 -5.59375 L 5.96875 -5.59375 C 5.050781 -5.59375 4.367188 -5.390625 3.921875 -4.984375 C 3.472656 -4.585938 3.25 -4.097656 3.25 -3.515625 C 3.25 -2.921875 3.460938 -2.421875 3.890625 -2.015625 C 4.328125 -1.617188 4.9375 -1.421875 5.71875 -1.421875 Z M 5.71875 -1.421875 "/></g></g></g><g fill="rgb(19.999695%, 41.958618%, 52.938843%)" fill-opacity="1"><g transform="translate(186.915414, 112.175646)"><g><path d="M 6.234375 0.390625 C 5.835938 0.390625 5.515625 0.273438 5.265625 0.046875 C 5.015625 -0.171875 4.816406 -0.445312 4.671875 -0.78125 L 0.65625 -10.78125 C 0.601562 -10.914062 0.546875 -11.066406 0.484375 -11.234375 C 0.421875 -11.398438 0.390625 -11.550781 0.390625 -11.6875 C 0.390625 -11.945312 0.476562 -12.1875 0.65625 -12.40625 C 0.84375 -12.625 1.097656 -12.734375 1.421875 -12.734375 C 1.679688 -12.734375 1.898438 -12.648438 2.078125 -12.484375 C 2.253906 -12.316406 2.382812 -12.140625 2.46875 -11.953125 L 6.1875 -2.59375 L 6.28125 -2.59375 L 10 -11.953125 C 10.09375 -12.140625 10.222656 -12.316406 10.390625 -12.484375 C 10.566406 -12.648438 10.785156 -12.734375 11.046875 -12.734375 C 11.367188 -12.734375 11.617188 -12.625 11.796875 -12.40625 C 11.984375 -12.1875 12.078125 -11.945312 12.078125 -11.6875 C 12.078125 -11.550781 12.046875 -11.398438 11.984375 -11.234375 C 11.929688 -11.066406 11.878906 -10.914062 11.828125 -10.78125 L 7.796875 -0.78125 C 7.660156 -0.445312 7.460938 -0.171875 7.203125 0.046875 C 6.953125 0.273438 6.628906 0.390625 6.234375 0.390625 Z M 6.234375 0.390625 "/></g></g></g><g fill="rgb(19.999695%, 41.958618%, 52.938843%)" fill-opacity="1"><g transform="translate(201.670058, 112.175646)"><g><path d="M 7.140625 0.390625 C 6.328125 0.390625 5.578125 0.253906 4.890625 -0.015625 C 4.210938 -0.285156 3.625 -0.648438 3.125 -1.109375 C 2.632812 -1.578125 2.25 -2.117188 1.96875 -2.734375 C 1.695312 -3.347656 1.5625 -3.992188 1.5625 -4.671875 L 1.5625 -7.921875 C 1.5625 -8.597656 1.695312 -9.242188 1.96875 -9.859375 C 2.25 -10.472656 2.632812 -11.015625 3.125 -11.484375 C 3.625 -11.953125 4.210938 -12.316406 4.890625 -12.578125 C 5.578125 -12.847656 6.328125 -12.984375 7.140625 -12.984375 C 7.953125 -12.984375 8.703125 -12.847656 9.390625 -12.578125 C 10.078125 -12.316406 10.664062 -11.953125 11.15625 -11.484375 C 11.65625 -11.015625 12.039062 -10.472656 12.3125 -9.859375 C 12.59375 -9.242188 12.734375 -8.597656 12.734375 -7.921875 L 12.734375 -6.5 C 12.734375 -6.238281 12.640625 -6 12.453125 -5.78125 C 12.273438 -5.5625 12.019531 -5.453125 11.6875 -5.453125 L 3.640625 -5.453125 L 3.640625 -4.671875 C 3.640625 -4.222656 3.722656 -3.800781 3.890625 -3.40625 C 4.066406 -3.007812 4.304688 -2.660156 4.609375 -2.359375 C 4.910156 -2.066406 5.273438 -1.835938 5.703125 -1.671875 C 6.140625 -1.503906 6.617188 -1.421875 7.140625 -1.421875 C 7.921875 -1.421875 8.535156 -1.519531 8.984375 -1.71875 C 9.441406 -1.925781 9.8125 -2.15625 10.09375 -2.40625 C 10.382812 -2.65625 10.628906 -2.878906 10.828125 -3.078125 C 11.023438 -3.273438 11.269531 -3.375 11.5625 -3.375 C 11.820312 -3.375 12.035156 -3.285156 12.203125 -3.109375 C 12.378906 -2.941406 12.46875 -2.726562 12.46875 -2.46875 C 12.46875 -2.238281 12.347656 -1.957031 12.109375 -1.625 C 11.867188 -1.300781 11.519531 -0.992188 11.0625 -0.703125 C 10.613281 -0.410156 10.0625 -0.15625 9.40625 0.0625 C 8.75 0.28125 7.992188 0.390625 7.140625 0.390625 Z M 10.65625 -7.28125 L 10.65625 -7.921875 C 10.65625 -8.367188 10.566406 -8.789062 10.390625 -9.1875 C 10.222656 -9.59375 9.984375 -9.941406 9.671875 -10.234375 C 9.367188 -10.523438 9 -10.753906 8.5625 -10.921875 C 8.132812 -11.085938 7.660156 -11.171875 7.140625 -11.171875 C 6.617188 -11.171875 6.140625 -11.085938 5.703125 -10.921875 C 5.273438 -10.753906 4.910156 -10.523438 4.609375 -10.234375 C 4.304688 -9.941406 4.066406 -9.59375 3.890625 -9.1875 C 3.722656 -8.789062 3.640625 -8.367188 3.640625 -7.921875 L 3.640625 -7.28125 Z M 10.65625 -7.28125 "/></g></g></g><g fill="rgb(19.999695%, 41.958618%, 52.938843%)" fill-opacity="1"><g transform="translate(217.983132, 112.175646)"><g><path d="M 3.125 0.125 C 2.789062 0.125 2.53125 0.0195312 2.34375 -0.1875 C 2.164062 -0.40625 2.078125 -0.644531 2.078125 -0.90625 L 2.078125 -17.015625 C 2.078125 -17.273438 2.164062 -17.515625 2.34375 -17.734375 C 2.53125 -17.953125 2.789062 -18.0625 3.125 -18.0625 C 3.445312 -18.0625 3.695312 -17.953125 3.875 -17.734375 C 4.0625 -17.515625 4.15625 -17.273438 4.15625 -17.015625 L 4.15625 -0.90625 C 4.15625 -0.644531 4.0625 -0.40625 3.875 -0.1875 C 3.695312 0.0195312 3.445312 0.125 3.125 0.125 Z M 3.125 0.125 "/></g></g></g><g fill="rgb(19.999695%, 41.958618%, 52.938843%)" fill-opacity="1"><g transform="translate(226.504031, 112.175646)"><g/></g></g><g fill="rgb(19.999695%, 41.958618%, 52.938843%)" fill-opacity="1"><g transform="translate(235.024935, 112.175646)"><g><path d="M 8.96875 0.515625 C 7.925781 0.515625 6.96875 0.335938 6.09375 -0.015625 C 5.21875 -0.367188 4.460938 -0.851562 3.828125 -1.46875 C 3.203125 -2.082031 2.707031 -2.804688 2.34375 -3.640625 C 1.988281 -4.484375 1.8125 -5.390625 1.8125 -6.359375 L 1.8125 -11.828125 C 1.8125 -12.796875 1.988281 -13.695312 2.34375 -14.53125 C 2.707031 -15.375 3.203125 -16.101562 3.828125 -16.71875 C 4.460938 -17.332031 5.21875 -17.816406 6.09375 -18.171875 C 6.96875 -18.523438 7.925781 -18.703125 8.96875 -18.703125 C 9.8125 -18.703125 10.554688 -18.601562 11.203125 -18.40625 C 11.859375 -18.207031 12.429688 -17.953125 12.921875 -17.640625 C 13.421875 -17.328125 13.832031 -16.988281 14.15625 -16.625 C 14.488281 -16.257812 14.75 -15.914062 14.9375 -15.59375 L 15.125 -15.234375 C 15.175781 -15.128906 15.222656 -15.007812 15.265625 -14.875 C 15.304688 -14.75 15.328125 -14.640625 15.328125 -14.546875 C 15.328125 -13.859375 14.984375 -13.515625 14.296875 -13.515625 C 14.035156 -13.515625 13.832031 -13.597656 13.6875 -13.765625 C 13.550781 -13.941406 13.40625 -14.160156 13.25 -14.421875 C 13.0625 -14.753906 12.84375 -15.066406 12.59375 -15.359375 C 12.34375 -15.648438 12.039062 -15.90625 11.6875 -16.125 C 11.34375 -16.351562 10.945312 -16.535156 10.5 -16.671875 C 10.0625 -16.816406 9.550781 -16.890625 8.96875 -16.890625 C 8.257812 -16.890625 7.59375 -16.757812 6.96875 -16.5 C 6.34375 -16.238281 5.800781 -15.878906 5.34375 -15.421875 C 4.894531 -14.960938 4.539062 -14.425781 4.28125 -13.8125 C 4.019531 -13.195312 3.890625 -12.535156 3.890625 -11.828125 L 3.890625 -6.359375 C 3.890625 -5.648438 4.019531 -4.984375 4.28125 -4.359375 C 4.539062 -3.742188 4.894531 -3.207031 5.34375 -2.75 C 5.800781 -2.300781 6.34375 -1.945312 6.96875 -1.6875 C 7.59375 -1.425781 8.257812 -1.296875 8.96875 -1.296875 C 9.59375 -1.296875 10.144531 -1.378906 10.625 -1.546875 C 11.113281 -1.710938 11.539062 -1.925781 11.90625 -2.1875 C 12.28125 -2.445312 12.601562 -2.734375 12.875 -3.046875 C 13.144531 -3.367188 13.359375 -3.695312 13.515625 -4.03125 C 13.648438 -4.289062 13.796875 -4.503906 13.953125 -4.671875 C 14.109375 -4.847656 14.351562 -4.9375 14.6875 -4.9375 C 14.945312 -4.9375 15.160156 -4.84375 15.328125 -4.65625 C 15.503906 -4.476562 15.59375 -4.222656 15.59375 -3.890625 C 15.59375 -3.785156 15.566406 -3.671875 15.515625 -3.546875 C 15.472656 -3.429688 15.425781 -3.320312 15.375 -3.21875 L 15.203125 -2.859375 C 15.015625 -2.492188 14.742188 -2.113281 14.390625 -1.71875 C 14.046875 -1.332031 13.617188 -0.96875 13.109375 -0.625 C 12.597656 -0.289062 12 -0.0195312 11.3125 0.1875 C 10.632812 0.40625 9.851562 0.515625 8.96875 0.515625 Z M 8.96875 0.515625 "/></g></g></g><g fill="rgb(19.999695%, 41.958618%, 52.938843%)" fill-opacity="1"><g transform="translate(253.935385, 112.175646)"><g><path d="M 7.140625 0.390625 C 6.328125 0.390625 5.578125 0.253906 4.890625 -0.015625 C 4.210938 -0.285156 3.625 -0.648438 3.125 -1.109375 C 2.632812 -1.578125 2.25 -2.117188 1.96875 -2.734375 C 1.695312 -3.347656 1.5625 -3.992188 1.5625 -4.671875 L 1.5625 -7.921875 C 1.5625 -8.597656 1.695312 -9.242188 1.96875 -9.859375 C 2.25 -10.472656 2.632812 -11.015625 3.125 -11.484375 C 3.625 -11.953125 4.210938 -12.316406 4.890625 -12.578125 C 5.578125 -12.847656 6.328125 -12.984375 7.140625 -12.984375 C 7.953125 -12.984375 8.703125 -12.847656 9.390625 -12.578125 C 10.078125 -12.316406 10.664062 -11.953125 11.15625 -11.484375 C 11.65625 -11.015625 12.039062 -10.472656 12.3125 -9.859375 C 12.59375 -9.242188 12.734375 -8.597656 12.734375 -7.921875 L 12.734375 -4.671875 C 12.734375 -3.992188 12.59375 -3.347656 12.3125 -2.734375 C 12.039062 -2.117188 11.65625 -1.578125 11.15625 -1.109375 C 10.664062 -0.648438 10.078125 -0.285156 9.390625 -0.015625 C 8.703125 0.253906 7.953125 0.390625 7.140625 0.390625 Z M 7.140625 -1.421875 C 7.660156 -1.421875 8.132812 -1.503906 8.5625 -1.671875 C 9 -1.835938 9.367188 -2.066406 9.671875 -2.359375 C 9.984375 -2.660156 10.222656 -3.007812 10.390625 -3.40625 C 10.566406 -3.800781 10.65625 -4.222656 10.65625 -4.671875 L 10.65625 -7.921875 C 10.65625 -8.367188 10.566406 -8.789062 10.390625 -9.1875 C 10.222656 -9.59375 9.984375 -9.941406 9.671875 -10.234375 C 9.367188 -10.523438 9 -10.753906 8.5625 -10.921875 C 8.132812 -11.085938 7.660156 -11.171875 7.140625 -11.171875 C 6.617188 -11.171875 6.140625 -11.085938 5.703125 -10.921875 C 5.273438 -10.753906 4.910156 -10.523438 4.609375 -10.234375 C 4.304688 -9.941406 4.066406 -9.59375 3.890625 -9.1875 C 3.722656 -8.789062 3.640625 -8.367188 3.640625 -7.921875 L 3.640625 -4.671875 C 3.640625 -4.222656 3.722656 -3.800781 3.890625 -3.40625 C 4.066406 -3.007812 4.304688 -2.660156 4.609375 -2.359375 C 4.910156 -2.066406 5.273438 -1.835938 5.703125 -1.671875 C 6.140625 -1.503906 6.617188 -1.421875 7.140625 -1.421875 Z M 7.140625 -1.421875 "/></g></g></g><g fill="rgb(19.999695%, 41.958618%, 52.938843%)" fill-opacity="1"><g transform="translate(270.508181, 112.175646)"><g><path d="M 2.59375 0.265625 C 2.195312 0.265625 1.878906 0.128906 1.640625 -0.140625 C 1.410156 -0.410156 1.296875 -0.710938 1.296875 -1.046875 C 1.296875 -1.367188 1.410156 -1.664062 1.640625 -1.9375 C 1.878906 -2.207031 2.195312 -2.34375 2.59375 -2.34375 C 3 -2.34375 3.316406 -2.207031 3.546875 -1.9375 C 3.773438 -1.664062 3.890625 -1.367188 3.890625 -1.046875 C 3.890625 -0.710938 3.773438 -0.410156 3.546875 -0.140625 C 3.316406 0.128906 3 0.265625 2.59375 0.265625 Z M 2.59375 0.265625 "/></g></g></g><g mask="url(#id3)"><g transform="matrix(1, 0, 0, 1, 0, 17)"><g clip-path="url(#id8)"><g clip-path="url(#id4)"><g clip-path="url(#id5)"><g clip-path="url(#id6)"><g clip-path="url(#id7)"><path fill="rgb(46.269226%, 79.998779%, 81.17981%)" d="M 40.792969 93.015625 C 23.984375 86.921875 -7.652344 46.425781 16.394531 30.566406 C 32.65625 19.835938 35.246094 37.019531 57.546875 50.476562 C 64.9375 54.925781 101.074219 50.320312 95.765625 73.238281 C 92.617188 86.816406 62.777344 100.976562 40.792969 93.015625 Z M 40.792969 93.015625 " fill-opacity="1" fill-rule="nonzero"/></g></g></g></g></g></g></g><g clip-path="url(#id9)"><path fill="rgb(19.999695%, 41.958618%, 52.938843%)" d="M 103.742188 29.324219 C 103.59375 29.207031 103.425781 29.160156 103.238281 29.183594 C 103.050781 29.207031 102.902344 29.296875 102.789062 29.449219 C 102.675781 29.597656 102.636719 29.769531 102.664062 29.953125 C 102.695312 30.140625 102.789062 30.289062 102.941406 30.398438 C 116.308594 40.351562 124.085938 55.667969 124.289062 72.417969 C 124.359375 77.972656 123.578125 83.410156 121.953125 88.722656 C 120.921875 90.035156 119.898438 91.351562 118.839844 92.636719 C 117.644531 94.125 116.378906 95.539062 115.035156 96.890625 C 114.730469 97.191406 114.417969 97.480469 114.101562 97.761719 C 113.949219 97.898438 113.792969 98.03125 113.636719 98.160156 L 113.417969 98.335938 L 113.324219 98.414062 C 113.394531 98.355469 113.304688 98.414062 113.285156 98.441406 C 112.519531 99.023438 111.695312 99.527344 110.90625 100.078125 C 110.042969 100.644531 109.269531 101.3125 108.582031 102.078125 C 107.914062 102.851562 107.449219 103.730469 107.179688 104.714844 C 106.925781 105.664062 106.871094 106.625 107.015625 107.597656 C 107.160156 108.574219 107.492188 109.476562 108.011719 110.3125 C 108.148438 110.523438 108.300781 110.722656 108.460938 110.917969 C 106.011719 113.347656 103.355469 115.511719 100.484375 117.417969 C 97.613281 119.324219 94.585938 120.933594 91.398438 122.246094 C 88.210938 123.558594 84.929688 124.546875 81.550781 125.210938 C 78.171875 125.878906 74.757812 126.210938 71.3125 126.207031 L 71.222656 126.207031 C 67.816406 126.222656 64.441406 125.90625 61.097656 125.265625 C 57.75 124.625 54.5 123.667969 51.339844 122.398438 C 48.179688 121.125 45.171875 119.5625 42.3125 117.707031 C 39.453125 115.855469 36.800781 113.742188 34.351562 111.371094 C 34.753906 110.667969 35.0625 109.929688 35.28125 109.148438 C 35.496094 108.367188 35.613281 107.570312 35.628906 106.761719 C 35.644531 105.953125 35.5625 105.152344 35.378906 104.363281 C 35.195312 103.574219 34.917969 102.820312 34.546875 102.101562 C 33.800781 100.679688 32.628906 99.609375 31.519531 98.484375 C 31.246094 98.207031 30.992188 97.929688 30.75 97.652344 L 30.582031 97.449219 L 30.5625 97.429688 C 30.539062 97.402344 30.515625 97.363281 30.496094 97.335938 C 30.386719 97.191406 30.285156 97.039062 30.191406 96.886719 C 30.097656 96.742188 30.015625 96.59375 29.941406 96.441406 L 29.882812 96.3125 C 29.851562 96.226562 29.820312 96.140625 29.789062 96.050781 C 29.734375 95.890625 29.695312 95.726562 29.664062 95.558594 C 29.664062 95.527344 29.648438 95.480469 29.644531 95.441406 L 29.644531 95.410156 C 29.644531 95.316406 29.644531 95.230469 29.628906 95.132812 C 29.628906 94.988281 29.628906 94.855469 29.648438 94.703125 C 29.648438 94.703125 29.648438 94.714844 29.648438 94.726562 C 29.65625 94.6875 29.664062 94.648438 29.667969 94.609375 C 29.667969 94.535156 29.695312 94.457031 29.714844 94.382812 C 29.746094 94.246094 29.785156 94.109375 29.832031 93.976562 C 29.859375 93.90625 29.886719 93.835938 29.910156 93.761719 L 29.953125 93.667969 C 30.214844 93.109375 30.539062 92.582031 30.914062 92.089844 C 30.941406 92.058594 30.96875 92.023438 30.988281 91.992188 L 31.121094 91.820312 L 31.445312 91.429688 C 31.648438 91.175781 31.855469 90.929688 32.058594 90.675781 C 32.492188 90.160156 32.890625 89.613281 33.25 89.042969 C 33.957031 87.863281 34.320312 86.457031 33.882812 85.113281 C 33.363281 83.539062 31.992188 82.40625 30.542969 81.699219 C 28.824219 80.90625 27.015625 80.464844 25.121094 80.375 C 23.195312 80.253906 21.3125 80.472656 19.46875 81.03125 C 19.226562 81.101562 18.992188 81.183594 18.757812 81.265625 C 18.363281 78.671875 18.15625 76.066406 18.140625 73.441406 C 18.085938 67.207031 19.101562 61.148438 21.183594 55.269531 C 21.484375 54.449219 21.953125 53.746094 22.597656 53.15625 C 23.242188 52.566406 23.984375 52.15625 24.828125 51.929688 C 27.074219 51.300781 28.765625 51.292969 29.582031 51.929688 C 30.03125 52.269531 30.25 52.828125 30.25 53.632812 C 30.25 56.265625 29.042969 58.789062 27.761719 61.460938 C 26.476562 64.136719 25.144531 66.933594 25.144531 69.871094 C 25.144531 71.464844 25.300781 73.164062 26.449219 73.640625 C 28.027344 74.296875 30.230469 72.449219 36.480469 66.1875 C 40.101562 62.566406 43.601562 61.757812 46.414062 61.09375 C 49.625 60.347656 52.402344 59.707031 53.34375 55.238281 C 54.199219 51.183594 52.730469 47.285156 51.433594 43.839844 C 50.183594 40.515625 49.007812 37.394531 50.070312 34.695312 C 51.238281 31.726562 52.53125 30.488281 53.636719 29.664062 C 54.214844 29.25 54.710938 28.753906 55.128906 28.179688 C 55.546875 27.601562 55.867188 26.976562 56.082031 26.296875 C 56.300781 25.621094 56.410156 24.925781 56.40625 24.214844 C 56.402344 23.503906 56.285156 22.8125 56.0625 22.136719 C 60.625 20.78125 65.285156 20.050781 70.042969 19.949219 L 70.058594 19.949219 C 70.613281 19.949219 71.136719 19.933594 71.675781 19.949219 C 71.863281 19.949219 72.019531 19.882812 72.148438 19.753906 C 72.28125 19.621094 72.347656 19.464844 72.347656 19.28125 C 72.347656 19.09375 72.28125 18.9375 72.148438 18.804688 C 72.019531 18.675781 71.863281 18.609375 71.675781 18.609375 L 71.085938 18.609375 C 67.359375 18.609375 63.675781 18.992188 60.03125 19.753906 C 56.382812 20.511719 52.851562 21.636719 49.4375 23.121094 C 46.023438 24.605469 42.792969 26.425781 39.75 28.574219 C 36.707031 30.722656 33.914062 33.160156 31.371094 35.886719 C 31.242188 36.019531 31.179688 36.179688 31.1875 36.367188 C 31.191406 36.554688 31.261719 36.710938 31.398438 36.839844 C 31.535156 36.96875 31.695312 37.027344 31.882812 37.019531 C 32.070312 37.011719 32.226562 36.9375 32.351562 36.800781 C 35.421875 33.503906 38.855469 30.648438 42.648438 28.230469 C 46.445312 25.8125 50.484375 23.90625 54.765625 22.519531 C 54.949219 23.058594 55.042969 23.617188 55.046875 24.191406 C 55.054688 24.761719 54.96875 25.320312 54.792969 25.867188 C 54.621094 26.414062 54.363281 26.917969 54.027344 27.378906 C 53.691406 27.84375 53.292969 28.242188 52.828125 28.578125 C 51.570312 29.511719 50.105469 30.90625 48.808594 34.191406 C 47.558594 37.367188 48.828125 40.738281 50.167969 44.300781 C 51.460938 47.730469 52.796875 51.277344 52.023438 54.945312 C 51.253906 58.570312 49.3125 59.023438 46.097656 59.773438 C 43.121094 60.46875 39.414062 61.328125 35.523438 65.226562 C 32.507812 68.242188 27.957031 72.796875 26.945312 72.386719 C 26.867188 72.351562 26.472656 72.078125 26.472656 69.855469 C 26.472656 67.226562 27.675781 64.703125 28.960938 62.027344 C 30.246094 59.355469 31.578125 56.554688 31.578125 53.621094 C 31.578125 52.382812 31.175781 51.449219 30.382812 50.847656 C 29.1875 49.941406 27.191406 49.871094 24.453125 50.636719 C 23.402344 50.929688 22.480469 51.445312 21.679688 52.183594 C 20.882812 52.925781 20.296875 53.808594 19.925781 54.832031 C 19.5625 55.855469 19.226562 56.890625 18.925781 57.933594 C 18.621094 58.976562 18.351562 60.027344 18.109375 61.085938 C 17.867188 62.144531 17.660156 63.210938 17.484375 64.28125 C 17.308594 65.355469 17.164062 66.429688 17.050781 67.511719 C 16.9375 68.589844 16.859375 69.671875 16.8125 70.757812 C 16.765625 71.84375 16.75 72.929688 16.765625 74.015625 C 16.785156 75.101562 16.835938 76.1875 16.917969 77.269531 C 17 78.351562 17.113281 79.433594 17.261719 80.507812 C 17.40625 81.585938 17.585938 82.65625 17.796875 83.722656 C 18.007812 84.785156 18.25 85.84375 18.527344 86.894531 C 18.800781 87.945312 19.105469 88.988281 19.441406 90.023438 C 19.777344 91.054688 20.144531 92.074219 20.542969 93.085938 C 20.941406 94.097656 21.371094 95.09375 21.828125 96.082031 C 22.285156 97.066406 22.769531 98.035156 23.285156 98.992188 C 23.800781 99.945312 24.34375 100.886719 24.917969 101.808594 C 25.488281 102.734375 26.085938 103.636719 26.714844 104.527344 C 27.339844 105.414062 27.992188 106.28125 28.667969 107.128906 C 29.347656 107.976562 30.050781 108.804688 30.777344 109.609375 C 31.503906 110.417969 32.253906 111.199219 33.027344 111.960938 C 33.800781 112.722656 34.597656 113.460938 35.417969 114.171875 C 36.234375 114.886719 37.074219 115.574219 37.933594 116.238281 C 38.792969 116.902344 39.671875 117.539062 40.570312 118.148438 C 41.464844 118.757812 42.382812 119.339844 43.3125 119.894531 C 44.246094 120.453125 45.195312 120.980469 46.15625 121.476562 C 47.121094 121.976562 48.101562 122.445312 49.089844 122.886719 C 50.082031 123.324219 51.085938 123.734375 52.105469 124.117188 C 53.121094 124.496094 54.148438 124.84375 55.183594 125.164062 C 56.222656 125.480469 57.269531 125.765625 58.324219 126.023438 C 59.378906 126.277344 60.4375 126.503906 61.507812 126.695312 C 62.574219 126.886719 63.648438 127.046875 64.722656 127.171875 C 65.800781 127.300781 66.882812 127.394531 67.964844 127.457031 C 69.046875 127.519531 70.132812 127.550781 71.21875 127.550781 L 71.3125 127.550781 C 73.109375 127.546875 74.898438 127.453125 76.683594 127.273438 C 78.46875 127.09375 80.238281 126.824219 82 126.46875 C 83.757812 126.113281 85.492188 125.671875 87.207031 125.144531 C 88.921875 124.617188 90.609375 124.003906 92.261719 123.308594 C 93.917969 122.617188 95.535156 121.839844 97.113281 120.988281 C 98.6875 120.132812 100.222656 119.199219 101.707031 118.195312 C 103.195312 117.1875 104.625 116.109375 106.007812 114.960938 C 107.386719 113.8125 108.707031 112.601562 109.964844 111.320312 C 111.226562 110.042969 112.417969 108.703125 113.546875 107.308594 C 114.671875 105.910156 115.730469 104.460938 116.714844 102.957031 C 117.699219 101.457031 118.605469 99.910156 119.4375 98.316406 C 120.269531 96.726562 121.019531 95.097656 121.691406 93.429688 C 122.363281 91.765625 122.949219 90.070312 123.453125 88.347656 C 123.953125 86.621094 124.371094 84.878906 124.703125 83.113281 C 125.035156 81.347656 125.277344 79.570312 125.433594 77.777344 C 125.585938 75.988281 125.652344 74.195312 125.632812 72.398438 C 125.425781 55.230469 117.445312 39.527344 103.742188 29.324219 Z M 18.984375 82.625 C 19.695312 82.363281 20.421875 82.152344 21.164062 81.996094 C 21.382812 81.953125 21.605469 81.910156 21.824219 81.875 L 22.171875 81.824219 L 22.191406 81.824219 L 22.4375 81.792969 C 22.882812 81.746094 23.332031 81.714844 23.78125 81.703125 C 24.234375 81.691406 24.71875 81.703125 25.191406 81.734375 C 25.414062 81.746094 25.636719 81.765625 25.859375 81.792969 L 26.121094 81.824219 L 26.226562 81.839844 L 26.410156 81.867188 C 27.3125 82.007812 28.195312 82.226562 29.054688 82.53125 L 29.332031 82.636719 L 29.46875 82.691406 C 29.652344 82.765625 29.832031 82.851562 30.003906 82.941406 C 30.339844 83.109375 30.660156 83.300781 30.96875 83.511719 C 31.042969 83.566406 31.121094 83.613281 31.191406 83.671875 L 31.308594 83.765625 C 31.460938 83.894531 31.605469 84.027344 31.746094 84.167969 C 31.859375 84.28125 31.96875 84.398438 32.066406 84.527344 C 32.050781 84.503906 32.039062 84.492188 32.066406 84.550781 L 32.148438 84.667969 C 32.203125 84.746094 32.253906 84.824219 32.300781 84.910156 C 32.351562 84.988281 32.394531 85.074219 32.4375 85.160156 C 32.453125 85.1875 32.464844 85.214844 32.476562 85.246094 C 32.480469 85.25 32.480469 85.257812 32.476562 85.265625 C 32.5625 85.433594 32.617188 85.613281 32.640625 85.800781 C 32.664062 85.871094 32.679688 85.945312 32.6875 86.015625 L 32.6875 86.054688 C 32.6875 86.09375 32.6875 86.128906 32.6875 86.164062 C 32.695312 86.316406 32.695312 86.464844 32.6875 86.617188 C 32.6875 86.675781 32.632812 86.933594 32.6875 86.703125 C 32.671875 86.769531 32.667969 86.832031 32.652344 86.894531 C 32.636719 87.042969 32.609375 87.191406 32.574219 87.335938 C 32.535156 87.457031 32.488281 87.574219 32.445312 87.691406 L 32.402344 87.785156 L 32.296875 87.996094 C 32.15625 88.265625 32 88.527344 31.824219 88.78125 C 31.746094 88.898438 31.660156 89.015625 31.578125 89.132812 C 31.53125 89.191406 31.488281 89.253906 31.441406 89.3125 C 31.414062 89.339844 31.390625 89.378906 31.363281 89.410156 C 30.972656 89.90625 30.5625 90.390625 30.167969 90.882812 C 29.375 91.875 28.574219 92.96875 28.351562 94.25 C 28.210938 94.992188 28.257812 95.722656 28.492188 96.441406 C 28.765625 97.191406 29.160156 97.863281 29.679688 98.46875 C 30.164062 99.035156 30.675781 99.578125 31.214844 100.097656 C 31.492188 100.375 31.753906 100.628906 32.011719 100.902344 C 32.128906 101.03125 32.246094 101.15625 32.359375 101.289062 L 32.546875 101.511719 L 32.65625 101.648438 C 32.886719 101.957031 33.097656 102.28125 33.285156 102.617188 C 33.371094 102.773438 33.449219 102.933594 33.527344 103.09375 C 33.566406 103.179688 33.605469 103.261719 33.640625 103.347656 L 33.714844 103.539062 C 33.851562 103.902344 33.964844 104.273438 34.054688 104.648438 C 34.089844 104.824219 34.128906 105 34.160156 105.175781 C 34.160156 105.261719 34.195312 105.355469 34.203125 105.453125 C 34.203125 105.523438 34.214844 105.589844 34.222656 105.660156 C 34.261719 106.035156 34.277344 106.410156 34.269531 106.789062 C 34.269531 106.976562 34.253906 107.164062 34.238281 107.339844 C 34.238281 107.445312 34.21875 107.546875 34.207031 107.648438 C 34.207031 107.648438 34.207031 107.722656 34.207031 107.742188 C 34.207031 107.761719 34.207031 107.796875 34.195312 107.828125 C 34.136719 108.199219 34.054688 108.570312 33.949219 108.933594 C 33.894531 109.113281 33.835938 109.292969 33.773438 109.46875 L 33.664062 109.746094 L 33.589844 109.914062 C 33.511719 110.074219 33.4375 110.226562 33.351562 110.378906 C 29.609375 106.585938 26.515625 102.324219 24.066406 97.59375 C 21.617188 92.863281 19.921875 87.871094 18.984375 82.625 Z M 108.332031 105.734375 Z M 108.710938 108.769531 L 108.730469 108.816406 C 108.722656 108.800781 108.714844 108.78125 108.710938 108.761719 Z M 109.410156 109.96875 L 109.320312 109.847656 C 109.253906 109.761719 109.195312 109.667969 109.136719 109.570312 C 109.019531 109.386719 108.910156 109.195312 108.816406 108.996094 L 108.742188 108.835938 C 108.699219 108.722656 108.65625 108.613281 108.617188 108.503906 C 108.546875 108.292969 108.484375 108.082031 108.433594 107.867188 C 108.414062 107.769531 108.394531 107.667969 108.375 107.570312 C 108.375 107.511719 108.355469 107.453125 108.347656 107.398438 C 108.335938 107.339844 108.347656 107.351562 108.347656 107.34375 C 108.320312 107.125 108.308594 106.902344 108.300781 106.683594 C 108.296875 106.460938 108.300781 106.242188 108.324219 106.023438 C 108.324219 105.964844 108.324219 105.902344 108.34375 105.84375 L 108.34375 105.820312 C 108.375 105.707031 108.394531 105.589844 108.402344 105.472656 C 108.445312 105.253906 108.5 105.042969 108.566406 104.832031 C 108.59375 104.738281 108.628906 104.640625 108.664062 104.554688 C 108.699219 104.46875 108.707031 104.445312 108.726562 104.386719 C 108.746094 104.332031 108.707031 104.429688 108.707031 104.429688 C 108.71875 104.398438 108.734375 104.367188 108.75 104.339844 C 108.839844 104.136719 108.941406 103.941406 109.054688 103.753906 C 109.109375 103.660156 109.171875 103.566406 109.230469 103.476562 L 109.324219 103.34375 L 109.390625 103.253906 C 109.6875 102.878906 110.011719 102.539062 110.371094 102.222656 C 110.550781 102.066406 110.738281 101.914062 110.925781 101.765625 L 110.964844 101.734375 L 111.117188 101.617188 L 111.410156 101.40625 C 112.203125 100.851562 113.027344 100.332031 113.8125 99.761719 C 114.480469 99.265625 115.113281 98.730469 115.710938 98.15625 C 117.03125 96.871094 118.269531 95.511719 119.433594 94.085938 C 119.839844 93.597656 120.238281 93.101562 120.636719 92.609375 C 118.042969 99.140625 114.300781 104.925781 109.410156 109.964844 Z M 109.410156 109.96875 " fill-opacity="1" fill-rule="nonzero"/></g><path fill="rgb(19.999695%, 41.958618%, 52.938843%)" d="M 69.320312 61.214844 C 69.71875 62.449219 70.480469 63.382812 71.609375 64.023438 C 72.21875 64.347656 72.871094 64.542969 73.5625 64.605469 C 74.253906 64.667969 74.929688 64.59375 75.589844 64.382812 C 76.882812 63.988281 78.035156 63.339844 79.046875 62.441406 C 79.273438 62.683594 79.507812 62.921875 79.75 63.148438 C 80.773438 64.160156 81.988281 64.820312 83.390625 65.136719 C 84.929688 65.441406 86.488281 65.28125 88.039062 65.171875 C 89.441406 65.050781 90.835938 65.109375 92.222656 65.347656 C 94.902344 65.859375 97.398438 67.117188 99.183594 69.199219 C 100.042969 70.1875 100.679688 71.296875 101.097656 72.539062 C 101.511719 73.777344 101.675781 75.050781 101.582031 76.355469 C 101.527344 76.953125 101.410156 77.539062 101.230469 78.109375 C 101.066406 78.667969 100.84375 79.203125 100.5625 79.710938 C 99.988281 80.785156 99.257812 81.738281 98.371094 82.574219 C 97.476562 83.441406 96.484375 84.179688 95.402344 84.789062 C 94.246094 85.449219 93.03125 85.96875 91.757812 86.351562 C 88.753906 87.285156 85.613281 87.628906 82.496094 87.996094 C 79.578125 88.335938 76.652344 88.707031 73.835938 89.570312 C 71.148438 90.402344 68.5625 91.671875 66.523438 93.640625 C 64.398438 95.6875 63.011719 98.382812 60.835938 100.386719 C 59.882812 101.308594 58.777344 101.96875 57.515625 102.367188 C 56.898438 102.550781 56.273438 102.613281 55.632812 102.550781 C 55.578125 102.550781 55.523438 102.542969 55.46875 102.535156 L 55.242188 102.492188 C 55.078125 102.453125 54.917969 102.40625 54.761719 102.347656 C 54.515625 102.246094 54.296875 102.105469 54.101562 101.925781 C 54.003906 101.835938 53.921875 101.734375 53.855469 101.625 C 53.785156 101.515625 53.726562 101.398438 53.675781 101.28125 C 53.617188 101.128906 53.570312 100.972656 53.535156 100.8125 C 53.503906 100.6875 53.484375 100.558594 53.476562 100.425781 C 53.445312 100.101562 53.445312 99.777344 53.476562 99.453125 C 53.476562 99.382812 53.488281 99.316406 53.496094 99.246094 C 53.496094 99.226562 53.496094 99.152344 53.515625 99.128906 C 53.539062 98.988281 53.566406 98.851562 53.597656 98.707031 C 53.660156 98.425781 53.738281 98.148438 53.832031 97.878906 C 53.878906 97.746094 53.929688 97.601562 53.980469 97.480469 C 53.980469 97.46875 53.980469 97.453125 53.980469 97.441406 L 54 97.402344 C 54.03125 97.332031 54.0625 97.257812 54.09375 97.191406 C 54.339844 96.671875 54.621094 96.175781 54.941406 95.699219 C 55.101562 95.457031 55.269531 95.21875 55.449219 94.984375 C 55.59375 94.785156 55.722656 94.609375 55.933594 94.363281 C 56.3125 93.894531 56.707031 93.441406 57.109375 92.980469 C 57.914062 92.066406 58.738281 91.164062 59.492188 90.207031 C 61.191406 88.175781 62.226562 85.84375 62.59375 83.214844 C 63.011719 80.539062 62.886719 77.820312 62.78125 75.125 C 62.726562 73.777344 62.679688 72.429688 62.707031 71.085938 C 62.726562 70.421875 62.753906 69.761719 62.820312 69.101562 C 62.875 68.488281 62.96875 67.878906 63.097656 67.273438 C 63.328125 66.0625 63.726562 64.90625 64.289062 63.808594 C 64.375 63.648438 64.398438 63.480469 64.351562 63.300781 C 64.304688 63.125 64.203125 62.988281 64.046875 62.890625 C 63.886719 62.796875 63.71875 62.777344 63.539062 62.824219 C 63.363281 62.871094 63.226562 62.972656 63.132812 63.128906 C 61.835938 65.605469 61.433594 68.394531 61.378906 71.164062 C 61.324219 73.933594 61.589844 76.707031 61.554688 79.476562 C 61.5625 80.8125 61.453125 82.140625 61.226562 83.457031 C 60.992188 84.746094 60.574219 85.96875 59.96875 87.132812 C 58.800781 89.320312 57.042969 90.996094 55.421875 92.910156 C 53.796875 94.824219 52.351562 96.941406 52.128906 99.507812 C 52.003906 100.976562 52.441406 102.574219 53.789062 103.351562 C 55.074219 104.089844 56.75 104.015625 58.121094 103.566406 C 61.058594 102.605469 63.007812 100.132812 64.796875 97.75 C 65.671875 96.503906 66.660156 95.351562 67.757812 94.292969 C 68.792969 93.371094 69.9375 92.609375 71.191406 92.011719 C 73.679688 90.785156 76.546875 90.140625 79.332031 89.722656 C 82.554688 89.242188 85.8125 89.027344 89.019531 88.398438 C 91.914062 87.828125 94.769531 86.894531 97.222656 85.207031 C 99.4375 83.699219 101.285156 81.671875 102.273438 79.164062 C 103.316406 76.507812 103.082031 73.554688 101.902344 70.988281 C 101.28125 69.675781 100.453125 68.515625 99.414062 67.503906 C 98.378906 66.492188 97.195312 65.691406 95.871094 65.101562 C 94.480469 64.476562 93.03125 64.070312 91.519531 63.882812 C 90.011719 63.691406 88.519531 63.792969 87.007812 63.902344 C 86.21875 63.96875 85.425781 63.984375 84.632812 63.949219 C 84.273438 63.929688 83.921875 63.878906 83.574219 63.800781 C 83.402344 63.765625 83.238281 63.71875 83.070312 63.667969 L 82.792969 63.570312 L 82.609375 63.496094 C 81.617188 63.019531 80.761719 62.363281 80.039062 61.53125 C 80.886719 60.699219 81.679688 59.8125 82.492188 58.980469 C 83.417969 57.964844 84.484375 57.132812 85.699219 56.488281 C 85.859375 56.390625 85.960938 56.253906 86.007812 56.078125 C 86.054688 55.898438 86.03125 55.730469 85.941406 55.570312 C 85.84375 55.414062 85.707031 55.3125 85.53125 55.265625 C 85.351562 55.21875 85.183594 55.238281 85.023438 55.328125 C 82.613281 56.527344 81.035156 58.730469 79.152344 60.566406 C 78.445312 59.703125 77.65625 58.925781 76.789062 58.226562 C 75.78125 57.480469 74.65625 57.035156 73.410156 56.886719 C 72.824219 56.796875 72.25 56.835938 71.679688 57.007812 C 71.113281 57.175781 70.609375 57.460938 70.164062 57.855469 C 69.722656 58.292969 69.421875 58.8125 69.269531 59.414062 C 69.117188 60.019531 69.136719 60.617188 69.320312 61.214844 Z M 71.144531 61.871094 C 71.089844 61.804688 71.132812 61.863281 71.144531 61.871094 Z M 70.636719 59.46875 Z M 70.515625 59.917969 C 70.515625 59.957031 70.515625 59.960938 70.515625 59.917969 Z M 70.515625 59.988281 C 70.519531 59.964844 70.519531 59.9375 70.515625 59.914062 C 70.542969 59.796875 70.566406 59.683594 70.601562 59.570312 C 70.601562 59.535156 70.628906 59.503906 70.640625 59.46875 C 70.648438 59.433594 70.695312 59.347656 70.730469 59.289062 L 70.828125 59.128906 L 70.890625 59.039062 C 70.96875 58.9375 71.054688 58.847656 71.148438 58.761719 C 71.179688 58.734375 71.210938 58.703125 71.246094 58.675781 L 71.324219 58.617188 C 71.433594 58.542969 71.550781 58.476562 71.667969 58.421875 C 71.691406 58.421875 71.742188 58.386719 71.757812 58.382812 L 71.875 58.339844 C 72.003906 58.300781 72.132812 58.265625 72.265625 58.238281 L 72.394531 58.214844 L 72.492188 58.214844 C 72.632812 58.203125 72.773438 58.199219 72.914062 58.203125 C 73.035156 58.203125 73.15625 58.203125 73.277344 58.222656 L 73.390625 58.222656 L 73.597656 58.257812 C 73.871094 58.308594 74.136719 58.382812 74.402344 58.46875 C 74.519531 58.507812 74.628906 58.550781 74.742188 58.597656 L 74.878906 58.65625 L 75.085938 58.753906 C 75.335938 58.878906 75.582031 59.023438 75.816406 59.175781 C 75.914062 59.242188 76.011719 59.3125 76.109375 59.382812 L 76.21875 59.46875 L 76.382812 59.613281 C 76.625 59.832031 76.855469 60.058594 77.082031 60.292969 C 77.445312 60.671875 77.796875 61.0625 78.144531 61.457031 C 77.316406 62.175781 76.382812 62.710938 75.34375 63.0625 C 74.726562 63.253906 74.09375 63.324219 73.449219 63.269531 L 73.371094 63.269531 L 73.1875 63.234375 C 73.042969 63.199219 72.898438 63.15625 72.757812 63.105469 L 72.652344 63.066406 L 72.507812 63 C 72.375 62.933594 72.242188 62.859375 72.117188 62.777344 C 72.015625 62.714844 71.914062 62.644531 71.816406 62.574219 C 71.796875 62.554688 71.722656 62.492188 71.710938 62.480469 C 71.652344 62.433594 71.597656 62.382812 71.542969 62.328125 C 71.445312 62.242188 71.355469 62.148438 71.265625 62.050781 C 71.21875 62 71.175781 61.945312 71.132812 61.890625 L 71.058594 61.789062 C 70.988281 61.683594 70.917969 61.578125 70.859375 61.472656 C 70.820312 61.40625 70.789062 61.34375 70.753906 61.28125 C 70.753906 61.257812 70.714844 61.183594 70.699219 61.160156 C 70.609375 60.9375 70.546875 60.707031 70.507812 60.46875 C 70.507812 60.445312 70.507812 60.40625 70.507812 60.382812 C 70.507812 60.355469 70.507812 60.265625 70.507812 60.207031 C 70.507812 60.148438 70.507812 60.054688 70.511719 59.988281 Z M 70.515625 59.988281 " fill-opacity="1" fill-rule="nonzero"/><path fill="rgb(19.999695%, 41.958618%, 52.938843%)" d="M 94.527344 115.1875 C 94.703125 115.1875 94.875 115.1875 95.046875 115.1875 C 95.191406 115.183594 95.332031 115.191406 95.472656 115.214844 L 95.515625 115.214844 L 95.605469 115.230469 C 95.699219 115.25 95.785156 115.273438 95.882812 115.296875 C 95.957031 115.316406 96.027344 115.339844 96.097656 115.367188 L 96.125 115.367188 L 96.179688 115.390625 C 96.242188 115.421875 96.304688 115.457031 96.367188 115.496094 L 96.457031 115.554688 C 96.507812 115.597656 96.558594 115.644531 96.609375 115.695312 L 96.664062 115.757812 C 96.699219 115.8125 96.734375 115.867188 96.765625 115.925781 C 96.796875 115.984375 96.800781 115.984375 96.8125 116.015625 C 96.8125 116.023438 96.8125 116.027344 96.8125 116.035156 C 96.867188 116.210938 96.972656 116.34375 97.132812 116.4375 C 97.292969 116.527344 97.464844 116.550781 97.644531 116.503906 C 97.820312 116.453125 97.957031 116.347656 98.046875 116.183594 C 98.136719 116.023438 98.160156 115.851562 98.109375 115.671875 C 97.824219 114.882812 97.289062 114.347656 96.5 114.066406 C 95.808594 113.824219 95.097656 113.746094 94.371094 113.824219 C 93.632812 113.914062 92.90625 114.058594 92.1875 114.257812 C 92.011719 114.296875 91.835938 114.335938 91.660156 114.363281 C 91.574219 114.382812 91.484375 114.398438 91.398438 114.410156 L 91.292969 114.425781 L 91.203125 114.425781 C 90.847656 114.480469 90.488281 114.5 90.128906 114.488281 L 90.015625 114.488281 C 89.9375 114.472656 89.859375 114.453125 89.78125 114.433594 C 89.703125 114.414062 89.628906 114.390625 89.554688 114.363281 L 89.511719 114.34375 L 89.480469 114.34375 L 89.417969 114.308594 C 89.351562 114.273438 89.285156 114.230469 89.21875 114.191406 L 89.148438 114.128906 C 89.089844 114.074219 89.039062 114.011719 88.980469 113.957031 L 88.886719 113.808594 C 88.855469 113.757812 88.828125 113.703125 88.800781 113.648438 L 88.800781 113.628906 C 88.761719 113.53125 88.726562 113.425781 88.699219 113.320312 C 88.640625 113.113281 88.601562 112.894531 88.5625 112.683594 C 88.503906 112.265625 88.410156 111.855469 88.285156 111.453125 C 88.015625 110.742188 87.617188 110.117188 87.089844 109.574219 C 86.558594 109.03125 85.945312 108.617188 85.242188 108.332031 C 83.765625 107.695312 82.25 107.5625 80.6875 107.941406 C 78.914062 108.375 77.347656 109.394531 75.980469 110.59375 C 74.671875 111.753906 73.582031 113.109375 72.421875 114.414062 C 71.855469 115.066406 71.246094 115.675781 70.597656 116.25 L 70.363281 116.441406 L 70.242188 116.542969 L 70.210938 116.5625 C 70.035156 116.695312 69.851562 116.839844 69.660156 116.945312 C 69.292969 117.1875 68.910156 117.394531 68.511719 117.566406 L 68.492188 117.566406 L 68.453125 117.582031 L 68.292969 117.640625 L 67.9375 117.765625 C 67.707031 117.839844 67.472656 117.90625 67.242188 117.964844 C 66.757812 118.082031 66.273438 118.171875 65.785156 118.242188 C 64.835938 118.371094 63.898438 118.546875 62.96875 118.773438 C 61.410156 119.195312 59.816406 120.054688 58.976562 121.488281 C 58.765625 121.84375 58.613281 122.226562 58.519531 122.632812 C 58.46875 122.808594 58.492188 122.980469 58.582031 123.140625 C 58.675781 123.300781 58.808594 123.40625 58.988281 123.457031 C 59.164062 123.503906 59.335938 123.484375 59.496094 123.394531 C 59.65625 123.300781 59.761719 123.167969 59.8125 122.988281 C 59.847656 122.832031 59.894531 122.675781 59.953125 122.523438 C 59.953125 122.539062 60.011719 122.382812 60.03125 122.347656 C 60.078125 122.253906 60.132812 122.164062 60.1875 122.070312 C 60.234375 121.996094 60.285156 121.925781 60.335938 121.851562 L 60.421875 121.746094 C 60.542969 121.605469 60.675781 121.472656 60.8125 121.347656 C 60.878906 121.285156 60.949219 121.226562 61.019531 121.167969 L 61.074219 121.128906 L 61.140625 121.074219 C 61.300781 120.964844 61.464844 120.859375 61.628906 120.761719 C 61.796875 120.664062 61.957031 120.582031 62.121094 120.5 L 62.351562 120.398438 L 62.398438 120.375 L 62.582031 120.308594 C 64.285156 119.667969 66.144531 119.652344 67.890625 119.171875 C 68.789062 118.925781 69.628906 118.546875 70.40625 118.035156 C 71.136719 117.539062 71.8125 116.972656 72.425781 116.339844 C 73.621094 115.136719 74.640625 113.777344 75.832031 112.5625 C 76.136719 112.246094 76.449219 111.941406 76.777344 111.648438 C 76.921875 111.515625 77.074219 111.386719 77.222656 111.257812 L 77.460938 111.058594 L 77.585938 110.960938 L 77.613281 110.9375 L 77.644531 110.917969 C 78.320312 110.398438 79.046875 109.964844 79.820312 109.609375 L 79.894531 109.578125 L 79.996094 109.539062 L 80.273438 109.433594 C 80.476562 109.359375 80.679688 109.300781 80.886719 109.246094 C 81.097656 109.1875 81.246094 109.15625 81.441406 109.121094 C 81.480469 109.121094 81.746094 109.054688 81.5625 109.101562 C 81.660156 109.082031 81.757812 109.074219 81.859375 109.074219 C 82.195312 109.046875 82.535156 109.046875 82.871094 109.074219 L 83.125 109.097656 L 83.144531 109.097656 L 83.246094 109.113281 C 83.429688 109.144531 83.609375 109.179688 83.800781 109.226562 C 83.988281 109.273438 84.121094 109.316406 84.28125 109.371094 L 84.519531 109.457031 L 84.609375 109.492188 L 84.625 109.492188 L 84.65625 109.507812 C 84.964844 109.648438 85.261719 109.8125 85.542969 110 L 85.699219 110.113281 L 85.832031 110.21875 C 85.964844 110.332031 86.097656 110.457031 86.21875 110.582031 C 86.273438 110.640625 86.324219 110.703125 86.378906 110.761719 L 86.4375 110.835938 C 86.53125 110.964844 86.621094 111.09375 86.703125 111.234375 C 86.773438 111.359375 86.835938 111.492188 86.894531 111.625 C 86.894531 111.664062 86.945312 111.753906 86.957031 111.78125 C 86.988281 111.875 87.015625 111.96875 87.042969 112.058594 C 87.15625 112.480469 87.199219 112.917969 87.292969 113.34375 C 87.441406 114.246094 87.902344 114.933594 88.675781 115.410156 C 90.023438 116.167969 91.722656 115.804688 93.136719 115.429688 C 93.464844 115.324219 93.796875 115.253906 94.140625 115.21875 C 93.949219 115.230469 94.214844 115.21875 94.257812 115.21875 Z M 70.242188 116.464844 Z M 88.746094 113.542969 C 88.734375 113.519531 88.746094 113.527344 88.746094 113.542969 Z M 89.476562 114.3125 L 89.539062 114.335938 C 89.539062 114.335938 89.503906 114.324219 89.476562 114.3125 Z M 90.050781 114.472656 L 90.105469 114.472656 C 90.085938 114.480469 90.070312 114.484375 90.050781 114.488281 Z M 90.050781 114.472656 " fill-opacity="1" fill-rule="nonzero"/><path fill="rgb(19.999695%, 41.958618%, 52.938843%)" d="M 30.996094 92 L 30.972656 92.027344 C 30.949219 92.046875 30.914062 92.125 30.996094 92 Z M 30.996094 92 " fill-opacity="1" fill-rule="nonzero"/><path fill="rgb(19.999695%, 41.958618%, 52.938843%)" d="M 31.449219 89.3125 C 31.335938 89.441406 31.421875 89.351562 31.449219 89.3125 Z M 31.449219 89.3125 " fill-opacity="1" fill-rule="nonzero"/><path fill="rgb(19.999695%, 41.958618%, 52.938843%)" d="M 29.640625 94.691406 C 29.679688 94.539062 29.648438 94.640625 29.640625 94.691406 Z M 29.640625 94.691406 " fill-opacity="1" fill-rule="nonzero"/><path fill="rgb(19.999695%, 41.958618%, 52.938843%)" d="M 77.214844 18.699219 L 77.234375 18.65625 Z M 77.214844 18.699219 " fill-opacity="1" fill-rule="nonzero"/><g clip-path="url(#id10)"><path fill="rgb(19.999695%, 41.958618%, 52.938843%)" d="M 80.738281 41.070312 C 82.746094 44.339844 84.871094 47.53125 86.871094 50.804688 C 87.15625 51.273438 87.4375 51.742188 87.722656 52.214844 C 87.785156 52.316406 87.867188 52.394531 87.96875 52.453125 C 88.074219 52.511719 88.183594 52.539062 88.300781 52.539062 C 88.417969 52.539062 88.53125 52.511719 88.632812 52.453125 C 88.734375 52.394531 88.816406 52.316406 88.878906 52.214844 C 90.855469 49.316406 92.648438 46.3125 94.257812 43.195312 C 95.03125 41.746094 95.785156 40.285156 96.550781 38.835938 C 97.347656 37.335938 98.128906 35.839844 98.765625 34.269531 C 100.070312 31.101562 100.867188 27.808594 101.15625 24.394531 C 101.308594 22.769531 101.308594 21.144531 101.15625 19.519531 C 101.042969 18.144531 100.691406 16.832031 100.109375 15.582031 C 99.519531 14.375 98.667969 13.390625 97.5625 12.628906 C 96.261719 11.761719 94.832031 11.253906 93.277344 11.105469 C 91.6875 10.929688 90.1875 11.210938 88.773438 11.957031 C 88.085938 12.34375 87.453125 12.808594 86.875 13.34375 C 86.332031 13.824219 85.835938 14.351562 85.386719 14.921875 C 83.507812 17.304688 82.441406 20.324219 82.8125 23.375 C 83.171875 26.292969 84.71875 29.339844 87.433594 30.707031 C 88.710938 31.351562 90.285156 31.675781 91.65625 31.128906 C 93.226562 30.5 94.058594 29.027344 94.527344 27.472656 C 94.996094 25.921875 95.164062 24.089844 94.605469 22.488281 C 94.355469 21.734375 93.953125 21.078125 93.402344 20.507812 C 92.851562 19.9375 92.203125 19.519531 91.460938 19.242188 C 90.753906 18.996094 90.03125 18.945312 89.292969 19.097656 C 89.113281 19.148438 88.980469 19.253906 88.886719 19.417969 C 88.796875 19.578125 88.777344 19.75 88.828125 19.929688 C 88.878906 20.109375 88.988281 20.242188 89.148438 20.332031 C 89.308594 20.425781 89.476562 20.445312 89.65625 20.402344 C 89.683594 20.402344 89.832031 20.375 89.824219 20.375 L 90.019531 20.375 C 90.164062 20.371094 90.308594 20.378906 90.453125 20.394531 L 90.617188 20.421875 C 90.699219 20.4375 90.773438 20.453125 90.851562 20.476562 L 91.050781 20.539062 L 91.230469 20.605469 C 91.511719 20.730469 91.777344 20.886719 92.023438 21.070312 L 92.152344 21.175781 L 92.3125 21.320312 C 92.441406 21.441406 92.5625 21.570312 92.675781 21.707031 L 92.746094 21.796875 L 92.761719 21.8125 C 92.804688 21.875 92.84375 21.933594 92.882812 21.996094 C 92.980469 22.140625 93.070312 22.292969 93.144531 22.449219 C 93.210938 22.570312 93.265625 22.699219 93.308594 22.832031 C 93.375 23.023438 93.433594 23.214844 93.480469 23.414062 C 93.566406 23.75 93.613281 24.09375 93.621094 24.441406 C 93.632812 24.828125 93.617188 25.214844 93.574219 25.597656 C 93.574219 25.636719 93.574219 25.671875 93.574219 25.707031 C 93.570312 25.71875 93.570312 25.726562 93.574219 25.738281 C 93.554688 25.835938 93.542969 25.929688 93.523438 26.015625 C 93.488281 26.207031 93.449219 26.394531 93.402344 26.585938 C 93.3125 26.949219 93.203125 27.308594 93.070312 27.664062 C 93.042969 27.75 93.007812 27.835938 92.976562 27.917969 L 92.976562 27.933594 L 92.898438 28.046875 C 92.8125 28.222656 92.722656 28.390625 92.621094 28.558594 C 92.46875 28.847656 92.273438 29.101562 92.035156 29.324219 C 91.972656 29.382812 91.910156 29.441406 91.839844 29.5 L 91.824219 29.5 L 91.746094 29.554688 C 91.609375 29.652344 91.464844 29.734375 91.3125 29.808594 L 91.25 29.835938 L 91.230469 29.835938 L 91.011719 29.914062 C 90.859375 29.957031 90.703125 29.992188 90.542969 30.019531 L 90.453125 30.019531 C 90.375 30.019531 90.296875 30.019531 90.214844 30.019531 C 90.046875 30.023438 89.882812 30.015625 89.714844 30 L 89.578125 29.984375 L 89.390625 29.949219 C 89.226562 29.917969 89.070312 29.875 88.914062 29.832031 C 88.761719 29.789062 88.601562 29.726562 88.449219 29.667969 L 88.414062 29.710938 L 88.335938 29.675781 C 88.257812 29.640625 88.183594 29.605469 88.109375 29.566406 C 87.8125 29.417969 87.527344 29.246094 87.253906 29.050781 L 87.117188 28.945312 L 86.953125 28.8125 C 86.828125 28.703125 86.703125 28.589844 86.589844 28.472656 C 86.347656 28.234375 86.121094 27.976562 85.90625 27.710938 L 85.890625 27.6875 L 85.8125 27.582031 L 85.664062 27.375 C 85.566406 27.234375 85.476562 27.097656 85.386719 26.941406 C 85.207031 26.644531 85.046875 26.34375 84.902344 26.03125 L 84.8125 25.824219 L 84.753906 25.6875 C 84.6875 25.519531 84.625 25.347656 84.570312 25.171875 C 84.457031 24.84375 84.367188 24.511719 84.292969 24.175781 C 84.257812 24.015625 84.226562 23.855469 84.199219 23.699219 C 84.183594 23.613281 84.171875 23.527344 84.160156 23.441406 C 84.160156 23.386719 84.160156 23.328125 84.136719 23.273438 C 84.101562 22.929688 84.082031 22.582031 84.078125 22.234375 C 84.078125 21.890625 84.09375 21.542969 84.125 21.199219 L 84.152344 20.976562 L 84.152344 20.957031 L 84.167969 20.832031 C 84.195312 20.660156 84.226562 20.488281 84.261719 20.316406 C 84.332031 19.976562 84.421875 19.636719 84.523438 19.304688 C 84.574219 19.148438 84.625 18.992188 84.683594 18.839844 C 84.710938 18.757812 84.742188 18.679688 84.777344 18.59375 C 84.789062 18.554688 84.804688 18.515625 84.824219 18.476562 L 84.824219 18.421875 C 85.097656 17.78125 85.429688 17.167969 85.820312 16.582031 C 85.90625 16.449219 86 16.304688 86.097656 16.179688 C 86.144531 16.105469 86.199219 16.039062 86.25 15.96875 L 86.28125 15.925781 L 86.371094 15.820312 C 86.589844 15.542969 86.816406 15.28125 87.0625 15.027344 C 87.304688 14.773438 87.539062 14.542969 87.792969 14.316406 C 87.921875 14.199219 88.070312 14.085938 88.191406 13.972656 L 88.394531 13.808594 L 88.429688 13.78125 L 88.519531 13.714844 C 88.804688 13.5 89.105469 13.304688 89.421875 13.132812 C 89.570312 13.054688 89.722656 12.976562 89.878906 12.910156 C 89.90625 12.910156 89.996094 12.863281 90.015625 12.855469 L 90.289062 12.753906 C 90.625 12.644531 90.964844 12.558594 91.3125 12.5 L 91.488281 12.476562 C 91.566406 12.464844 91.644531 12.457031 91.722656 12.449219 C 91.894531 12.433594 92.074219 12.425781 92.25 12.421875 C 93.640625 12.394531 94.949219 12.710938 96.179688 13.363281 C 96.457031 13.515625 96.722656 13.679688 96.980469 13.863281 L 97.136719 13.980469 L 97.222656 14.050781 C 97.347656 14.15625 97.464844 14.261719 97.578125 14.367188 C 97.785156 14.5625 97.976562 14.773438 98.15625 14.992188 C 98.175781 15.019531 98.199219 15.046875 98.21875 15.074219 C 98.253906 15.125 98.296875 15.175781 98.332031 15.226562 C 98.421875 15.355469 98.507812 15.484375 98.585938 15.613281 C 98.742188 15.863281 98.878906 16.121094 99.003906 16.386719 C 99.035156 16.453125 99.0625 16.523438 99.09375 16.589844 C 99.105469 16.609375 99.113281 16.632812 99.125 16.65625 C 99.183594 16.800781 99.238281 16.953125 99.289062 17.101562 C 99.488281 17.6875 99.632812 18.289062 99.730469 18.898438 C 99.730469 18.96875 99.75 19.039062 99.761719 19.109375 C 99.761719 19.132812 99.761719 19.15625 99.761719 19.183594 C 99.761719 19.195312 99.761719 19.210938 99.761719 19.226562 C 99.78125 19.386719 99.800781 19.546875 99.816406 19.710938 C 99.847656 20.070312 99.867188 20.433594 99.882812 20.792969 C 99.910156 21.59375 99.910156 22.398438 99.882812 23.199219 C 99.820312 24.773438 99.628906 26.328125 99.3125 27.871094 C 98.988281 29.449219 98.554688 30.996094 98.007812 32.511719 C 97.476562 33.988281 96.84375 35.417969 96.105469 36.800781 C 95.390625 38.15625 94.664062 39.515625 93.953125 40.875 C 92.425781 43.789062 90.871094 46.691406 89.097656 49.464844 C 88.84375 49.863281 88.582031 50.261719 88.316406 50.65625 C 86.464844 47.605469 84.519531 44.625 82.625 41.605469 C 81.765625 40.238281 80.925781 38.859375 80.132812 37.449219 C 79.765625 36.785156 79.40625 36.109375 79.070312 35.425781 C 78.90625 35.097656 78.75 34.765625 78.597656 34.429688 L 78.398438 33.980469 L 78.289062 33.730469 L 78.269531 33.679688 C 78.269531 33.664062 78.214844 33.554688 78.210938 33.539062 C 77.660156 32.207031 77.21875 30.835938 76.890625 29.433594 C 76.71875 28.710938 76.578125 27.980469 76.46875 27.246094 L 76.4375 27.015625 C 76.4375 27.015625 76.417969 26.863281 76.410156 26.832031 C 76.386719 26.628906 76.363281 26.425781 76.34375 26.226562 C 76.304688 25.835938 76.269531 25.441406 76.246094 25.042969 C 76.191406 24.242188 76.191406 23.4375 76.246094 22.632812 C 76.246094 22.441406 76.28125 22.257812 76.304688 22.078125 C 76.304688 22.042969 76.328125 21.910156 76.304688 22.050781 L 76.320312 21.929688 C 76.335938 21.8125 76.355469 21.699219 76.378906 21.578125 C 76.445312 21.1875 76.53125 20.804688 76.636719 20.421875 C 76.742188 20.039062 76.863281 19.660156 76.996094 19.289062 C 77.0625 19.097656 77.140625 18.917969 77.214844 18.734375 C 77.222656 18.71875 77.226562 18.703125 77.234375 18.6875 C 77.246094 18.660156 77.257812 18.632812 77.273438 18.601562 C 77.316406 18.5 77.359375 18.402344 77.40625 18.304688 C 77.746094 17.582031 78.140625 16.890625 78.589844 16.230469 C 78.703125 16.070312 78.816406 15.90625 78.933594 15.746094 L 79.007812 15.648438 L 79.066406 15.570312 C 79.089844 15.542969 79.121094 15.496094 79.121094 15.5 L 79.234375 15.363281 C 79.484375 15.050781 79.75 14.753906 80.023438 14.464844 C 80.300781 14.1875 80.574219 13.910156 80.878906 13.632812 C 81.027344 13.5 81.179688 13.371094 81.332031 13.246094 L 81.542969 13.078125 L 81.621094 13.011719 L 81.710938 12.941406 C 82.347656 12.464844 83.015625 12.042969 83.722656 11.679688 C 83.898438 11.589844 84.078125 11.503906 84.257812 11.417969 L 84.535156 11.300781 L 84.570312 11.300781 L 84.703125 11.246094 C 85.070312 11.09375 85.449219 10.96875 85.828125 10.851562 C 86.207031 10.734375 86.597656 10.644531 86.988281 10.574219 C 87.164062 10.523438 87.300781 10.417969 87.390625 10.253906 C 87.484375 10.09375 87.503906 9.921875 87.453125 9.742188 C 87.402344 9.566406 87.292969 9.433594 87.132812 9.339844 C 86.972656 9.25 86.804688 9.230469 86.625 9.273438 C 84.988281 9.625 83.460938 10.238281 82.035156 11.113281 C 80.609375 11.992188 79.375 13.082031 78.324219 14.382812 C 76.199219 16.980469 74.871094 20.242188 74.859375 23.621094 C 74.859375 26.773438 75.402344 29.824219 76.492188 32.78125 C 77.570312 35.675781 79.105469 38.417969 80.738281 41.070312 Z M 92.730469 21.769531 Z M 92.730469 21.769531 " fill-opacity="1" fill-rule="nonzero"/></g></svg>