<svg xmlns="http://www.w3.org/2000/svg" xmlns:xlink="http://www.w3.org/1999/xlink" width="500" zoomAndPan="magnify" viewBox="0 0 375 374.999991" height="500" preserveAspectRatio="xMidYMid meet" version="1.0"><defs><filter x="0%" y="0%" width="100%" xlink:type="simple" xlink:actuate="onLoad" height="100%" id="id1" xlink:show="other"><feColorMatrix values="0 0 0 0 1 0 0 0 0 1 0 0 0 0 1 0 0 0 1 0" color-interpolation-filters="sRGB"/></filter><mask id="id2"><g filter="url(#id1)"><rect x="-37.5" width="450" fill="rgb(0%, 0%, 0%)" y="-37.499999" height="449.999989" fill-opacity="0.2471"/></g></mask><clipPath id="id3"><path d="M 7 82 L 279 82 L 279 292 L 7 292 Z M 7 82 " clip-rule="nonzero"/></clipPath><clipPath id="id4"><path d="M 330.71875 244.964844 L 50.160156 359.863281 L -49.96875 115.375 L 230.59375 0.476562 Z M 330.71875 244.964844 " clip-rule="nonzero"/></clipPath><clipPath id="id5"><path d="M 330.71875 244.964844 L 50.160156 359.863281 L -49.96875 115.375 L 230.59375 0.476562 Z M 330.71875 244.964844 " clip-rule="nonzero"/></clipPath><clipPath id="id6"><path d="M 330.71875 244.964844 L 50.160156 359.863281 L -49.96875 115.375 L 230.59375 0.476562 Z M 330.71875 244.964844 " clip-rule="nonzero"/></clipPath><clipPath id="id7"><rect x="0" width="331" y="0" height="351"/></clipPath><clipPath id="id8"><path d="M 35 28 L 368.960938 28 L 368.960938 361.648438 L 35 361.648438 Z M 35 28 " clip-rule="nonzero"/></clipPath></defs><g mask="url(#id2)"><g transform="matrix(1, 0, 0, 1, 0, 24)"><g clip-path="url(#id7)"><g clip-path="url(#id3)"><g clip-path="url(#id4)"><g clip-path="url(#id5)"><g clip-path="url(#id6)"><path fill="rgb(46.269226%, 79.998779%, 81.17981%)" d="M 108.980469 283.972656 C 57.640625 265.355469 -38.988281 141.671875 34.457031 93.238281 C 84.121094 60.460938 92.039062 112.945312 160.148438 154.050781 C 182.714844 167.640625 293.082031 153.566406 276.871094 223.5625 C 267.253906 265.039062 176.117188 308.277344 108.980469 283.972656 Z M 108.980469 283.972656 " fill-opacity="1" fill-rule="nonzero"/></g></g></g></g></g></g></g><g clip-path="url(#id8)"><path fill="rgb(19.999695%, 41.958618%, 52.938843%)" d="M 301.234375 61.515625 C 301.015625 61.34375 300.773438 61.222656 300.507812 61.148438 C 300.242188 61.074219 299.972656 61.054688 299.699219 61.09375 C 299.425781 61.128906 299.167969 61.214844 298.929688 61.355469 C 298.691406 61.496094 298.488281 61.675781 298.324219 61.898438 C 298.160156 62.121094 298.042969 62.367188 297.980469 62.632812 C 297.914062 62.902344 297.902344 63.175781 297.945312 63.449219 C 297.988281 63.71875 298.085938 63.972656 298.230469 64.207031 C 298.378906 64.441406 298.566406 64.640625 298.792969 64.796875 C 339.617188 95.199219 363.375 141.976562 363.992188 193.136719 C 364.199219 210.105469 361.820312 226.703125 356.851562 242.929688 C 353.707031 246.941406 350.578125 250.960938 347.34375 254.894531 C 343.699219 259.429688 339.824219 263.761719 335.722656 267.882812 C 334.792969 268.796875 333.84375 269.683594 332.875 270.542969 C 332.40625 270.957031 331.933594 271.363281 331.453125 271.757812 L 330.789062 272.300781 L 330.5 272.53125 C 330.71875 272.351562 330.441406 272.53125 330.382812 272.613281 C 328.039062 274.390625 325.523438 275.929688 323.113281 277.613281 C 320.484375 279.34375 318.117188 281.382812 316.015625 283.722656 C 313.984375 286.085938 312.558594 288.773438 311.738281 291.78125 C 311.355469 293.214844 311.117188 294.675781 311.035156 296.160156 C 310.949219 297.640625 311.015625 299.121094 311.234375 300.589844 C 311.453125 302.058594 311.816406 303.492188 312.328125 304.886719 C 312.839844 306.28125 313.488281 307.609375 314.273438 308.871094 C 314.695312 309.515625 315.160156 310.125 315.644531 310.726562 C 311.914062 314.425781 308.019531 317.933594 303.949219 321.25 C 299.878906 324.566406 295.65625 327.675781 291.285156 330.582031 C 286.910156 333.484375 282.40625 336.167969 277.769531 338.628906 C 273.132812 341.09375 268.390625 343.324219 263.535156 345.320312 C 258.683594 347.320312 253.742188 349.074219 248.71875 350.589844 C 243.695312 352.101562 238.605469 353.367188 233.457031 354.382812 C 228.308594 355.398438 223.125 356.160156 217.898438 356.667969 C 212.675781 357.175781 207.441406 357.429688 202.195312 357.425781 L 201.914062 357.425781 C 196.726562 357.445312 191.550781 357.214844 186.382812 356.734375 C 181.214844 356.253906 176.085938 355.523438 170.988281 354.546875 C 165.890625 353.570312 160.855469 352.351562 155.875 350.886719 C 150.898438 349.425781 146 347.722656 141.1875 345.785156 C 136.371094 343.851562 131.664062 341.683594 127.054688 339.292969 C 122.449219 336.898438 117.972656 334.289062 113.617188 331.464844 C 109.261719 328.636719 105.054688 325.609375 100.992188 322.375 C 96.933594 319.144531 93.035156 315.722656 89.304688 312.113281 C 89.914062 311.042969 90.457031 309.941406 90.933594 308.804688 C 91.40625 307.667969 91.808594 306.503906 92.136719 305.316406 C 92.464844 304.128906 92.722656 302.925781 92.898438 301.707031 C 93.078125 300.488281 93.179688 299.265625 93.207031 298.03125 C 93.230469 296.800781 93.179688 295.570312 93.054688 294.347656 C 92.925781 293.121094 92.722656 291.90625 92.441406 290.707031 C 92.164062 289.507812 91.8125 288.332031 91.382812 287.175781 C 90.957031 286.019531 90.460938 284.894531 89.894531 283.800781 C 87.621094 279.453125 84.039062 276.183594 80.65625 272.75 C 79.8125 271.902344 79.042969 271.058594 78.300781 270.210938 L 77.785156 269.585938 L 77.734375 269.527344 C 77.65625 269.441406 77.589844 269.332031 77.523438 269.238281 C 77.191406 268.796875 76.878906 268.339844 76.59375 267.867188 C 76.316406 267.425781 76.0625 266.972656 75.832031 266.503906 L 75.65625 266.117188 C 75.554688 265.855469 75.460938 265.589844 75.367188 265.320312 C 75.207031 264.828125 75.082031 264.324219 74.988281 263.8125 C 74.988281 263.710938 74.9375 263.578125 74.929688 263.457031 L 74.929688 263.355469 C 74.929688 263.078125 74.929688 262.808594 74.878906 262.511719 C 74.878906 262.070312 74.878906 261.664062 74.9375 261.199219 C 74.9375 261.199219 74.9375 261.242188 74.9375 261.265625 C 74.964844 261.148438 74.984375 261.03125 74.996094 260.910156 C 74.996094 260.683594 75.082031 260.453125 75.140625 260.226562 C 75.238281 259.804688 75.359375 259.390625 75.503906 258.984375 C 75.578125 258.761719 75.664062 258.550781 75.738281 258.332031 L 75.867188 258.042969 C 76.671875 256.332031 77.652344 254.722656 78.808594 253.21875 C 78.882812 253.117188 78.96875 253.015625 79.035156 252.914062 L 79.441406 252.398438 L 80.421875 251.199219 C 81.046875 250.429688 81.679688 249.675781 82.296875 248.90625 C 83.625 247.324219 84.839844 245.660156 85.941406 243.914062 C 88.101562 240.316406 89.203125 236.019531 87.867188 231.914062 C 86.285156 227.101562 82.101562 223.640625 77.675781 221.488281 C 72.417969 219.058594 66.894531 217.707031 61.109375 217.4375 C 55.234375 217.074219 49.480469 217.742188 43.84375 219.441406 C 43.109375 219.660156 42.390625 219.90625 41.679688 220.160156 C 40.472656 212.242188 39.839844 204.277344 39.789062 196.265625 C 39.707031 186.816406 40.449219 177.429688 42.007812 168.109375 C 43.570312 158.789062 45.929688 149.671875 49.085938 140.765625 C 49.535156 139.53125 50.125 138.367188 50.855469 137.273438 C 51.585938 136.183594 52.4375 135.191406 53.40625 134.304688 C 54.375 133.417969 55.433594 132.65625 56.585938 132.023438 C 57.738281 131.390625 58.945312 130.902344 60.214844 130.5625 C 67.078125 128.640625 72.242188 128.625 74.734375 130.5625 C 76.109375 131.601562 76.777344 133.3125 76.777344 135.765625 C 76.777344 143.804688 73.09375 151.511719 69.171875 159.679688 C 65.25 167.84375 61.1875 176.390625 61.1875 185.359375 C 61.1875 190.234375 61.660156 195.417969 65.167969 196.875 C 69.984375 198.871094 76.710938 193.238281 95.8125 174.113281 C 106.863281 163.046875 117.554688 160.574219 126.140625 158.550781 C 135.953125 156.269531 144.429688 154.320312 147.3125 140.664062 C 149.921875 128.285156 145.4375 116.371094 141.480469 105.855469 C 137.660156 95.699219 134.0625 86.164062 137.304688 77.929688 C 140.882812 68.859375 144.828125 65.078125 148.207031 62.566406 C 149.082031 61.933594 149.902344 61.234375 150.664062 60.472656 C 151.429688 59.710938 152.128906 58.894531 152.761719 58.019531 C 153.398438 57.148438 153.957031 56.230469 154.445312 55.265625 C 154.9375 54.304688 155.34375 53.308594 155.675781 52.28125 C 156.007812 51.253906 156.253906 50.207031 156.417969 49.136719 C 156.585938 48.070312 156.664062 47 156.660156 45.917969 C 156.652344 44.839844 156.5625 43.765625 156.386719 42.699219 C 156.210938 41.636719 155.953125 40.589844 155.609375 39.566406 C 169.542969 35.429688 183.777344 33.203125 198.308594 32.890625 L 198.355469 32.890625 C 200.046875 32.890625 201.652344 32.839844 203.300781 32.890625 C 203.574219 32.890625 203.832031 32.839844 204.082031 32.734375 C 204.335938 32.628906 204.554688 32.480469 204.746094 32.289062 C 204.9375 32.097656 205.085938 31.875 205.191406 31.625 C 205.292969 31.375 205.347656 31.113281 205.347656 30.84375 C 205.347656 30.570312 205.292969 30.308594 205.191406 30.058594 C 205.085938 29.808594 204.9375 29.585938 204.746094 29.394531 C 204.554688 29.203125 204.335938 29.054688 204.082031 28.949219 C 203.832031 28.847656 203.574219 28.792969 203.300781 28.792969 L 201.492188 28.792969 C 195.820312 28.796875 190.164062 29.089844 184.523438 29.675781 C 178.878906 30.257812 173.28125 31.128906 167.730469 32.285156 C 162.175781 33.445312 156.695312 34.882812 151.289062 36.601562 C 145.882812 38.320312 140.582031 40.3125 135.378906 42.574219 C 130.175781 44.839844 125.101562 47.363281 120.160156 50.144531 C 115.214844 52.929688 110.425781 55.957031 105.789062 59.230469 C 101.15625 62.507812 96.703125 66.007812 92.425781 69.742188 C 88.148438 73.472656 84.074219 77.410156 80.203125 81.5625 C 80.011719 81.757812 79.867188 81.984375 79.769531 82.242188 C 79.671875 82.496094 79.628906 82.761719 79.636719 83.035156 C 79.644531 83.308594 79.703125 83.570312 79.816406 83.820312 C 79.929688 84.070312 80.085938 84.289062 80.285156 84.472656 C 80.484375 84.660156 80.714844 84.800781 80.96875 84.898438 C 81.226562 84.992188 81.492188 85.035156 81.765625 85.023438 C 82.039062 85.011719 82.296875 84.949219 82.546875 84.832031 C 82.792969 84.714844 83.007812 84.554688 83.191406 84.351562 C 87.863281 79.34375 92.828125 74.648438 98.089844 70.269531 C 103.355469 65.890625 108.875 61.859375 114.648438 58.179688 C 120.421875 54.5 126.402344 51.203125 132.59375 48.28125 C 138.785156 45.363281 145.136719 42.847656 151.648438 40.734375 C 151.925781 41.558594 152.140625 42.394531 152.285156 43.253906 C 152.429688 44.109375 152.507812 44.972656 152.515625 45.839844 C 152.523438 46.710938 152.460938 47.574219 152.332031 48.433594 C 152.203125 49.292969 152.003906 50.136719 151.738281 50.964844 C 151.476562 51.792969 151.148438 52.59375 150.753906 53.367188 C 150.363281 54.144531 149.910156 54.882812 149.398438 55.585938 C 148.890625 56.289062 148.328125 56.945312 147.710938 57.558594 C 147.097656 58.171875 146.4375 58.730469 145.730469 59.238281 C 141.886719 62.089844 137.425781 66.355469 133.460938 76.390625 C 129.640625 86.085938 133.511719 96.378906 137.609375 107.257812 C 141.558594 117.734375 145.640625 128.566406 143.273438 139.777344 C 140.933594 150.84375 135 152.230469 125.179688 154.515625 C 116.085938 156.640625 104.761719 159.273438 92.886719 171.167969 C 83.675781 180.382812 69.773438 194.292969 66.6875 193.042969 C 66.441406 192.941406 65.234375 192.09375 65.234375 185.316406 C 65.234375 177.277344 68.917969 169.570312 72.839844 161.402344 C 76.761719 153.238281 80.835938 144.691406 80.835938 135.722656 C 80.835938 131.949219 79.601562 129.097656 77.175781 127.261719 C 73.535156 124.496094 67.441406 124.273438 59.074219 126.617188 C 57.492188 127.054688 55.988281 127.671875 54.554688 128.46875 C 53.125 129.269531 51.804688 130.226562 50.601562 131.339844 C 49.402344 132.453125 48.347656 133.695312 47.441406 135.0625 C 46.535156 136.429688 45.804688 137.886719 45.246094 139.429688 C 44.132812 142.554688 43.113281 145.707031 42.1875 148.894531 C 41.261719 152.078125 40.429688 155.289062 39.695312 158.527344 C 38.960938 161.761719 38.324219 165.015625 37.785156 168.289062 C 37.246094 171.5625 36.804688 174.847656 36.464844 178.148438 C 36.121094 181.449219 35.878906 184.757812 35.730469 188.070312 C 35.585938 191.386719 35.542969 194.699219 35.59375 198.019531 C 35.648438 201.335938 35.800781 204.648438 36.054688 207.957031 C 36.304688 211.265625 36.65625 214.5625 37.105469 217.847656 C 37.550781 221.136719 38.097656 224.40625 38.742188 227.660156 C 39.386719 230.914062 40.128906 234.148438 40.96875 237.359375 C 41.804688 240.566406 42.738281 243.75 43.765625 246.902344 C 44.796875 250.058594 45.917969 253.175781 47.132812 256.265625 C 48.347656 259.351562 49.652344 262.398438 51.050781 265.40625 C 52.445312 268.414062 53.933594 271.378906 55.507812 274.296875 C 57.082031 277.21875 58.742188 280.085938 60.488281 282.90625 C 62.234375 285.726562 64.0625 288.492188 65.972656 291.203125 C 67.886719 293.910156 69.875 296.5625 71.945312 299.152344 C 74.015625 301.742188 76.164062 304.269531 78.382812 306.730469 C 80.605469 309.195312 82.898438 311.585938 85.261719 313.910156 C 87.625 316.234375 90.058594 318.488281 92.558594 320.664062 C 95.054688 322.84375 97.617188 324.945312 100.242188 326.972656 C 102.867188 328.996094 105.550781 330.941406 108.292969 332.804688 C 111.03125 334.667969 113.828125 336.449219 116.675781 338.148438 C 119.523438 339.84375 122.417969 341.453125 125.363281 342.976562 C 128.304688 344.5 131.292969 345.933594 134.320312 347.277344 C 137.351562 348.621094 140.417969 349.871094 143.523438 351.03125 C 146.628906 352.191406 149.765625 353.257812 152.933594 354.230469 C 156.101562 355.203125 159.296875 356.078125 162.515625 356.859375 C 165.738281 357.636719 168.976562 358.320312 172.238281 358.90625 C 175.5 359.492188 178.777344 359.980469 182.066406 360.371094 C 185.359375 360.761719 188.65625 361.050781 191.964844 361.242188 C 195.273438 361.433594 198.585938 361.527344 201.898438 361.519531 L 202.195312 361.519531 C 204.933594 361.515625 207.667969 361.441406 210.402344 361.300781 C 213.136719 361.160156 215.867188 360.953125 218.589844 360.679688 C 221.316406 360.402344 224.03125 360.0625 226.738281 359.652344 C 229.445312 359.242188 232.140625 358.765625 234.824219 358.222656 C 237.507812 357.679688 240.179688 357.070312 242.832031 356.394531 C 245.484375 355.71875 248.121094 354.980469 250.738281 354.175781 C 253.355469 353.367188 255.953125 352.5 258.527344 351.566406 C 261.101562 350.628906 263.648438 349.632812 266.175781 348.574219 C 268.699219 347.511719 271.195312 346.390625 273.667969 345.207031 C 276.136719 344.023438 278.574219 342.78125 280.984375 341.476562 C 283.390625 340.171875 285.765625 338.808594 288.109375 337.386719 C 290.449219 335.964844 292.753906 334.484375 295.019531 332.949219 C 297.289062 331.414062 299.519531 329.820312 301.707031 328.175781 C 303.898438 326.527344 306.042969 324.828125 308.148438 323.078125 C 310.253906 321.324219 312.316406 319.519531 314.332031 317.667969 C 316.347656 315.8125 318.320312 313.910156 320.242188 311.957031 C 322.164062 310.003906 324.039062 308.007812 325.859375 305.960938 C 327.683594 303.917969 329.457031 301.828125 331.179688 299.695312 C 332.898438 297.5625 334.566406 295.390625 336.179688 293.175781 C 337.792969 290.960938 339.351562 288.707031 340.855469 286.414062 C 342.355469 284.121094 343.800781 281.796875 345.1875 279.433594 C 346.574219 277.066406 347.902344 274.671875 349.171875 272.242188 C 350.441406 269.8125 351.648438 267.355469 352.796875 264.867188 C 353.945312 262.375 355.03125 259.859375 356.054688 257.316406 C 357.078125 254.773438 358.039062 252.207031 358.933594 249.617188 C 359.832031 247.027344 360.664062 244.417969 361.433594 241.785156 C 362.199219 239.15625 362.902344 236.503906 363.539062 233.839844 C 364.175781 231.171875 364.75 228.492188 365.253906 225.796875 C 365.757812 223.105469 366.195312 220.398438 366.566406 217.683594 C 366.9375 214.964844 367.242188 212.242188 367.480469 209.511719 C 367.71875 206.78125 367.886719 204.046875 367.988281 201.304688 C 368.089844 198.566406 368.125 195.824219 368.089844 193.085938 C 367.457031 140.640625 343.09375 92.679688 301.234375 61.515625 Z M 42.375 224.316406 C 44.542969 223.507812 46.761719 222.871094 49.023438 222.394531 C 49.691406 222.257812 50.367188 222.132812 51.046875 222.023438 L 52.109375 221.863281 L 52.167969 221.863281 L 52.914062 221.769531 C 54.273438 221.625 55.640625 221.53125 57.019531 221.5 C 58.398438 221.464844 59.886719 221.5 61.320312 221.589844 C 62.007812 221.632812 62.683594 221.691406 63.367188 221.769531 L 64.160156 221.863281 L 64.492188 221.914062 L 65.046875 221.996094 C 67.804688 222.421875 70.496094 223.101562 73.128906 224.027344 L 73.972656 224.347656 L 74.386719 224.519531 C 74.945312 224.746094 75.496094 225.007812 76.027344 225.28125 C 77.050781 225.792969 78.035156 226.375 78.976562 227.023438 C 79.195312 227.183594 79.441406 227.335938 79.652344 227.515625 L 80.007812 227.800781 C 80.472656 228.191406 80.917969 228.597656 81.34375 229.027344 C 81.695312 229.367188 82.023438 229.734375 82.324219 230.121094 C 82.273438 230.050781 82.238281 230.019531 82.324219 230.195312 L 82.578125 230.550781 C 82.738281 230.789062 82.898438 231.035156 83.042969 231.289062 C 83.191406 231.535156 83.332031 231.789062 83.457031 232.050781 C 83.503906 232.132812 83.542969 232.222656 83.582031 232.3125 C 83.582031 232.335938 83.582031 232.355469 83.582031 232.378906 C 83.839844 232.894531 84.007812 233.441406 84.082031 234.011719 C 84.152344 234.226562 84.195312 234.449219 84.214844 234.671875 L 84.214844 234.792969 C 84.222656 234.902344 84.222656 235.011719 84.214844 235.121094 C 84.25 235.582031 84.25 236.039062 84.214844 236.5 C 84.214844 236.6875 84.054688 237.472656 84.214844 236.769531 C 84.171875 236.964844 84.15625 237.160156 84.113281 237.347656 C 84.0625 237.800781 83.984375 238.253906 83.878906 238.699219 C 83.757812 239.074219 83.617188 239.429688 83.480469 239.792969 L 83.355469 240.070312 L 83.03125 240.714844 C 82.597656 241.539062 82.117188 242.339844 81.585938 243.109375 C 81.34375 243.472656 81.089844 243.828125 80.828125 244.183594 C 80.691406 244.371094 80.554688 244.554688 80.414062 244.734375 C 80.328125 244.828125 80.261719 244.9375 80.175781 245.039062 C 78.984375 246.550781 77.734375 248.023438 76.523438 249.53125 C 74.109375 252.558594 71.65625 255.902344 70.972656 259.8125 C 70.546875 262.082031 70.6875 264.316406 71.402344 266.511719 C 72.238281 268.796875 73.445312 270.859375 75.03125 272.699219 C 76.511719 274.4375 78.078125 276.097656 79.726562 277.675781 C 80.574219 278.519531 81.367188 279.300781 82.152344 280.136719 C 82.515625 280.527344 82.871094 280.914062 83.21875 281.3125 L 83.792969 282 L 83.988281 282.234375 L 84.132812 282.414062 C 84.835938 283.355469 85.472656 284.34375 86.042969 285.375 C 86.304688 285.847656 86.546875 286.339844 86.785156 286.828125 C 86.902344 287.09375 87.023438 287.347656 87.132812 287.609375 L 87.359375 288.191406 C 87.777344 289.296875 88.121094 290.425781 88.390625 291.578125 C 88.507812 292.109375 88.617188 292.652344 88.71875 293.191406 C 88.71875 293.453125 88.820312 293.734375 88.847656 294.039062 C 88.847656 294.25 88.890625 294.453125 88.914062 294.664062 C 89.027344 295.808594 89.074219 296.957031 89.050781 298.109375 C 89.050781 298.683594 89.007812 299.257812 88.957031 299.800781 C 88.957031 300.113281 88.898438 300.425781 88.863281 300.742188 C 88.863281 300.742188 88.863281 300.960938 88.863281 301.019531 C 88.863281 301.078125 88.863281 301.199219 88.820312 301.28125 C 88.644531 302.425781 88.394531 303.554688 88.070312 304.667969 C 87.910156 305.214844 87.730469 305.757812 87.539062 306.300781 L 87.199219 307.144531 L 86.972656 307.660156 C 86.742188 308.144531 86.507812 308.609375 86.253906 309.074219 C 80.570312 303.320312 75.351562 297.167969 70.597656 290.625 C 65.84375 284.082031 61.605469 277.214844 57.886719 270.03125 C 54.167969 262.84375 51.007812 255.421875 48.40625 247.757812 C 45.808594 240.097656 43.796875 232.28125 42.375 224.316406 Z M 315.253906 294.894531 Z M 316.410156 304.160156 L 316.472656 304.304688 C 316.441406 304.253906 316.421875 304.199219 316.410156 304.140625 Z M 318.542969 307.832031 L 318.269531 307.457031 C 318.074219 307.1875 317.886719 306.90625 317.714844 306.613281 C 317.351562 306.046875 317.023438 305.457031 316.734375 304.851562 L 316.503906 304.363281 C 316.371094 304.023438 316.242188 303.683594 316.125 303.347656 C 315.90625 302.710938 315.71875 302.0625 315.566406 301.410156 C 315.5 301.105469 315.441406 300.800781 315.378906 300.496094 C 315.378906 300.316406 315.320312 300.148438 315.296875 299.96875 C 315.269531 299.792969 315.296875 299.835938 315.296875 299.808594 C 315.21875 299.140625 315.179688 298.464844 315.160156 297.789062 C 315.144531 297.109375 315.160156 296.441406 315.230469 295.773438 C 315.230469 295.597656 315.230469 295.410156 315.289062 295.230469 L 315.289062 295.15625 C 315.386719 294.808594 315.449219 294.453125 315.464844 294.089844 C 315.601562 293.429688 315.769531 292.777344 315.964844 292.136719 C 316.058594 291.847656 316.160156 291.550781 316.269531 291.289062 C 316.378906 291.027344 316.402344 290.949219 316.460938 290.78125 C 316.523438 290.613281 316.402344 290.90625 316.402344 290.90625 C 316.433594 290.808594 316.476562 290.71875 316.53125 290.628906 C 316.804688 290.015625 317.117188 289.421875 317.460938 288.84375 C 317.628906 288.554688 317.816406 288.269531 318 287.996094 L 318.289062 287.589844 L 318.492188 287.3125 C 319.394531 286.175781 320.390625 285.128906 321.484375 284.171875 C 322.03125 283.691406 322.597656 283.226562 323.171875 282.769531 L 323.292969 282.675781 L 323.765625 282.320312 L 324.660156 281.667969 C 327.078125 279.976562 329.59375 278.394531 331.988281 276.652344 C 334.027344 275.140625 335.960938 273.503906 337.792969 271.742188 C 341.820312 267.816406 345.609375 263.675781 349.160156 259.3125 C 350.402344 257.824219 351.621094 256.308594 352.835938 254.804688 C 348.914062 264.679688 344.070312 274.078125 338.296875 283 C 332.527344 291.921875 325.941406 300.191406 318.542969 307.8125 Z M 318.542969 307.832031 " fill-opacity="1" fill-rule="nonzero"/></g><path fill="rgb(19.999695%, 41.958618%, 52.938843%)" d="M 196.101562 158.917969 C 196.6875 160.734375 197.582031 162.382812 198.789062 163.863281 C 199.996094 165.34375 201.429688 166.554688 203.089844 167.496094 C 204.960938 168.488281 206.949219 169.082031 209.058594 169.273438 C 211.167969 169.464844 213.234375 169.238281 215.25 168.597656 C 219.199219 167.386719 222.71875 165.414062 225.808594 162.671875 C 226.5 163.410156 227.21875 164.136719 227.960938 164.832031 C 229.496094 166.34375 231.203125 167.613281 233.09375 168.644531 C 234.980469 169.675781 236.976562 170.425781 239.074219 170.898438 C 243.773438 171.828125 248.539062 171.339844 253.273438 171.007812 C 257.554688 170.636719 261.816406 170.816406 266.050781 171.542969 C 274.230469 173.105469 281.855469 176.949219 287.3125 183.3125 C 288.613281 184.800781 289.753906 186.40625 290.738281 188.121094 C 291.71875 189.835938 292.527344 191.632812 293.15625 193.507812 C 293.785156 195.382812 294.222656 197.300781 294.472656 199.265625 C 294.722656 201.226562 294.78125 203.195312 294.640625 205.167969 C 294.472656 206.992188 294.113281 208.777344 293.566406 210.523438 C 293.058594 212.226562 292.378906 213.855469 291.523438 215.414062 C 289.769531 218.695312 287.539062 221.609375 284.828125 224.15625 C 282.097656 226.800781 279.074219 229.058594 275.761719 230.925781 C 272.234375 232.9375 268.523438 234.527344 264.632812 235.695312 C 255.453125 238.546875 245.863281 239.597656 236.34375 240.714844 C 227.4375 241.753906 218.496094 242.890625 209.894531 245.527344 C 201.6875 248.066406 193.792969 251.941406 187.566406 257.949219 C 181.066406 264.210938 176.839844 272.4375 170.191406 278.554688 C 167.285156 281.371094 163.902344 283.386719 160.046875 284.605469 C 158.167969 285.171875 156.253906 285.363281 154.300781 285.171875 C 154.132812 285.167969 153.960938 285.148438 153.792969 285.121094 L 153.101562 284.984375 C 152.605469 284.875 152.117188 284.730469 151.640625 284.554688 C 150.890625 284.238281 150.21875 283.808594 149.621094 283.257812 C 149.324219 282.988281 149.070312 282.683594 148.867188 282.335938 C 148.660156 282.003906 148.476562 281.65625 148.316406 281.296875 C 148.140625 280.832031 148 280.355469 147.894531 279.867188 C 147.800781 279.476562 147.738281 279.082031 147.710938 278.679688 C 147.621094 277.691406 147.621094 276.703125 147.710938 275.710938 C 147.710938 275.5 147.75 275.289062 147.777344 275.078125 C 147.777344 275.015625 147.777344 274.789062 147.835938 274.722656 C 147.902344 274.289062 147.988281 273.875 148.089844 273.433594 C 148.277344 272.574219 148.515625 271.730469 148.800781 270.898438 C 148.941406 270.492188 149.09375 270.050781 149.257812 269.6875 C 149.257812 269.644531 149.257812 269.601562 149.257812 269.558594 L 149.316406 269.441406 C 149.40625 269.230469 149.5 269.007812 149.601562 268.796875 C 150.347656 267.214844 151.210938 265.695312 152.1875 264.246094 C 152.679688 263.5 153.195312 262.773438 153.734375 262.0625 C 154.183594 261.453125 154.582031 260.921875 155.214844 260.167969 C 156.371094 258.738281 157.582031 257.351562 158.804688 255.9375 C 161.265625 253.144531 163.785156 250.394531 166.082031 247.476562 C 168.628906 244.429688 170.707031 241.09375 172.316406 237.464844 C 173.929688 233.832031 175.007812 230.050781 175.554688 226.117188 C 176.832031 217.9375 176.453125 209.644531 176.128906 201.402344 C 175.96875 197.289062 175.828125 193.175781 175.910156 189.066406 C 175.960938 187.042969 176.054688 185.027344 176.25 183.015625 C 176.421875 181.136719 176.703125 179.273438 177.09375 177.429688 C 177.800781 173.726562 179.015625 170.199219 180.738281 166.84375 C 180.867188 166.609375 180.945312 166.355469 180.980469 166.085938 C 181.011719 165.820312 180.996094 165.554688 180.925781 165.292969 C 180.859375 165.03125 180.742188 164.792969 180.585938 164.574219 C 180.425781 164.359375 180.230469 164.179688 180 164.035156 C 179.765625 163.902344 179.515625 163.816406 179.246094 163.78125 C 178.980469 163.746094 178.714844 163.765625 178.453125 163.832031 C 178.191406 163.902344 177.953125 164.019531 177.738281 164.179688 C 177.519531 164.34375 177.34375 164.539062 177.203125 164.773438 C 173.242188 172.335938 172.015625 180.847656 171.847656 189.308594 C 171.675781 197.773438 172.488281 206.234375 172.386719 214.695312 C 172.40625 218.777344 172.070312 222.832031 171.382812 226.855469 C 170.671875 230.789062 169.390625 234.527344 167.542969 238.074219 C 163.976562 244.757812 158.613281 249.878906 153.652344 255.726562 C 148.691406 261.570312 144.277344 268.035156 143.601562 275.871094 C 143.222656 280.363281 144.546875 285.238281 148.671875 287.617188 C 152.59375 289.875 157.714844 289.648438 161.898438 288.277344 C 170.875 285.339844 176.824219 277.785156 182.285156 270.507812 C 184.964844 266.699219 187.980469 263.175781 191.335938 259.949219 C 194.5 257.132812 197.992188 254.808594 201.8125 252.984375 C 209.421875 249.234375 218.175781 247.273438 226.6875 245.996094 C 236.523438 244.523438 246.476562 243.871094 256.265625 241.949219 C 265.113281 240.207031 273.835938 237.347656 281.324219 232.203125 C 288.082031 227.589844 293.730469 221.40625 296.746094 213.738281 C 299.941406 205.625 299.222656 196.613281 295.621094 188.769531 C 294.679688 186.785156 293.570312 184.898438 292.292969 183.109375 C 291.015625 181.324219 289.589844 179.664062 288.019531 178.128906 C 286.449219 176.59375 284.753906 175.210938 282.933594 173.980469 C 281.117188 172.75 279.203125 171.6875 277.199219 170.796875 C 272.953125 168.886719 268.523438 167.648438 263.90625 167.074219 C 259.296875 166.480469 254.742188 166.792969 250.128906 167.125 C 247.710938 167.332031 245.292969 167.382812 242.871094 167.269531 C 241.777344 167.210938 240.699219 167.0625 239.632812 166.820312 C 239.117188 166.710938 238.609375 166.574219 238.101562 166.414062 L 237.257812 166.117188 L 236.691406 165.890625 C 233.660156 164.433594 231.042969 162.433594 228.839844 159.890625 C 231.425781 157.351562 233.851562 154.644531 236.328125 152.097656 C 239.15625 148.988281 242.425781 146.453125 246.132812 144.480469 C 246.363281 144.339844 246.558594 144.164062 246.722656 143.949219 C 246.882812 143.730469 247 143.492188 247.070312 143.230469 C 247.136719 142.96875 247.15625 142.703125 247.121094 142.433594 C 247.085938 142.167969 247 141.914062 246.867188 141.679688 C 246.726562 141.449219 246.546875 141.253906 246.328125 141.09375 C 246.113281 140.929688 245.875 140.816406 245.613281 140.746094 C 245.351562 140.679688 245.085938 140.660156 244.816406 140.695312 C 244.550781 140.730469 244.296875 140.8125 244.0625 140.945312 C 236.707031 144.597656 231.882812 151.335938 226.128906 156.9375 C 223.96875 154.308594 221.566406 151.929688 218.917969 149.792969 C 215.839844 147.515625 212.402344 146.152344 208.601562 145.699219 C 207.714844 145.566406 206.828125 145.53125 205.9375 145.59375 C 205.042969 145.65625 204.167969 145.816406 203.3125 146.070312 C 202.457031 146.328125 201.636719 146.671875 200.855469 147.109375 C 200.078125 147.546875 199.351562 148.0625 198.6875 148.660156 C 198.023438 149.3125 197.457031 150.046875 196.992188 150.855469 C 196.527344 151.664062 196.183594 152.519531 195.953125 153.425781 C 195.726562 154.328125 195.625 155.25 195.648438 156.179688 C 195.675781 157.113281 195.824219 158.023438 196.101562 158.917969 Z M 201.679688 160.929688 C 201.507812 160.726562 201.644531 160.894531 201.679688 160.929688 Z M 200.125 153.59375 Z M 199.761719 154.964844 C 199.761719 155.082031 199.761719 155.089844 199.761719 154.964844 Z M 199.761719 155.175781 C 199.765625 155.101562 199.765625 155.023438 199.761719 154.949219 C 199.835938 154.59375 199.914062 154.246094 200.023438 153.898438 C 200.023438 153.796875 200.097656 153.695312 200.132812 153.585938 C 200.164062 153.476562 200.308594 153.222656 200.410156 153.035156 L 200.707031 152.542969 L 200.902344 152.273438 C 201.140625 151.972656 201.402344 151.691406 201.6875 151.429688 C 201.78125 151.34375 201.882812 151.25 201.992188 151.164062 L 202.226562 150.988281 C 202.5625 150.765625 202.914062 150.5625 203.277344 150.386719 C 203.351562 150.386719 203.503906 150.285156 203.546875 150.269531 L 203.910156 150.140625 C 204.300781 150.015625 204.699219 149.910156 205.101562 149.828125 L 205.488281 149.761719 L 205.792969 149.761719 C 206.222656 149.722656 206.648438 149.707031 207.078125 149.71875 C 207.449219 149.71875 207.824219 149.71875 208.195312 149.777344 L 208.53125 149.777344 L 209.167969 149.886719 C 210 150.050781 210.820312 150.265625 211.625 150.539062 C 211.980469 150.65625 212.320312 150.785156 212.664062 150.929688 L 213.078125 151.105469 L 213.714844 151.402344 C 214.480469 151.792969 215.226562 152.222656 215.945312 152.695312 C 216.25 152.898438 216.542969 153.113281 216.839844 153.332031 L 217.167969 153.59375 L 217.675781 154.035156 C 218.410156 154.695312 219.121094 155.386719 219.804688 156.105469 C 220.921875 157.257812 221.996094 158.460938 223.058594 159.660156 C 220.527344 161.859375 217.675781 163.492188 214.5 164.558594 C 212.609375 165.15625 210.679688 165.367188 208.710938 165.195312 L 208.480469 165.195312 L 207.914062 165.085938 C 207.46875 164.984375 207.035156 164.855469 206.605469 164.695312 L 206.285156 164.578125 L 205.84375 164.375 C 205.433594 164.171875 205.03125 163.945312 204.644531 163.695312 C 204.332031 163.503906 204.027344 163.292969 203.730469 163.070312 C 203.671875 163.011719 203.445312 162.824219 203.402344 162.792969 C 203.226562 162.640625 203.054688 162.488281 202.894531 162.328125 C 202.597656 162.058594 202.316406 161.777344 202.050781 161.480469 C 201.90625 161.320312 201.773438 161.148438 201.636719 160.980469 L 201.410156 160.675781 C 201.195312 160.355469 200.984375 160.035156 200.800781 159.703125 C 200.691406 159.507812 200.589844 159.3125 200.488281 159.121094 C 200.488281 159.050781 200.359375 158.832031 200.316406 158.753906 C 200.042969 158.070312 199.847656 157.367188 199.726562 156.640625 C 199.726562 156.574219 199.726562 156.453125 199.726562 156.378906 C 199.726562 156.300781 199.726562 156.023438 199.726562 155.84375 C 199.726562 155.667969 199.734375 155.378906 199.742188 155.175781 Z M 199.761719 155.175781 " fill-opacity="1" fill-rule="nonzero"/><path fill="rgb(19.999695%, 41.958618%, 52.938843%)" d="M 273.089844 323.765625 C 273.625 323.765625 274.15625 323.765625 274.679688 323.765625 C 275.117188 323.75 275.550781 323.777344 275.980469 323.847656 L 276.109375 323.847656 L 276.386719 323.898438 C 276.664062 323.960938 276.9375 324.027344 277.230469 324.101562 C 277.453125 324.160156 277.671875 324.230469 277.882812 324.3125 L 277.96875 324.3125 L 278.136719 324.390625 C 278.335938 324.484375 278.527344 324.585938 278.710938 324.703125 L 278.980469 324.882812 C 279.144531 325.019531 279.300781 325.164062 279.445312 325.320312 L 279.617188 325.507812 C 279.726562 325.675781 279.835938 325.835938 279.929688 326.015625 C 280.019531 326.191406 280.03125 326.203125 280.070312 326.292969 C 280.074219 326.3125 280.074219 326.332031 280.070312 326.355469 C 280.152344 326.613281 280.273438 326.847656 280.445312 327.0625 C 280.613281 327.273438 280.816406 327.445312 281.054688 327.578125 C 281.289062 327.710938 281.542969 327.796875 281.808594 327.832031 C 282.078125 327.867188 282.34375 327.851562 282.605469 327.785156 C 282.867188 327.707031 283.105469 327.585938 283.320312 327.417969 C 283.535156 327.25 283.707031 327.046875 283.839844 326.808594 C 283.976562 326.570312 284.058594 326.316406 284.09375 326.046875 C 284.125 325.773438 284.105469 325.507812 284.035156 325.246094 C 283.621094 324.101562 282.984375 323.097656 282.125 322.238281 C 281.265625 321.378906 280.261719 320.746094 279.117188 320.335938 C 277.003906 319.601562 274.839844 319.355469 272.617188 319.601562 C 270.359375 319.878906 268.136719 320.320312 265.941406 320.921875 C 265.410156 321.039062 264.875 321.15625 264.335938 321.25 C 264.074219 321.300781 263.804688 321.351562 263.53125 321.386719 L 263.210938 321.4375 L 262.941406 321.4375 C 261.855469 321.609375 260.761719 321.667969 259.664062 321.625 L 259.316406 321.625 C 259.070312 321.582031 258.832031 321.523438 258.597656 321.460938 C 258.363281 321.402344 258.132812 321.328125 257.90625 321.242188 L 257.777344 321.191406 L 257.675781 321.191406 L 257.488281 321.082031 C 257.277344 320.972656 257.085938 320.835938 256.882812 320.71875 L 256.660156 320.53125 C 256.484375 320.363281 256.324219 320.175781 256.15625 320.007812 L 255.867188 319.558594 C 255.773438 319.398438 255.691406 319.230469 255.605469 319.058594 L 255.605469 319.007812 C 255.480469 318.699219 255.375 318.382812 255.292969 318.0625 C 255.117188 317.425781 254.988281 316.765625 254.871094 316.113281 C 254.695312 314.839844 254.414062 313.585938 254.023438 312.359375 C 253.621094 311.285156 253.113281 310.265625 252.496094 309.300781 C 251.882812 308.332031 251.171875 307.4375 250.375 306.621094 C 249.574219 305.800781 248.699219 305.070312 247.746094 304.433594 C 246.796875 303.792969 245.789062 303.261719 244.730469 302.832031 C 242.535156 301.878906 240.25 301.300781 237.871094 301.097656 C 235.492188 300.890625 233.140625 301.070312 230.816406 301.628906 C 225.402344 302.957031 220.625 306.070312 216.453125 309.734375 C 212.445312 313.273438 209.117188 317.417969 205.582031 321.402344 C 203.847656 323.394531 201.988281 325.261719 200.003906 327.003906 L 199.296875 327.597656 L 198.914062 327.902344 L 198.832031 327.960938 C 198.289062 328.367188 197.730469 328.808594 197.140625 329.136719 C 196.023438 329.867188 194.855469 330.5 193.632812 331.03125 L 193.574219 331.03125 L 193.457031 331.074219 L 192.964844 331.261719 L 191.875 331.640625 C 191.175781 331.871094 190.464844 332.066406 189.753906 332.242188 C 188.285156 332.605469 186.796875 332.878906 185.308594 333.089844 C 182.414062 333.484375 179.546875 334.027344 176.707031 334.714844 C 171.949219 336.007812 167.078125 338.632812 164.511719 343.007812 C 163.867188 344.097656 163.402344 345.265625 163.117188 346.5 C 163.042969 346.761719 163.023438 347.027344 163.058594 347.296875 C 163.09375 347.566406 163.175781 347.820312 163.3125 348.054688 C 163.445312 348.292969 163.617188 348.492188 163.832031 348.660156 C 164.046875 348.828125 164.285156 348.945312 164.546875 349.019531 C 164.808594 349.089844 165.070312 349.109375 165.339844 349.078125 C 165.609375 349.042969 165.863281 348.960938 166.097656 348.828125 C 166.335938 348.691406 166.535156 348.519531 166.703125 348.304688 C 166.871094 348.089844 166.988281 347.855469 167.0625 347.59375 C 167.179688 347.109375 167.320312 346.636719 167.492188 346.171875 C 167.492188 346.222656 167.679688 345.738281 167.730469 345.636719 C 167.882812 345.351562 168.042969 345.066406 168.210938 344.792969 C 168.355469 344.5625 168.507812 344.34375 168.660156 344.121094 L 168.929688 343.792969 C 169.300781 343.363281 169.699219 342.957031 170.121094 342.574219 C 170.324219 342.386719 170.535156 342.210938 170.746094 342.03125 L 170.917969 341.90625 L 171.128906 341.746094 C 171.609375 341.40625 172.109375 341.085938 172.613281 340.789062 C 173.121094 340.492188 173.613281 340.238281 174.121094 339.992188 L 174.820312 339.679688 L 174.964844 339.613281 L 175.523438 339.402344 C 180.726562 337.445312 186.40625 337.40625 191.738281 335.933594 C 194.484375 335.183594 197.046875 334.027344 199.421875 332.460938 C 201.652344 330.945312 203.710938 329.21875 205.589844 327.285156 C 209.242188 323.605469 212.351562 319.457031 215.996094 315.742188 C 216.925781 314.777344 217.878906 313.847656 218.875 312.949219 C 219.324219 312.542969 219.78125 312.15625 220.238281 311.765625 L 220.972656 311.15625 L 221.34375 310.859375 L 221.4375 310.785156 L 221.53125 310.726562 C 223.59375 309.140625 225.804688 307.808594 228.171875 306.730469 L 228.402344 306.636719 L 228.714844 306.511719 L 229.558594 306.191406 C 230.175781 305.96875 230.800781 305.785156 231.433594 305.613281 C 232.070312 305.445312 232.535156 305.34375 233.125 305.242188 C 233.242188 305.242188 234.054688 305.039062 233.488281 305.183594 C 233.789062 305.121094 234.09375 305.089844 234.402344 305.089844 C 235.433594 305.007812 236.464844 305.007812 237.496094 305.089844 L 238.265625 305.164062 L 238.332031 305.164062 L 238.636719 305.207031 C 239.203125 305.308594 239.75 305.417969 240.324219 305.5625 C 240.902344 305.707031 241.316406 305.835938 241.796875 306.003906 L 242.523438 306.265625 L 242.800781 306.375 L 242.851562 306.375 L 242.945312 306.417969 C 243.886719 306.847656 244.789062 307.34375 245.648438 307.914062 L 246.125 308.261719 L 246.539062 308.585938 C 246.941406 308.941406 247.339844 309.3125 247.710938 309.703125 C 247.882812 309.878906 248.042969 310.066406 248.203125 310.25 L 248.386719 310.472656 C 248.667969 310.867188 248.945312 311.265625 249.191406 311.691406 C 249.410156 312.078125 249.605469 312.476562 249.78125 312.882812 C 249.78125 313 249.933594 313.273438 249.96875 313.355469 C 250.0625 313.644531 250.15625 313.933594 250.230469 314.203125 C 250.578125 315.496094 250.710938 316.835938 251 318.136719 C 251.214844 319.445312 251.691406 320.652344 252.429688 321.753906 C 253.167969 322.855469 254.097656 323.753906 255.226562 324.449219 C 259.332031 326.757812 264.523438 325.652344 268.839844 324.5 C 269.839844 324.183594 270.863281 323.96875 271.90625 323.855469 C 271.324219 323.898438 272.136719 323.855469 272.269531 323.855469 Z M 198.914062 327.664062 Z M 255.4375 318.746094 C 255.394531 318.671875 255.4375 318.695312 255.4375 318.746094 Z M 257.667969 321.089844 L 257.855469 321.167969 C 257.855469 321.167969 257.742188 321.132812 257.667969 321.089844 Z M 259.417969 321.582031 L 259.585938 321.582031 C 259.53125 321.605469 259.476562 321.621094 259.417969 321.625 Z M 259.417969 321.582031 " fill-opacity="1" fill-rule="nonzero"/><path fill="rgb(19.999695%, 41.958618%, 52.938843%)" d="M 79.050781 252.941406 L 78.984375 253.027344 C 78.910156 253.085938 78.808594 253.320312 79.050781 252.941406 Z M 79.050781 252.941406 " fill-opacity="1" fill-rule="nonzero"/><path fill="rgb(19.999695%, 41.958618%, 52.938843%)" d="M 80.4375 244.742188 C 80.089844 245.132812 80.355469 244.851562 80.4375 244.742188 Z M 80.4375 244.742188 " fill-opacity="1" fill-rule="nonzero"/><path fill="rgb(19.999695%, 41.958618%, 52.938843%)" d="M 74.917969 261.164062 C 75.039062 260.699219 74.9375 261.003906 74.917969 261.164062 Z M 74.917969 261.164062 " fill-opacity="1" fill-rule="nonzero"/><path fill="rgb(19.999695%, 41.958618%, 52.938843%)" d="M 220.210938 29.074219 L 220.269531 28.9375 Z M 220.210938 29.074219 " fill-opacity="1" fill-rule="nonzero"/><path fill="rgb(19.999695%, 41.958618%, 52.938843%)" d="M 230.980469 97.390625 C 237.105469 107.378906 243.605469 117.125 249.707031 127.125 C 250.574219 128.554688 251.441406 129.988281 252.308594 131.433594 C 252.402344 131.585938 252.511719 131.722656 252.640625 131.84375 C 252.769531 131.96875 252.910156 132.074219 253.0625 132.160156 C 253.21875 132.246094 253.382812 132.3125 253.550781 132.355469 C 253.722656 132.402344 253.898438 132.425781 254.074219 132.425781 C 254.253906 132.425781 254.425781 132.402344 254.597656 132.355469 C 254.769531 132.3125 254.933594 132.246094 255.089844 132.160156 C 255.242188 132.074219 255.382812 131.96875 255.511719 131.84375 C 255.640625 131.722656 255.75 131.585938 255.84375 131.433594 C 261.882812 122.585938 267.359375 113.402344 272.269531 103.882812 C 274.628906 99.457031 276.929688 94.996094 279.277344 90.574219 C 281.710938 85.984375 284.09375 81.425781 286.039062 76.621094 C 290.023438 66.945312 292.457031 56.890625 293.339844 46.460938 C 293.796875 41.5 293.796875 36.539062 293.339844 31.578125 C 292.988281 27.378906 291.921875 23.367188 290.144531 19.546875 C 288.335938 15.863281 285.738281 12.859375 282.363281 10.535156 C 278.386719 7.886719 274.023438 6.335938 269.269531 5.878906 C 266.898438 5.617188 264.542969 5.707031 262.199219 6.148438 C 259.851562 6.589844 257.625 7.367188 255.511719 8.476562 C 253.417969 9.664062 251.484375 11.074219 249.714844 12.710938 C 248.0625 14.183594 246.550781 15.792969 245.175781 17.53125 C 239.4375 24.808594 236.175781 34.03125 237.308594 43.347656 C 238.40625 52.265625 243.132812 61.566406 251.429688 65.746094 C 255.328125 67.710938 260.136719 68.707031 264.320312 67.03125 C 269.117188 65.113281 271.664062 60.617188 273.089844 55.871094 C 274.519531 51.125 275.035156 45.53125 273.335938 40.640625 C 272.957031 39.507812 272.457031 38.429688 271.835938 37.410156 C 271.214844 36.390625 270.488281 35.453125 269.65625 34.59375 C 268.824219 33.738281 267.910156 32.980469 266.90625 32.332031 C 265.90625 31.679688 264.847656 31.144531 263.726562 30.730469 C 261.5625 29.972656 259.355469 29.828125 257.109375 30.292969 C 256.847656 30.367188 256.609375 30.484375 256.394531 30.65625 C 256.179688 30.824219 256.003906 31.027344 255.871094 31.265625 C 255.734375 31.503906 255.652344 31.757812 255.621094 32.027344 C 255.585938 32.300781 255.609375 32.566406 255.683594 32.832031 C 255.757812 33.089844 255.882812 33.328125 256.050781 33.539062 C 256.222656 33.753906 256.425781 33.925781 256.660156 34.0625 C 256.898438 34.195312 257.148438 34.28125 257.417969 34.316406 C 257.6875 34.351562 257.953125 34.335938 258.21875 34.269531 C 258.300781 34.269531 258.75 34.191406 258.722656 34.183594 L 259.324219 34.183594 C 259.769531 34.179688 260.210938 34.199219 260.652344 34.242188 L 261.148438 34.328125 C 261.394531 34.378906 261.632812 34.429688 261.867188 34.496094 L 262.476562 34.691406 L 263.015625 34.894531 C 263.878906 35.277344 264.6875 35.753906 265.441406 36.316406 L 265.839844 36.636719 L 266.332031 37.078125 C 266.722656 37.449219 267.089844 37.84375 267.4375 38.253906 L 267.648438 38.527344 L 267.699219 38.585938 C 267.824219 38.769531 267.953125 38.949219 268.070312 39.132812 C 268.371094 39.578125 268.636719 40.042969 268.875 40.523438 C 269.074219 40.898438 269.238281 41.285156 269.371094 41.691406 C 269.574219 42.273438 269.753906 42.867188 269.898438 43.46875 C 270.160156 44.496094 270.300781 45.542969 270.320312 46.605469 C 270.359375 47.789062 270.3125 48.96875 270.175781 50.144531 C 270.175781 50.253906 270.175781 50.363281 270.175781 50.472656 C 270.171875 50.503906 270.171875 50.535156 270.175781 50.566406 C 270.125 50.863281 270.082031 51.148438 270.023438 51.414062 C 269.921875 51.996094 269.796875 52.570312 269.652344 53.15625 C 269.378906 54.273438 269.046875 55.371094 268.644531 56.445312 C 268.554688 56.710938 268.453125 56.972656 268.351562 57.226562 L 268.351562 57.277344 L 268.113281 57.625 C 267.859375 58.15625 267.578125 58.675781 267.269531 59.179688 C 266.804688 60.058594 266.210938 60.839844 265.484375 61.515625 C 265.289062 61.703125 265.097656 61.878906 264.886719 62.058594 L 264.835938 62.058594 L 264.597656 62.226562 C 264.175781 62.519531 263.734375 62.777344 263.269531 62.996094 L 263.085938 63.089844 L 263.027344 63.089844 L 262.359375 63.316406 C 261.886719 63.453125 261.40625 63.5625 260.921875 63.640625 L 260.640625 63.640625 C 260.40625 63.640625 260.167969 63.640625 259.925781 63.640625 C 259.414062 63.652344 258.902344 63.636719 258.394531 63.589844 L 257.980469 63.539062 L 257.398438 63.429688 C 256.90625 63.335938 256.425781 63.207031 255.953125 63.074219 C 255.480469 62.9375 254.996094 62.75 254.523438 62.574219 L 254.421875 62.699219 L 254.1875 62.589844 C 253.949219 62.488281 253.722656 62.378906 253.492188 62.261719 C 252.582031 61.800781 251.710938 61.277344 250.882812 60.6875 L 250.457031 60.363281 L 249.960938 59.957031 C 249.570312 59.628906 249.199219 59.28125 248.84375 58.925781 C 248.105469 58.1875 247.414062 57.410156 246.765625 56.589844 L 246.714844 56.523438 L 246.476562 56.203125 L 246.023438 55.566406 C 245.726562 55.136719 245.449219 54.722656 245.175781 54.238281 C 244.628906 53.34375 244.136719 52.417969 243.699219 51.464844 L 243.417969 50.835938 L 243.242188 50.414062 C 243.039062 49.898438 242.851562 49.375 242.675781 48.839844 C 242.339844 47.839844 242.058594 46.824219 241.832031 45.792969 C 241.730469 45.3125 241.636719 44.820312 241.550781 44.339844 C 241.5 44.078125 241.464844 43.8125 241.425781 43.550781 C 241.425781 43.382812 241.425781 43.203125 241.355469 43.035156 C 241.246094 41.984375 241.1875 40.929688 241.179688 39.871094 C 241.171875 38.8125 241.21875 37.757812 241.324219 36.707031 L 241.398438 36.019531 L 241.398438 35.960938 L 241.449219 35.589844 C 241.535156 35.054688 241.628906 34.53125 241.738281 34.015625 C 241.957031 32.964844 242.226562 31.933594 242.539062 30.917969 C 242.691406 30.445312 242.851562 29.972656 243.023438 29.503906 C 243.113281 29.25 243.207031 29.007812 243.308594 28.753906 C 243.351562 28.632812 243.402344 28.507812 243.453125 28.386719 L 243.453125 28.226562 C 244.292969 26.261719 245.308594 24.386719 246.496094 22.609375 C 246.765625 22.195312 247.054688 21.761719 247.339844 21.375 C 247.492188 21.152344 247.652344 20.941406 247.8125 20.730469 L 247.90625 20.605469 L 248.175781 20.273438 C 248.84375 19.425781 249.546875 18.632812 250.289062 17.855469 C 251.035156 17.074219 251.75 16.382812 252.519531 15.6875 C 252.917969 15.332031 253.367188 14.984375 253.738281 14.636719 L 254.363281 14.140625 L 254.472656 14.054688 L 254.742188 13.851562 C 255.617188 13.191406 256.535156 12.597656 257.5 12.074219 C 257.953125 11.828125 258.417969 11.597656 258.894531 11.390625 C 258.976562 11.390625 259.257812 11.246094 259.308594 11.21875 L 260.152344 10.914062 C 261.171875 10.578125 262.210938 10.320312 263.269531 10.136719 L 263.8125 10.0625 C 264.046875 10.027344 264.285156 10 264.523438 9.984375 C 265.054688 9.933594 265.59375 9.910156 266.136719 9.898438 C 270.382812 9.820312 274.382812 10.777344 278.136719 12.777344 C 278.984375 13.234375 279.800781 13.742188 280.585938 14.300781 L 281.058594 14.65625 L 281.324219 14.875 C 281.707031 15.191406 282.070312 15.511719 282.414062 15.839844 C 283.039062 16.4375 283.625 17.078125 284.171875 17.753906 C 284.238281 17.835938 284.304688 17.914062 284.363281 17.996094 C 284.476562 18.160156 284.601562 18.3125 284.710938 18.464844 C 284.980469 18.851562 285.242188 19.25 285.488281 19.648438 C 285.960938 20.410156 286.386719 21.195312 286.765625 22.007812 C 286.859375 22.210938 286.941406 22.421875 287.042969 22.625 C 287.074219 22.691406 287.105469 22.761719 287.128906 22.828125 C 287.3125 23.277344 287.484375 23.734375 287.636719 24.191406 C 288.238281 25.984375 288.691406 27.816406 288.988281 29.683594 C 288.988281 29.894531 289.046875 30.105469 289.082031 30.316406 C 289.082031 30.394531 289.082031 30.46875 289.082031 30.546875 C 289.082031 30.589844 289.082031 30.636719 289.082031 30.679688 C 289.140625 31.171875 289.199219 31.664062 289.242188 32.164062 C 289.34375 33.253906 289.402344 34.363281 289.445312 35.460938 C 289.535156 37.917969 289.535156 40.371094 289.445312 42.816406 C 289.253906 47.617188 288.671875 52.375 287.703125 57.082031 C 286.71875 61.902344 285.390625 66.625 283.722656 71.253906 C 282.101562 75.761719 280.167969 80.128906 277.917969 84.351562 C 275.726562 88.5 273.515625 92.644531 271.332031 96.800781 C 266.675781 105.703125 261.925781 114.570312 256.511719 123.03125 C 255.730469 124.25 254.929688 125.46875 254.117188 126.667969 C 248.464844 117.363281 242.523438 108.25 236.734375 99.035156 C 234.113281 94.855469 231.546875 90.640625 229.128906 86.339844 C 228.003906 84.3125 226.914062 82.246094 225.882812 80.15625 C 225.386719 79.152344 224.90625 78.136719 224.4375 77.109375 L 223.828125 75.738281 L 223.5 74.976562 L 223.433594 74.824219 C 223.433594 74.773438 223.269531 74.4375 223.253906 74.394531 C 221.578125 70.320312 220.234375 66.140625 219.222656 61.855469 C 218.699219 59.652344 218.269531 57.421875 217.9375 55.179688 L 217.835938 54.46875 C 217.835938 54.46875 217.777344 54.011719 217.761719 53.910156 C 217.683594 53.289062 217.617188 52.671875 217.550781 52.054688 C 217.433594 50.863281 217.332031 49.660156 217.261719 48.449219 C 217.089844 45.996094 217.089844 43.539062 217.261719 41.082031 C 217.261719 40.503906 217.363281 39.9375 217.433594 39.386719 C 217.433594 39.277344 217.507812 38.871094 217.433594 39.304688 L 217.480469 38.941406 C 217.53125 38.585938 217.59375 38.230469 217.660156 37.867188 C 217.871094 36.671875 218.132812 35.496094 218.453125 34.328125 C 218.777344 33.160156 219.140625 32 219.554688 30.867188 C 219.753906 30.292969 219.984375 29.734375 220.210938 29.175781 C 220.234375 29.132812 220.253906 29.085938 220.269531 29.039062 C 220.3125 28.957031 220.347656 28.863281 220.390625 28.777344 C 220.523438 28.464844 220.660156 28.167969 220.804688 27.863281 C 221.835938 25.65625 223.039062 23.546875 224.414062 21.535156 C 224.757812 21.035156 225.105469 20.535156 225.46875 20.046875 L 225.6875 19.757812 L 225.875 19.511719 C 225.941406 19.425781 226.042969 19.292969 226.042969 19.300781 L 226.382812 18.878906 C 227.152344 17.929688 227.957031 17.015625 228.789062 16.136719 C 229.636719 15.289062 230.480469 14.445312 231.410156 13.597656 C 231.859375 13.191406 232.324219 12.800781 232.789062 12.414062 L 233.429688 11.898438 L 233.675781 11.703125 L 233.945312 11.492188 C 235.886719 10.03125 237.9375 8.742188 240.097656 7.632812 C 240.628906 7.363281 241.179688 7.089844 241.730469 6.835938 L 242.574219 6.472656 L 242.675781 6.472656 L 243.089844 6.304688 C 244.214844 5.847656 245.363281 5.457031 246.519531 5.101562 C 247.679688 4.746094 248.871094 4.46875 250.0625 4.257812 C 250.324219 4.183594 250.5625 4.0625 250.777344 3.890625 C 250.992188 3.722656 251.164062 3.519531 251.300781 3.28125 C 251.433594 3.042969 251.515625 2.789062 251.550781 2.519531 C 251.582031 2.246094 251.5625 1.980469 251.488281 1.71875 C 251.414062 1.457031 251.289062 1.222656 251.121094 1.007812 C 250.949219 0.796875 250.746094 0.625 250.511719 0.492188 C 250.273438 0.355469 250.019531 0.273438 249.753906 0.238281 C 249.484375 0.203125 249.21875 0.21875 248.953125 0.289062 C 246.476562 0.816406 244.058594 1.554688 241.707031 2.496094 C 239.351562 3.441406 237.097656 4.578125 234.9375 5.90625 C 232.777344 7.234375 230.746094 8.738281 228.84375 10.414062 C 226.941406 12.089844 225.191406 13.914062 223.601562 15.890625 C 217.109375 23.820312 213.0625 33.777344 213.019531 44.101562 C 213.019531 53.726562 214.683594 63.054688 218.007812 72.082031 C 221.300781 80.917969 225.992188 89.292969 230.980469 97.390625 Z M 267.597656 38.449219 Z M 267.597656 38.449219 " fill-opacity="1" fill-rule="nonzero"/></svg>