<svg xmlns="http://www.w3.org/2000/svg" xmlns:xlink="http://www.w3.org/1999/xlink" width="500" zoomAndPan="magnify" viewBox="0 0 375 374.999991" height="500" preserveAspectRatio="xMidYMid meet" version="1.0"><defs><clipPath id="id1"><path d="M 65 6.320312 L 233 6.320312 L 233 65 L 65 65 Z M 65 6.320312 " clip-rule="nonzero"/></clipPath><clipPath id="id2"><path d="M 187 250 L 349.574219 250 L 349.574219 335 L 187 335 Z M 187 250 " clip-rule="nonzero"/></clipPath><clipPath id="id3"><path d="M 188 319.171875 L 348 319.171875 L 348 368.570312 L 188 368.570312 Z M 188 319.171875 " clip-rule="nonzero"/></clipPath></defs><g clip-path="url(#id1)"><path fill="rgb(0%, 29.019165%, 67.83905%)" d="M 149.757812 64.625 C 197.785156 64.625 231.730469 49.863281 232.984375 36.421875 C 232.984375 36.101562 232.984375 35.777344 232.984375 35.457031 C 232.984375 21.691406 198.75 6.320312 149.4375 6.320312 C 100.125 6.320312 65.859375 21.691406 65.859375 35.457031 C 65.859375 35.777344 65.859375 35.777344 65.859375 36.101562 C 67.144531 49.863281 101.089844 64.625 149.757812 64.625 " fill-opacity="1" fill-rule="nonzero"/></g><path fill="rgb(0%, 29.019165%, 67.83905%)" d="M 68.753906 78.710938 C 69.71875 80 71.324219 81.605469 72.933594 82.859375 C 85.082031 92.796875 113.273438 101.128906 149.4375 101.128906 C 171.519531 101.128906 190.742188 97.910156 205.144531 93.441406 C 207.074219 92.796875 208.96875 92.15625 210.578125 91.511719 C 212.507812 90.867188 214.113281 89.902344 215.722656 89.292969 C 226.585938 84.148438 232.660156 78.070312 232.660156 72.3125 L 232.660156 54.367188 C 222.761719 62.695312 206.109375 68.773438 185.601562 72.3125 C 181.132812 72.957031 176.34375 73.566406 171.519531 74.210938 C 164.480469 74.851562 157.121094 75.175781 149.4375 75.175781 C 133.429688 75.175781 118.707031 73.566406 105.878906 71.027344 C 101.089844 70.0625 96.621094 68.773438 92.121094 67.488281 C 81.257812 63.984375 72.289062 59.480469 65.859375 54.367188 L 65.859375 71.992188 C 65.859375 72.632812 65.859375 73.277344 66.214844 73.886719 C 66.824219 75.496094 67.46875 77.105469 68.753906 78.710938 " fill-opacity="1" fill-rule="nonzero"/><path fill="rgb(0%, 29.019165%, 67.83905%)" d="M 105.878906 132.195312 C 111.988281 132.835938 118.0625 133.160156 124.78125 133.160156 C 126.066406 133.160156 127.355469 133.160156 128.605469 133.160156 C 142.074219 133.160156 154.226562 131.871094 165.125 129.941406 C 171.84375 128.65625 177.597656 127.402344 183.0625 125.472656 C 200.644531 120.003906 211.21875 112.03125 211.863281 104.664062 C 211.863281 104.34375 211.863281 104.023438 211.863281 103.699219 C 211.863281 103.058594 211.863281 102.414062 211.542969 101.769531 C 208.648438 102.734375 205.789062 103.699219 202.894531 104.664062 C 187.851562 108.8125 169.59375 111.386719 149.4375 111.386719 C 128.316406 111.386719 109.417969 108.8125 94.050781 104.34375 C 79.648438 100.164062 68.429688 94.085938 62.035156 87.042969 C 51.136719 92.15625 45.0625 98.234375 45.0625 104.023438 C 45.0625 115.855469 69.394531 128.367188 105.878906 132.195312 " fill-opacity="1" fill-rule="nonzero"/><path fill="rgb(0%, 29.019165%, 67.83905%)" d="M 203.214844 237.230469 C 200.964844 237.902344 199.070312 238.195312 196.820312 238.835938 C 184.027344 241.410156 169.59375 243.019531 153.585938 243.019531 C 121.277344 243.019531 94.050781 236.9375 77.078125 227 C 74.828125 225.714844 72.933594 224.429688 71.324219 223.175781 C 71.003906 222.820312 70.679688 222.53125 70.039062 222.179688 L 70.039062 237.230469 C 70.039062 242.375 73.253906 247.488281 79.007812 251.667969 C 82.222656 254.210938 86.367188 256.460938 91.15625 258.390625 C 94.050781 259.675781 96.945312 260.640625 100.125 261.605469 C 103.664062 262.859375 107.808594 263.824219 111.667969 264.789062 C 123.816406 267.363281 138.21875 268.96875 153.261719 268.96875 C 165.445312 268.96875 176.632812 268.007812 186.566406 266.398438 C 187.207031 266.398438 187.851562 266.078125 188.492188 266.078125 C 189.78125 264.789062 191.066406 263.503906 192.640625 262.539062 C 194.246094 261.285156 196.175781 259.675781 198.105469 258.390625 C 200.035156 257.105469 202.253906 255.816406 204.503906 254.5625 C 204.824219 254.5625 204.824219 254.210938 205.144531 254.210938 C 206.429688 253.566406 207.714844 252.953125 209.292969 252.3125 C 209.613281 251.988281 209.933594 251.988281 210.578125 251.667969 C 212.183594 251.027344 214.113281 250.0625 215.722656 249.417969 C 222.117188 246.875 228.835938 244.945312 235.875 243.339844 C 236.519531 242.054688 236.519531 240.765625 236.519531 239.800781 L 236.519531 225.394531 C 229.15625 229.542969 219.867188 233.082031 208.96875 235.652344 L 208.648438 235.652344 C 207.074219 236.296875 205.144531 236.9375 203.214844 237.230469 " fill-opacity="1" fill-rule="nonzero"/><path fill="rgb(0%, 29.019165%, 67.83905%)" d="M 240.34375 210.019531 C 240.988281 209.378906 241.628906 208.734375 241.953125 208.125 C 242.914062 206.804688 243.878906 205.550781 244.203125 204.265625 C 244.523438 203.300781 244.84375 202.335938 244.84375 201.046875 L 244.84375 183.457031 C 243.238281 184.710938 241.628906 185.996094 239.703125 187.285156 C 238.125 188.25 236.519531 189.214844 234.910156 189.855469 C 233.304688 190.789062 231.730469 191.433594 229.800781 192.398438 C 216.332031 198.507812 198.425781 202.335938 177.597656 203.941406 C 172.484375 204.265625 167.054688 204.585938 161.265625 204.585938 C 154.546875 204.585938 147.832031 204.265625 141.433594 203.621094 C 117.421875 201.691406 96.945312 195.933594 83.796875 187.925781 C 82.222656 186.960938 80.613281 185.675781 79.007812 184.710938 C 78.6875 184.390625 78.042969 184.066406 77.722656 183.746094 L 77.722656 201.371094 C 77.722656 202.011719 77.722656 202.65625 78.042969 203.300781 C 79.007812 207.160156 82.222656 210.984375 87.332031 214.492188 C 89.582031 216.101562 92.121094 217.386719 95.015625 218.671875 C 98.199219 220.28125 102.054688 221.566406 105.878906 222.820312 C 120.3125 227.324219 138.863281 230.507812 160.945312 230.507812 C 166.089844 230.507812 171.199219 230.21875 176.34375 229.894531 C 180.488281 229.542969 184.316406 229.253906 188.171875 228.609375 C 191.386719 228.289062 194.246094 227.644531 197.140625 227.324219 C 200.324219 226.679688 203.214844 226.039062 206.109375 225.394531 C 219.546875 222.179688 229.800781 217.707031 236.519531 212.914062 C 238.125 211.949219 239.410156 210.984375 240.34375 210.019531 " fill-opacity="1" fill-rule="nonzero"/><path fill="rgb(0%, 29.019165%, 67.83905%)" d="M 204.824219 164.546875 C 202.574219 165.832031 200.324219 167.121094 197.785156 168.085938 C 194.890625 169.339844 191.707031 170.625 188.492188 171.589844 C 184.636719 172.875 180.488281 174.164062 175.988281 175.128906 C 162.230469 178.3125 146.222656 180.242188 128.605469 180.242188 C 121.277344 180.242188 113.882812 179.917969 106.84375 179.277344 C 102.375 178.953125 98.199219 178.3125 94.050781 177.667969 C 91.480469 177.347656 88.617188 176.703125 86.046875 176.382812 C 87.332031 177.347656 88.617188 178.3125 90.195312 179.277344 C 92.121094 180.242188 94.371094 181.527344 96.621094 182.492188 C 111.34375 189.214844 134.070312 193.683594 161.589844 193.683594 C 184.316406 193.683594 203.859375 190.5 218.261719 185.355469 C 220.511719 184.390625 222.761719 183.746094 224.980469 182.8125 C 227.230469 181.847656 229.15625 180.882812 230.765625 179.917969 C 239.410156 175.417969 244.203125 169.980469 244.84375 165.191406 C 244.84375 164.867188 244.84375 164.546875 244.84375 164.226562 C 244.84375 157.503906 236.519531 150.140625 221.796875 144.671875 C 220.1875 152.359375 214.113281 159.113281 204.824219 164.546875 " fill-opacity="1" fill-rule="nonzero"/><path fill="rgb(0%, 29.019165%, 67.83905%)" d="M 71.324219 161.652344 C 71.96875 161.972656 72.289062 161.972656 72.933594 162.296875 L 73.253906 162.296875 C 74.828125 162.9375 76.433594 163.261719 78.363281 163.902344 C 86.367188 166.15625 95.980469 168.085938 106.203125 169.015625 C 113.273438 169.660156 120.925781 170.304688 128.605469 170.304688 C 130.214844 170.304688 131.820312 170.304688 133.429688 170.304688 C 138.539062 170.304688 143.683594 169.980469 148.472656 169.339844 C 158.40625 168.375 167.054688 167.121094 175.058594 164.867188 C 175.988281 164.546875 176.953125 164.546875 177.917969 164.226562 C 198.425781 158.789062 210.898438 150.140625 211.863281 142.132812 C 211.863281 141.808594 211.863281 141.488281 211.863281 141.167969 L 211.863281 123.542969 C 209.292969 125.472656 206.429688 127.402344 203.214844 129.300781 C 200.644531 130.585938 197.785156 132.195312 194.890625 133.160156 C 191.386719 134.445312 187.851562 135.730469 184.027344 136.984375 C 168.660156 141.488281 149.4375 144.382812 128.316406 144.382812 C 120.925781 144.382812 113.59375 144.027344 106.84375 143.417969 C 103.019531 143.097656 99.164062 142.773438 95.335938 142.132812 C 92.121094 141.808594 89.261719 141.167969 86.367188 140.523438 C 68.429688 136.984375 53.707031 130.90625 44.742188 123.542969 L 44.742188 141.167969 C 44.742188 147.886719 53.066406 155.253906 67.789062 160.6875 C 69.074219 160.6875 70.359375 161.007812 71.324219 161.652344 " fill-opacity="1" fill-rule="nonzero"/><g clip-path="url(#id2)"><path fill="rgb(0%, 29.019165%, 67.83905%)" d="M 267.894531 250.703125 C 267.894531 250.703125 267.570312 250.703125 267.894531 250.703125 C 258.925781 250.703125 250.597656 251.347656 242.59375 252.953125 C 239.410156 253.566406 236.199219 254.210938 233.304688 254.882812 C 227.230469 256.460938 221.476562 258.390625 216.042969 260.640625 C 214.757812 261.285156 213.792969 261.605469 212.507812 262.25 C 212.183594 262.539062 211.863281 262.539062 211.542969 262.859375 C 211.21875 262.859375 210.898438 263.214844 210.898438 263.214844 C 208.96875 264.148438 207.394531 265.113281 205.789062 266.078125 C 204.503906 266.71875 203.539062 267.683594 202.574219 268.328125 C 201.929688 268.648438 201.289062 269.292969 200.644531 269.582031 C 198.75 271.191406 196.820312 272.796875 195.535156 274.40625 C 195.210938 274.726562 194.890625 275.050781 194.570312 275.691406 C 193.925781 276.335938 193.285156 277.269531 192.640625 277.910156 C 189.457031 282.09375 187.851562 286.59375 187.53125 290.742188 C 187.53125 291.066406 187.53125 291.707031 187.53125 292.03125 L 187.53125 292.351562 C 187.53125 292.671875 187.53125 293.285156 187.53125 293.605469 C 187.53125 293.960938 187.53125 294.570312 187.53125 294.890625 C 187.851562 297.785156 188.816406 300.648438 190.421875 303.542969 C 191.066406 305.152344 191.996094 306.4375 193.285156 308.046875 C 194.246094 309.300781 195.535156 310.90625 196.820312 312.195312 C 197.140625 312.515625 197.460938 312.835938 197.785156 313.160156 C 199.390625 314.445312 200.964844 315.730469 202.574219 317.019531 C 204.503906 318.304688 206.109375 319.558594 208.328125 320.523438 C 214.113281 324.0625 221.152344 326.632812 228.515625 329.175781 C 230.121094 329.816406 231.730469 330.140625 233.625 330.460938 C 235.234375 330.78125 237.160156 331.425781 238.769531 331.714844 C 248.027344 333.675781 257.960938 334.609375 268.214844 334.609375 L 268.535156 334.609375 C 311.738281 334.609375 347.613281 316.34375 349.542969 293.960938 C 349.542969 293.605469 349.542969 293.605469 349.542969 293.285156 C 349.863281 286.59375 346.96875 280.164062 341.214844 273.761719 C 326.460938 259.675781 298.625 250.703125 267.894531 250.703125 " fill-opacity="1" fill-rule="nonzero"/></g><path fill="rgb(0%, 29.019165%, 67.83905%)" d="M 62.675781 271.191406 C 64.605469 271.832031 66.824219 272.476562 68.753906 273.121094 C 71.003906 273.761719 73.253906 274.40625 75.792969 275.050781 C 88.617188 278.265625 104.304688 280.164062 121.566406 280.164062 C 129.570312 280.164062 136.933594 279.839844 144.003906 279.230469 C 124.460938 278.585938 105.558594 275.050781 90.515625 269.292969 C 87.976562 268.328125 85.726562 267.363281 83.476562 266.078125 C 81.257812 265.113281 79.328125 263.824219 77.398438 262.859375 C 71.96875 259.355469 67.144531 255.527344 64.285156 251.347656 C 61.070312 247.199219 59.460938 242.375 59.460938 236.9375 L 59.460938 232.4375 C 46.027344 237.902344 38.34375 244.625 38.34375 251.347656 C 38.664062 258.390625 47.3125 265.753906 62.675781 271.191406 " fill-opacity="1" fill-rule="nonzero"/><g clip-path="url(#id3)"><path fill="rgb(0%, 29.019165%, 67.83905%)" d="M 267.570312 345.832031 C 255.421875 345.832031 243.558594 344.546875 232.984375 341.972656 C 231.085938 341.652344 229.15625 341.042969 227.230469 340.367188 C 225.300781 339.753906 223.402344 339.113281 221.476562 338.46875 C 211.21875 334.929688 202.253906 330.460938 194.890625 324.992188 C 192.960938 323.738281 191.386719 322.132812 189.78125 320.84375 C 189.136719 320.203125 188.492188 319.878906 188.171875 319.238281 L 188.492188 326.601562 L 188.816406 335.574219 C 189.136719 340.367188 192.351562 345.511719 197.785156 349.980469 C 199.390625 351.269531 201.289062 352.554688 203.214844 353.839844 C 205.144531 355.128906 207.394531 356.058594 209.613281 357.347656 C 223.402344 364.066406 243.558594 368.570312 267.894531 368.570312 L 268.214844 368.570312 C 314.632812 368.570312 346.328125 351.589844 347.292969 335.574219 L 347.933594 319.238281 C 331.925781 334.929688 302.160156 345.832031 267.570312 345.832031 " fill-opacity="1" fill-rule="nonzero"/></g><path fill="rgb(0%, 29.019165%, 67.83905%)" d="M 71.003906 310.585938 C 79.648438 313.160156 89.871094 315.089844 101.089844 316.019531 C 107.808594 316.695312 114.527344 317.019531 121.890625 317.019531 C 143.683594 317.019531 162.550781 314.125 176.953125 309.300781 L 176.34375 296.179688 C 176.34375 295.535156 176.34375 293.960938 176.34375 293.605469 C 176.34375 293.605469 176.34375 291.707031 176.34375 291.066406 C 176.632812 288.492188 176.953125 286.242188 177.597656 283.699219 C 167.054688 286.914062 154.871094 289.136719 141.433594 290.101562 C 135.359375 290.742188 128.605469 290.742188 121.890625 290.742188 C 111.34375 290.742188 101.414062 290.101562 92.121094 288.8125 C 82.222656 287.527344 72.933594 285.597656 64.925781 283.058594 C 63 282.414062 61.390625 281.769531 59.460938 281.128906 C 57.886719 280.484375 55.960938 279.839844 54.351562 279.230469 C 47.953125 276.335938 42.488281 273.441406 38.34375 269.933594 L 38.34375 287.527344 C 38.34375 292.351562 42.84375 297.464844 50.527344 301.933594 C 52.101562 302.898438 54.03125 303.863281 55.636719 304.828125 C 57.246094 305.472656 58.820312 306.4375 60.75 307.082031 C 64.285156 308.367188 67.46875 309.300781 71.003906 310.585938 " fill-opacity="1" fill-rule="nonzero"/><path fill="rgb(0%, 29.019165%, 67.83905%)" d="M 177.917969 328.53125 C 167.695312 330.140625 156.476562 330.78125 144.617188 330.78125 C 127.996094 330.78125 112.308594 329.175781 99.164062 325.957031 C 84.761719 324.671875 71.96875 321.808594 61.390625 318.304688 L 61.390625 327.566406 C 61.390625 341.363281 95.660156 356.734375 144.96875 356.734375 C 160.335938 356.734375 174.09375 355.128906 185.921875 352.875 C 181.453125 347.730469 178.882812 341.972656 178.5625 335.894531 L 177.917969 328.53125 " fill-opacity="1" fill-rule="nonzero"/></svg>