<svg xmlns="http://www.w3.org/2000/svg" xmlns:xlink="http://www.w3.org/1999/xlink" width="500" zoomAndPan="magnify" viewBox="0 0 375 374.999991" height="500" preserveAspectRatio="xMidYMid meet" version="1.0"><defs><clipPath id="id1"><path d="M 78 18.925781 L 177 18.925781 L 177 106 L 78 106 Z M 78 18.925781 " clip-rule="nonzero"/></clipPath><clipPath id="id2"><path d="M 198 18.925781 L 297 18.925781 L 297 106 L 198 106 Z M 198 18.925781 " clip-rule="nonzero"/></clipPath><clipPath id="id3"><path d="M 261 28 L 365.320312 28 L 365.320312 115 L 261 115 Z M 261 28 " clip-rule="nonzero"/></clipPath><clipPath id="id4"><path d="M 9.820312 28 L 114 28 L 114 115 L 9.820312 115 Z M 9.820312 28 " clip-rule="nonzero"/></clipPath><clipPath id="id5"><path d="M 197 133 L 365 133 L 365 356.425781 L 197 356.425781 Z M 197 133 " clip-rule="nonzero"/></clipPath><clipPath id="id6"><path d="M 10 133 L 178 133 L 178 356.425781 L 10 356.425781 Z M 10 133 " clip-rule="nonzero"/></clipPath></defs><path fill="rgb(0%, 29.019165%, 67.83905%)" d="M 228.058594 114.769531 L 187.527344 47.175781 L 146.992188 114.769531 Z M 228.058594 114.769531 " fill-opacity="1" fill-rule="nonzero"/><g clip-path="url(#id1)"><path fill="rgb(0%, 29.019165%, 67.83905%)" d="M 176.363281 28.550781 L 170.621094 18.972656 L 78.066406 18.972656 L 130.085938 105.722656 Z M 176.363281 28.550781 " fill-opacity="1" fill-rule="nonzero"/></g><g clip-path="url(#id2)"><path fill="rgb(0%, 29.019165%, 67.83905%)" d="M 296.988281 18.972656 L 204.433594 18.972656 L 198.6875 28.550781 L 244.964844 105.722656 Z M 296.988281 18.972656 " fill-opacity="1" fill-rule="nonzero"/></g><g clip-path="url(#id3)"><path fill="rgb(0%, 29.019165%, 67.83905%)" d="M 365.265625 114.769531 L 313.566406 28.550781 L 261.871094 114.769531 Z M 365.265625 114.769531 " fill-opacity="1" fill-rule="nonzero"/></g><g clip-path="url(#id4)"><path fill="rgb(0%, 29.019165%, 67.83905%)" d="M 61.484375 28.550781 L 9.789062 114.769531 L 113.179688 114.769531 Z M 61.484375 28.550781 " fill-opacity="1" fill-rule="nonzero"/></g><g clip-path="url(#id5)"><path fill="rgb(0%, 29.019165%, 67.83905%)" d="M 197.386719 354.257812 L 197.902344 356.34375 L 364.632812 133.925781 L 252.433594 133.925781 Z M 197.386719 354.257812 " fill-opacity="1" fill-rule="nonzero"/></g><path fill="rgb(0%, 29.019165%, 67.83905%)" d="M 142.339844 133.925781 L 187.527344 314.769531 L 232.710938 133.925781 Z M 142.339844 133.925781 " fill-opacity="1" fill-rule="nonzero"/><g clip-path="url(#id6)"><path fill="rgb(0%, 29.019165%, 67.83905%)" d="M 10.417969 133.925781 L 177.148438 356.34375 L 177.664062 354.257812 L 122.617188 133.925781 Z M 10.417969 133.925781 " fill-opacity="1" fill-rule="nonzero"/></g></svg>