<svg xmlns="http://www.w3.org/2000/svg" xmlns:xlink="http://www.w3.org/1999/xlink" width="500" zoomAndPan="magnify" viewBox="0 0 375 374.999991" height="500" preserveAspectRatio="xMidYMid meet" version="1.0"><defs><clipPath id="id1"><path d="M 15.007812 140 L 360 140 L 360 310.886719 L 15.007812 310.886719 Z M 15.007812 140 " clip-rule="nonzero"/></clipPath><clipPath id="id2"><path d="M 15.007812 82 L 360 82 L 360 189 L 15.007812 189 Z M 15.007812 82 " clip-rule="nonzero"/></clipPath><clipPath id="id3"><path d="M 119 26.636719 L 256 26.636719 L 256 69 L 119 69 Z M 119 26.636719 " clip-rule="nonzero"/></clipPath></defs><g clip-path="url(#id1)"><path fill="rgb(0%, 29.019165%, 67.83905%)" d="M 170.460938 209.984375 L 15.449219 140.59375 L 15.449219 295.371094 C 15.449219 303.84375 22.328125 310.714844 30.816406 310.714844 L 344.472656 310.714844 C 352.960938 310.714844 359.839844 303.84375 359.839844 295.371094 L 359.839844 140.691406 L 208.574219 209.984375 L 170.460938 209.984375 " fill-opacity="1" fill-rule="nonzero"/></g><g clip-path="url(#id2)"><path fill="rgb(0%, 29.019165%, 67.83905%)" d="M 348.25 82.660156 L 30.355469 82.660156 C 22.40625 82.660156 15.449219 88.933594 15.449219 95.882812 L 15.449219 117.050781 L 175.0625 188.480469 L 203.867188 188.480469 L 359.839844 117.050781 L 359.839844 95.882812 C 359.839844 89.597656 356.191406 82.660156 348.25 82.660156 " fill-opacity="1" fill-rule="nonzero"/></g><g clip-path="url(#id3)"><path fill="rgb(0%, 29.019165%, 67.83905%)" d="M 139.8125 51.734375 C 139.8125 48.761719 142.230469 46.378906 145.171875 46.378906 L 230.082031 46.378906 C 233.058594 46.378906 235.476562 48.761719 235.476562 51.734375 L 235.476562 68.011719 L 255.347656 68.011719 L 255.347656 51.734375 C 255.347656 37.808594 244.015625 26.535156 230.082031 26.535156 L 145.171875 26.535156 C 131.261719 26.535156 119.941406 37.808594 119.941406 51.734375 L 119.941406 68.011719 L 139.8125 68.011719 L 139.8125 51.734375 " fill-opacity="1" fill-rule="nonzero"/></g></svg>