<svg xmlns="http://www.w3.org/2000/svg" xmlns:xlink="http://www.w3.org/1999/xlink" width="500" zoomAndPan="magnify" viewBox="0 0 375 374.999991" height="500" preserveAspectRatio="xMidYMid meet" version="1.0"><defs><clipPath id="id1"><path d="M 8.949219 75.578125 L 365.949219 75.578125 L 365.949219 276.578125 L 8.949219 276.578125 Z M 8.949219 75.578125 " clip-rule="nonzero"/></clipPath></defs><path fill="rgb(0%, 29.019165%, 67.83905%)" d="M 187.449219 170.496094 C 206.214844 170.496094 220.917969 181.53125 220.917969 195.621094 C 220.917969 208.269531 209.03125 218.382812 193.027344 220.335938 L 193.027344 226.328125 C 193.027344 229.414062 190.535156 231.914062 187.449219 231.914062 C 184.367188 231.914062 181.871094 229.414062 181.871094 226.328125 L 181.871094 220.335938 C 165.867188 218.382812 153.984375 208.269531 153.984375 195.621094 C 153.984375 192.535156 156.476562 190.039062 159.5625 190.039062 C 162.644531 190.039062 165.140625 192.535156 165.140625 195.621094 C 165.140625 203.1875 175.359375 209.578125 187.449219 209.578125 C 199.542969 209.578125 209.761719 203.1875 209.761719 195.621094 C 209.761719 188.050781 199.542969 181.664062 187.449219 181.664062 C 168.683594 181.664062 153.984375 170.625 153.984375 156.539062 C 153.984375 143.886719 165.867188 133.773438 181.871094 131.820312 L 181.871094 125.828125 C 181.871094 122.742188 184.367188 120.246094 187.449219 120.246094 C 190.535156 120.246094 193.027344 122.742188 193.027344 125.828125 L 193.027344 131.820312 C 209.03125 133.773438 220.917969 143.886719 220.917969 156.539062 C 220.917969 159.625 218.421875 162.121094 215.339844 162.121094 C 212.257812 162.121094 209.761719 159.625 209.761719 156.539062 C 209.761719 148.96875 199.542969 142.578125 187.449219 142.578125 C 175.359375 142.578125 165.140625 148.96875 165.140625 156.539062 C 165.140625 164.105469 175.359375 170.496094 187.449219 170.496094 Z M 243.230469 176.078125 C 243.230469 139.132812 218.207031 109.078125 187.449219 109.078125 C 156.695312 109.078125 131.671875 139.132812 131.671875 176.078125 C 131.671875 213.023438 156.695312 243.078125 187.449219 243.078125 C 218.207031 243.078125 243.230469 213.023438 243.230469 176.078125 " fill-opacity="1" fill-rule="nonzero"/><path fill="rgb(0%, 29.019165%, 67.83905%)" d="M 75.890625 164.914062 C 69.742188 164.914062 64.734375 169.917969 64.734375 176.078125 C 64.734375 182.238281 69.742188 187.246094 75.890625 187.246094 C 82.042969 187.246094 87.046875 182.238281 87.046875 176.078125 C 87.046875 169.917969 82.042969 164.914062 75.890625 164.914062 " fill-opacity="1" fill-rule="nonzero"/><path fill="rgb(0%, 29.019165%, 67.83905%)" d="M 287.855469 176.078125 C 287.855469 182.238281 292.859375 187.246094 299.011719 187.246094 C 305.160156 187.246094 310.164062 182.238281 310.164062 176.078125 C 310.164062 169.917969 305.160156 164.914062 299.011719 164.914062 C 292.859375 164.914062 287.855469 169.917969 287.855469 176.078125 " fill-opacity="1" fill-rule="nonzero"/><path fill="rgb(0%, 29.019165%, 67.83905%)" d="M 75.890625 198.414062 C 63.585938 198.414062 53.578125 188.390625 53.578125 176.078125 C 53.578125 163.765625 63.585938 153.746094 75.890625 153.746094 C 88.195312 153.746094 98.203125 163.765625 98.203125 176.078125 C 98.203125 188.390625 88.195312 198.414062 75.890625 198.414062 Z M 120.515625 176.078125 C 120.515625 147.628906 133.644531 122.753906 153.148438 109.078125 L 75.332031 109.078125 C 68.664062 123.605469 56.933594 135.347656 42.421875 142.023438 L 42.421875 210.136719 C 56.933594 216.808594 68.664062 228.554688 75.332031 243.078125 L 153.15625 243.078125 C 133.644531 229.402344 120.515625 204.53125 120.515625 176.078125 " fill-opacity="1" fill-rule="nonzero"/><path fill="rgb(0%, 29.019165%, 67.83905%)" d="M 321.320312 176.078125 C 321.320312 188.390625 311.316406 198.414062 299.011719 198.414062 C 286.703125 198.414062 276.699219 188.390625 276.699219 176.078125 C 276.699219 163.765625 286.703125 153.746094 299.011719 153.746094 C 311.316406 153.746094 321.320312 163.765625 321.320312 176.078125 Z M 299.570312 109.078125 L 221.75 109.078125 C 241.257812 122.753906 254.386719 147.628906 254.386719 176.078125 C 254.386719 204.53125 241.257812 229.402344 221.746094 243.078125 L 299.570312 243.078125 C 306.238281 228.554688 317.964844 216.808594 332.476562 210.136719 L 332.476562 142.023438 C 317.964844 135.347656 306.238281 123.605469 299.570312 109.078125 " fill-opacity="1" fill-rule="nonzero"/><g clip-path="url(#id1)"><path fill="rgb(0%, 29.019165%, 67.83905%)" d="M 343.632812 213.832031 C 343.632812 216.132812 342.226562 218.195312 340.085938 219.035156 C 325.628906 224.683594 314.105469 236.230469 308.457031 250.691406 C 307.617188 252.839844 305.558594 254.246094 303.257812 254.246094 L 71.644531 254.246094 C 69.34375 254.246094 67.285156 252.839844 66.445312 250.691406 C 60.796875 236.230469 49.269531 224.683594 34.8125 219.035156 C 32.671875 218.195312 31.269531 216.132812 31.269531 213.832031 L 31.269531 138.324219 C 31.269531 136.023438 32.671875 133.964844 34.8125 133.125 C 49.269531 127.476562 60.796875 115.925781 66.445312 101.46875 C 67.285156 99.320312 69.34375 97.914062 71.644531 97.914062 L 303.257812 97.914062 C 305.558594 97.914062 307.617188 99.320312 308.457031 101.46875 C 314.105469 115.925781 325.628906 127.476562 340.085938 133.125 C 342.226562 133.964844 343.632812 136.023438 343.632812 138.324219 Z M 360.367188 75.578125 L 14.535156 75.578125 C 11.449219 75.578125 8.957031 78.074219 8.957031 81.164062 L 8.957031 270.996094 C 8.957031 274.082031 11.449219 276.578125 14.535156 276.578125 L 360.367188 276.578125 C 363.449219 276.578125 365.945312 274.082031 365.945312 270.996094 L 365.945312 81.164062 C 365.945312 78.074219 363.449219 75.578125 360.367188 75.578125 " fill-opacity="1" fill-rule="nonzero"/></g></svg>