<svg xmlns="http://www.w3.org/2000/svg" xmlns:xlink="http://www.w3.org/1999/xlink" width="500" zoomAndPan="magnify" viewBox="0 0 375 374.999991" height="500" preserveAspectRatio="xMidYMid meet" version="1.0"><defs><clipPath id="id1"><path d="M 24.28125 44 L 320 44 L 320 339.410156 L 24.28125 339.410156 Z M 24.28125 44 " clip-rule="nonzero"/></clipPath><clipPath id="id2"><path d="M 307 120.046875 L 327 120.046875 L 327 138 L 307 138 Z M 307 120.046875 " clip-rule="nonzero"/></clipPath><clipPath id="id3"><path d="M 331 120.046875 L 352 120.046875 L 352 138 L 331 138 Z M 331 120.046875 " clip-rule="nonzero"/></clipPath><clipPath id="id4"><path d="M 344 121 L 364.769531 121 L 364.769531 140 L 344 140 Z M 344 121 " clip-rule="nonzero"/></clipPath><clipPath id="id5"><path d="M 293.519531 121 L 315 121 L 315 140 L 293.519531 140 Z M 293.519531 121 " clip-rule="nonzero"/></clipPath><clipPath id="id6"><path d="M 331 143 L 364.769531 143 L 364.769531 187.546875 L 331 187.546875 Z M 331 143 " clip-rule="nonzero"/></clipPath><clipPath id="id7"><path d="M 293.519531 143 L 328 143 L 328 187.546875 L 293.519531 187.546875 Z M 293.519531 143 " clip-rule="nonzero"/></clipPath></defs><g clip-path="url(#id1)"><path fill="rgb(0%, 29.019165%, 67.83905%)" d="M 25.007812 95.429688 L 37.136719 82.652344 C 44.253906 75.535156 56.222656 78 56.222656 78 L 91.742188 82.875 L 109.738281 65.246094 C 119.210938 55.925781 127.769531 70.183594 124.046875 75.101562 L 114.808594 85.851562 L 153.070312 92.941406 L 166.054688 77.789062 C 179.929688 61.179688 190.257812 76.144531 183.992188 84.949219 L 175.605469 95.582031 L 233.082031 103.082031 C 282.503906 55.46875 302.683594 35.714844 315.683594 47.453125 C 328.773438 59.257812 305.621094 82.800781 260.597656 129.234375 L 268.773438 188.519531 L 280.816406 178.476562 C 287.925781 172.542969 300.546875 182.054688 287.515625 194.429688 L 270.949219 210.066406 L 277.9375 248.875 L 288.289062 240.90625 C 297.429688 233.617188 308.523438 243.261719 296.167969 256.472656 L 279.730469 273.058594 C 279.050781 273.5625 285.09375 307.097656 285.09375 307.097656 C 288.816406 323.53125 279.554688 329.535156 279.554688 329.535156 L 268.265625 339.390625 L 225.367188 218.074219 C 221.8125 207.40625 212.800781 195.8125 197.75 197.183594 C 189.796875 198.03125 169.707031 211.613281 166.992188 214.835938 L 120.472656 259.625 C 119.28125 260.46875 127.628906 317.847656 127.628906 317.847656 C 127.628906 319.535156 112.878906 338.902344 112.878906 338.902344 L 83.398438 286.375 L 68.84375 293.148438 L 77.355469 279.882812 L 24.28125 249.886719 L 44.183594 235.316406 C 53.65625 237.519531 103.347656 243.109375 104.367188 242.605469 C 104.367188 242.605469 144.832031 202.421875 147.144531 199.996094 C 160.515625 185.929688 165.011719 180.671875 167.039062 173.730469 C 169.074219 166.769531 165.613281 156.582031 144.628906 143.6875 C 115.683594 125.890625 25.007812 95.429688 25.007812 95.429688 Z M 25.007812 95.429688 " fill-opacity="1" fill-rule="nonzero"/></g><path fill="rgb(0%, 29.019165%, 67.83905%)" d="M 337.261719 139.214844 L 329.136719 125.695312 L 321.011719 139.214844 Z M 337.261719 139.214844 " fill-opacity="1" fill-rule="nonzero"/><g clip-path="url(#id2)"><path fill="rgb(0%, 29.019165%, 67.83905%)" d="M 326.898438 121.96875 L 325.75 120.054688 L 307.199219 120.054688 L 317.625 137.40625 Z M 326.898438 121.96875 " fill-opacity="1" fill-rule="nonzero"/></g><g clip-path="url(#id3)"><path fill="rgb(0%, 29.019165%, 67.83905%)" d="M 351.074219 120.054688 L 332.523438 120.054688 L 331.375 121.96875 L 340.648438 137.40625 Z M 351.074219 120.054688 " fill-opacity="1" fill-rule="nonzero"/></g><g clip-path="url(#id4)"><path fill="rgb(0%, 29.019165%, 67.83905%)" d="M 364.757812 139.214844 L 354.398438 121.96875 L 344.039062 139.214844 Z M 364.757812 139.214844 " fill-opacity="1" fill-rule="nonzero"/></g><g clip-path="url(#id5)"><path fill="rgb(0%, 29.019165%, 67.83905%)" d="M 303.875 121.96875 L 293.515625 139.214844 L 314.234375 139.214844 Z M 303.875 121.96875 " fill-opacity="1" fill-rule="nonzero"/></g><g clip-path="url(#id6)"><path fill="rgb(0%, 29.019165%, 67.83905%)" d="M 331.113281 187.113281 L 331.214844 187.53125 L 364.632812 143.046875 L 342.144531 143.046875 Z M 331.113281 187.113281 " fill-opacity="1" fill-rule="nonzero"/></g><path fill="rgb(0%, 29.019165%, 67.83905%)" d="M 320.082031 143.046875 L 329.136719 179.214844 L 338.191406 143.046875 Z M 320.082031 143.046875 " fill-opacity="1" fill-rule="nonzero"/><g clip-path="url(#id7)"><path fill="rgb(0%, 29.019165%, 67.83905%)" d="M 293.640625 143.046875 L 327.058594 187.53125 L 327.160156 187.113281 L 316.128906 143.046875 Z M 293.640625 143.046875 " fill-opacity="1" fill-rule="nonzero"/></g></svg>