<svg xmlns="http://www.w3.org/2000/svg" xmlns:xlink="http://www.w3.org/1999/xlink" width="500" zoomAndPan="magnify" viewBox="0 0 375 374.999991" height="500" preserveAspectRatio="xMidYMid meet" version="1.0"><defs><clipPath id="id1"><path d="M 22.960938 34 L 318 34 L 318 330.167969 L 22.960938 330.167969 Z M 22.960938 34 " clip-rule="nonzero"/></clipPath><clipPath id="id2"><path d="M 293.769531 123 L 362 123 L 362 157.605469 L 293.769531 157.605469 Z M 293.769531 123 " clip-rule="nonzero"/></clipPath><clipPath id="id3"><path d="M 293.769531 112 L 362 112 L 362 134 L 293.769531 134 Z M 293.769531 112 " clip-rule="nonzero"/></clipPath><clipPath id="id4"><path d="M 314 101.355469 L 342 101.355469 L 342 110 L 314 110 Z M 314 101.355469 " clip-rule="nonzero"/></clipPath></defs><g clip-path="url(#id1)"><path fill="rgb(0%, 29.019165%, 67.83905%)" d="M 23.6875 86.1875 L 35.816406 73.410156 C 42.933594 66.292969 54.902344 68.757812 54.902344 68.757812 L 90.421875 73.632812 L 108.417969 56.003906 C 117.890625 46.683594 126.449219 60.9375 122.726562 65.859375 L 113.488281 76.609375 L 151.75 83.699219 L 164.734375 68.542969 C 178.609375 51.9375 188.9375 66.902344 182.671875 75.707031 L 174.285156 86.339844 L 231.761719 93.839844 C 281.183594 46.226562 301.363281 26.472656 314.363281 38.210938 C 327.453125 50.015625 304.300781 73.558594 259.277344 119.992188 L 267.453125 179.277344 L 279.496094 169.234375 C 286.605469 163.300781 299.226562 172.808594 286.195312 185.1875 L 269.628906 200.824219 L 276.617188 239.632812 L 286.96875 231.664062 C 296.109375 224.375 307.203125 234.019531 294.847656 247.230469 L 278.410156 263.816406 C 277.730469 264.320312 283.773438 297.855469 283.773438 297.855469 C 287.496094 314.289062 278.234375 320.292969 278.234375 320.292969 L 266.945312 330.148438 L 224.046875 208.832031 C 220.492188 198.164062 211.480469 186.566406 196.429688 187.941406 C 188.476562 188.789062 168.386719 202.371094 165.671875 205.59375 L 119.152344 250.382812 C 117.960938 251.226562 126.308594 308.605469 126.308594 308.605469 C 126.308594 310.292969 111.558594 329.660156 111.558594 329.660156 L 82.078125 277.132812 L 67.523438 283.90625 L 76.035156 270.640625 L 22.960938 240.644531 L 42.863281 226.074219 C 52.335938 228.277344 102.027344 233.867188 103.042969 233.363281 C 103.042969 233.363281 143.511719 193.179688 145.824219 190.753906 C 159.195312 176.6875 163.691406 171.429688 165.71875 164.484375 C 167.753906 157.527344 164.292969 147.339844 143.308594 134.441406 C 114.363281 116.648438 23.683594 86.1875 23.683594 86.1875 Z M 23.6875 86.1875 " fill-opacity="1" fill-rule="nonzero"/></g><g clip-path="url(#id2)"><path fill="rgb(0%, 29.019165%, 67.83905%)" d="M 324.523438 137.640625 L 293.855469 123.90625 L 293.855469 154.535156 C 293.855469 156.214844 295.214844 157.574219 296.894531 157.574219 L 358.953125 157.574219 C 360.632812 157.574219 361.992188 156.214844 361.992188 154.535156 L 361.992188 123.925781 L 332.066406 137.640625 L 324.523438 137.640625 " fill-opacity="1" fill-rule="nonzero"/></g><g clip-path="url(#id3)"><path fill="rgb(0%, 29.019165%, 67.83905%)" d="M 359.699219 112.445312 L 296.804688 112.445312 C 295.230469 112.445312 293.855469 113.683594 293.855469 115.058594 L 293.855469 119.25 L 325.433594 133.382812 L 331.132812 133.382812 L 361.992188 119.25 L 361.992188 115.058594 C 361.992188 113.816406 361.269531 112.445312 359.699219 112.445312 " fill-opacity="1" fill-rule="nonzero"/></g><g clip-path="url(#id4)"><path fill="rgb(0%, 29.019165%, 67.83905%)" d="M 318.460938 106.324219 C 318.460938 105.734375 318.9375 105.265625 319.519531 105.265625 L 336.320312 105.265625 C 336.910156 105.265625 337.386719 105.734375 337.386719 106.324219 L 337.386719 109.542969 L 341.320312 109.542969 L 341.320312 106.324219 C 341.320312 103.566406 339.078125 101.335938 336.320312 101.335938 L 319.519531 101.335938 C 316.769531 101.335938 314.527344 103.566406 314.527344 106.324219 L 314.527344 109.542969 L 318.460938 109.542969 L 318.460938 106.324219 " fill-opacity="1" fill-rule="nonzero"/></g></svg>